<svg id="ps_cc_app_RGB.svg" xmlns="http://www.w3.org/2000/svg" viewBox="0 0 243.1 237.01"><defs><style>.cls-1{fill:#fefefe;}.cls-2{fill:#fd2bc1;}.cls-3{fill:#2e001e;}.cls-4{fill:#fc2bc0;}.cls-5{fill:#2f001f;}</style></defs><title>adobe-xd</title><path class="cls-1" d="M121,236.43q59.54,0,119.05,0c2,0,2.57-.36,2.57-2.48q-.1-116,0-232c0-2.07-.54-2.5-2.55-2.5Q121.06-.45,2-.53C.12-.54-.46-.18-.45,1.84Q-.37,118-.45,234.07c0,2,.51,2.41,2.43,2.4Q61.52,236.38,121,236.43Z" transform="translate(0.45 0.54)"/><path class="cls-2" d="M121,236.43q-59.52,0-119,0c-1.92,0-2.43-.41-2.43-2.4Q-.37,118-.45,1.84C-.46-.18.12-.54,2-.53q119.06.08,238.1,0c2,0,2.55.43,2.55,2.5q-.09,116,0,232c0,2.12-.61,2.48-2.57,2.48Q180.56,236.38,121,236.43Zm0-10.15q54.47,0,108.93,0c1.92,0,2.6-.29,2.6-2.47q-.1-105.88,0-211.78c0-1.89-.38-2.47-2.39-2.46q-109,.08-218.06,0c-2,0-2.38.6-2.38,2.48q.08,105.9,0,211.78c0,1.9.38,2.47,2.39,2.47Q66.54,226.22,121,226.28Z" transform="translate(0.45 0.54)"/><path class="cls-3" d="M121,226.28q-54.46,0-108.93.05c-2,0-2.39-.57-2.39-2.47Q9.76,118,9.68,12.08c0-1.88.35-2.48,2.38-2.48q109,.09,218.06,0c2,0,2.39.57,2.39,2.46q-.07,105.9,0,211.78c0,2.18-.68,2.47-2.6,2.47Q175.47,226.25,121,226.28Zm73.4-119.65c0-16.2,0-32.39,0-48.59,0-1.79-.51-2.32-2.29-2.27q-6.89.16-13.76,0c-1.79,0-2.33.53-2.31,2.31.08,7.69,0,15.38.07,23.08,0,1.53-.39,1.93-1.93,1.85a49,49,0,0,0-9.29.29c-14.33,2-24.63,9.42-30.45,22.67-4.65,10.59-4.81,21.65-2.21,32.73,2.94,12.51,10.18,21.55,22.78,25.35,13.34,4,26.26,1.88,38.79-3.66,1.08-.48,1.08-1.25,1-2.15a58.34,58.34,0,0,1-.4-7.47Q194.42,128.69,194.4,106.63ZM85.67,96.82c-.7-.4-.78-1-1-1.45C78.75,82.81,72.81,70.25,67,57.65a2.86,2.86,0,0,0-3.07-1.93c-5.06.09-10.12,0-15.19,0-2.72,0-2.81.15-1.6,2.55q12.66,25,25.35,50a3.75,3.75,0,0,1,0,3.89q-13.24,25.28-26.37,50.61c-1.09,2.09-1,2.3,1.51,2.3,4.66,0,9.32-.09,14,0a3.81,3.81,0,0,0,4-2.58q9-18.92,17.51-38c.31-.69.44-1.53,1.28-2,.24.44.45.77.62,1.13q9.38,19.63,18.7,39.27a3.4,3.4,0,0,0,3.57,2.29c5.06-.12,10.12,0,15.19,0,2.62,0,2.77-.26,1.55-2.63-8.84-17.15-17.64-34.31-26.57-51.42a4.87,4.87,0,0,1,0-5.17C105.88,90,114.16,74,122.47,58c1.07-2.07,1-2.27-1.32-2.28-4.73,0-9.45.08-14.18,0a3.07,3.07,0,0,0-3.22,2.13c-2,4.42-4.1,8.8-6.15,13.2C93.63,79.6,89.67,88.17,85.67,96.82Z" transform="translate(0.45 0.54)"/><path class="cls-4" d="M194.4,106.63q0,22.07,0,44.14a58.34,58.34,0,0,0,.4,7.47c.12.9.12,1.67-1,2.15-12.53,5.54-25.45,7.68-38.79,3.66-12.6-3.8-19.84-12.84-22.78-25.35-2.6-11.08-2.44-22.14,2.21-32.73,5.82-13.25,16.12-20.7,30.45-22.67a49,49,0,0,1,9.29-.29c1.54.08,1.95-.32,1.93-1.85-.08-7.7,0-15.39-.07-23.08,0-1.78.52-2.35,2.31-2.31q6.87.16,13.76,0c1.78-.05,2.3.48,2.29,2.27C194.37,74.24,194.4,90.43,194.4,106.63Zm-18.5,17.62c0-7.76-.08-15.52,0-23.28,0-1.89-.72-2.41-2.35-2.69-10.39-1.76-19.43,3.81-22.91,14.21-2.13,6.36-2.11,12.88-1.17,19.41,1.9,13.33,11.37,20.3,24.1,17.93,1.63-.31,2.36-.83,2.33-2.71C175.82,139.5,175.9,131.87,175.9,124.25Z" transform="translate(0.45 0.54)"/><path class="cls-4" d="M85.67,96.82c4-8.65,8-17.22,11.93-25.78,2.05-4.4,4.14-8.78,6.15-13.2A3.07,3.07,0,0,1,107,55.71c4.73.12,9.45,0,14.18,0,2.27,0,2.39.21,1.32,2.28-8.31,16-16.59,32-25,47.9a4.87,4.87,0,0,0,0,5.17c8.93,17.11,17.73,34.27,26.57,51.42,1.22,2.37,1.07,2.62-1.55,2.63-5.07,0-10.13-.08-15.19,0a3.4,3.4,0,0,1-3.57-2.29Q94.4,143.25,85,123.63c-.17-.36-.38-.69-.62-1.13-.84.48-1,1.32-1.28,2q-8.56,19.1-17.51,38a3.81,3.81,0,0,1-4,2.58c-4.65-.14-9.31,0-14,0-2.47,0-2.6-.21-1.51-2.3q13.17-25.32,26.37-50.61a3.75,3.75,0,0,0,0-3.89q-12.72-25-25.35-50c-1.21-2.4-1.12-2.55,1.6-2.55,5.07,0,10.13.06,15.19,0A2.86,2.86,0,0,1,67,57.65c5.86,12.6,11.8,25.16,17.72,37.72C84.89,95.84,85,96.42,85.67,96.82Z" transform="translate(0.45 0.54)"/><path class="cls-5" d="M175.9,124.25c0,7.62-.08,15.25,0,22.87,0,1.88-.7,2.4-2.33,2.71-12.73,2.37-22.2-4.6-24.1-17.93-.94-6.53-1-13.05,1.17-19.41,3.48-10.4,12.52-16,22.91-14.21,1.63.28,2.38.8,2.35,2.69C175.82,108.73,175.9,116.49,175.9,124.25Z" transform="translate(0.45 0.54)"/></svg>