<svg xmlns="http://www.w3.org/2000/svg" width="227.855" height="99.639" viewBox="0 0 227.855 99.639">
  <g id="Group_68" data-name="Group 68" transform="translate(-384.985 -2328.037)">
    <path id="Path_583" data-name="Path 583" d="M400.41,2340.008c-2.447.465-4.887.9-7.34,1.338s-4.894.881-7.341,1.339l4.588-9.093q7.952-1.463,14.681-2.76Z" transform="translate(3.997 15.02)" fill="#fff"/>
    <path id="Path_584" data-name="Path 584" d="M404.33,2339.963l1.376,20.1-5.658,10.558-.994-14.452a12.068,12.068,0,0,1-6.117,3.824,6.729,6.729,0,0,1-1.988.3,7.093,7.093,0,0,1-4.893-2.141,3.554,3.554,0,0,1-1.071-2.746,7.3,7.3,0,0,1,.306-1.994,30.022,30.022,0,0,1,2.568-6.724,55.2,55.2,0,0,1,3.893-6.544,24.282,24.282,0,0,1,3.173-3.938c1.886-1.777,3.594-2.676,5.123-2.676a3.648,3.648,0,0,1,1.453.307Q404.33,2334.986,404.33,2339.963Zm-8.411,3.052a4.069,4.069,0,0,0-1.294-.229,2.834,2.834,0,0,0-1.988.764,14.089,14.089,0,0,0-2.3,2.217,2.476,2.476,0,0,0-.459,1.073,2.065,2.065,0,0,0,.382,1.07,4.857,4.857,0,0,0,3.059,2.293,7.8,7.8,0,0,0,2.217.306,7.413,7.413,0,0,0,2.37-.376c.051-.465.1-.974.153-1.536a16.963,16.963,0,0,0-.229-2.6Q397.525,2343.549,395.919,2343.016Z" transform="translate(0 29.523)" fill="#fff"/>
    <path id="Path_585" data-name="Path 585" d="M410.164,2347.278q-.612,1.844-2.211,5.436l.07.076a38.842,38.842,0,0,0,4.741-.7q3.211-3.812,6.653-7.492,3.441-3.661,7.111-7.112a11.366,11.366,0,0,1,5.352-2.37,8.947,8.947,0,0,1,1.606-.146,4.916,4.916,0,0,1,3.976,1.834,4.979,4.979,0,0,1,1.376,3.512,5.962,5.962,0,0,1-.612,2.529,32.955,32.955,0,0,1-3.594,5.727,24.787,24.787,0,0,1-6.614,6.119,42.861,42.861,0,0,1-8.526,4.2c-1.071.306-2.587.733-4.55,1.268a44.635,44.635,0,0,1-5.773,1.18,19.876,19.876,0,0,1-3.365.3,11.808,11.808,0,0,1-1.453-.076c-1.02-.1-1.529-.509-1.529-1.223a3.132,3.132,0,0,1,.083-.682,40.473,40.473,0,0,1-7.461,1.981c-3.237.619-5.952,1.02-8.144,1.23l1.682-10.093q14.3-.994,17.587-2.836a7.876,7.876,0,0,0,3.288-3.746c.1-.146.2-.23.306-.23.051,0,.076.134.076.389A2.92,2.92,0,0,1,410.164,2347.278Zm20.569-1.912a4.046,4.046,0,0,0-2.523-1.758,5.222,5.222,0,0,0-1.453-.224,4.859,4.859,0,0,0-2.065.453,20.311,20.311,0,0,0-4.779,3.6q-2.1,2.133-4.167,4.207,4.052-.765,7.837-1.728a35.928,35.928,0,0,0,7.073-2.556.789.789,0,0,0,.459-.763A3.017,3.017,0,0,0,430.732,2345.366Z" transform="translate(12.442 37.265)" fill="#fff"/>
    <path id="Path_586" data-name="Path 586" d="M409.836,2341.539c-2.441.457-4.887.9-7.341,1.338s-4.893.879-7.334,1.339l4.582-9.1q7.952-1.453,14.687-2.76Z" transform="translate(54.671 23.201)" fill="#fff"/>
    <path id="Path_587" data-name="Path 587" d="M436.246,2361.614a24.917,24.917,0,0,1-7.876,5.544A62.057,62.057,0,0,1,417.6,2371.1a69.248,69.248,0,0,1-11.4,2.064q-2.753.228-5.123.306a33.563,33.563,0,0,1-4.734-.306q-4.9-.69-5.665-4.129a19.207,19.207,0,0,1-.3-2.593,15.912,15.912,0,0,1,.835-4.9,36.416,36.416,0,0,1,3.441-7.953c1.478-2.541,2.625-4.383,3.441-5.505a.444.444,0,0,1,.306-.152h.23q.153,0,.153.228a1.243,1.243,0,0,1-.076.307q-3.059,5.965-3.059,9.252a4.494,4.494,0,0,0,.535,2.294q1.682,3.133,6.423,3.365a11.921,11.921,0,0,1,1.306.076,48.839,48.839,0,0,0,6.34-.535c3.364-.409,6.83-1,10.4-1.8a99.016,99.016,0,0,0,10.055-2.753,19.912,19.912,0,0,0,6.69-3.327l-.917-2.751c-.51-1.48-.969-2.244-1.37-2.289a.242.242,0,0,0-.236.147,8.762,8.762,0,0,1-3.135,1.682,5.317,5.317,0,0,1-1.529.229,4.417,4.417,0,0,1-2.217-.612,2.222,2.222,0,0,1-1.147-2.064v-.23a5.4,5.4,0,0,1,.535-2.447c.867-1.529,1.682-3.116,2.447-4.78a28.9,28.9,0,0,1,2.676-4.625,3.137,3.137,0,0,1,2.447-1.605,3,3,0,0,1,1.765.687,11.975,11.975,0,0,1,3.74,4.436,12.7,12.7,0,0,1,1.377,6.193,19.767,19.767,0,0,1-.536,4.511A22.965,22.965,0,0,1,436.246,2361.614Z" transform="translate(28.95 41.128)" fill="#fff"/>
    <path id="Path_588" data-name="Path 588" d="M437.073,2336.388q-1.376,6.731-4.435,10.093a30.122,30.122,0,0,1-8.487,6.2,33.214,33.214,0,0,1-8.449,2.867,31.2,31.2,0,0,0-8.449,2.944,11.976,11.976,0,0,0-2.867,2.02,3.816,3.816,0,0,0-.879,3.709l3.135,19.956a37.67,37.67,0,0,1-1.07,15.223,138.84,138.84,0,0,0-2.944-15.491,64.491,64.491,0,0,1-1.873-15.782,39.118,39.118,0,0,1,.841-8.112,33.672,33.672,0,0,1,2.37-7.258,10.889,10.889,0,0,1,5.2-4.32,75.026,75.026,0,0,1,7.493-2.568l5.582-1.529,2.906-6.455c1.275-2.836,2.6-4.244,3.976-4.244a15.729,15.729,0,0,1,4.932-.306Q437.608,2333.481,437.073,2336.388Z" transform="translate(84.705 28.274)" fill="#fff"/>
    <path id="Path_589" data-name="Path 589" d="M407.989,2340.061l4.817-8.953,2.906,43.515-4.741,9.022Z" transform="translate(123.577 16.503)" fill="#fff"/>
    <path id="Path_590" data-name="Path 590" d="M423.766,2353.614a35.677,35.677,0,0,1-5.008,1.644c-1.912.484-3.836.925-5.773,1.339q-1.912.524-4.588,1.369l3.976-10.628.077-.07h.153q2.982-.457,8.6-1.566c3.746-.747,6.053-2.435,6.92-5.086,0-.108.025-.158.076-.158s.1.133.153.381a5.28,5.28,0,0,0,.153.848v.306a15.583,15.583,0,0,1-.306,2.517h.153a8.5,8.5,0,0,0,3.632-.8,14.336,14.336,0,0,0,2.944-1.791,3.525,3.525,0,0,0,1.071-1.529,14.437,14.437,0,0,1,.841-1.836c.1-.159.178-.236.229-.236s.1.1.153.306v.611a13.58,13.58,0,0,1-.459,3.441q5.658-.994,7.035-6.263a.989.989,0,0,1,.229-.465h.077l.076.076a55.157,55.157,0,0,1-1.223,7.339,16.084,16.084,0,0,1-2.753,6.048,9.416,9.416,0,0,1-3.556,2.439,10.734,10.734,0,0,1-4.091,1.231.561.561,0,0,1-.612-.536,1.225,1.225,0,0,0-.65.223c-.229.152-.421.286-.573.389-.663.3-1.313.593-1.95.873a13.655,13.655,0,0,1-2.179.727c-.459.1-.866.185-1.223.237A1.422,1.422,0,0,1,423.766,2353.614Z" transform="translate(125.768 42.481)" fill="#fff"/>
    <path id="Path_591" data-name="Path 591" d="M429.3,2339.048c-2.447.465-4.887.906-7.341,1.338s-4.894.879-7.334,1.339l4.581-9.093q7.952-1.46,14.681-2.758Z" transform="translate(159.225 9.863)" fill="#fff"/>
    <path id="Path_592" data-name="Path 592" d="M435.063,2358.8a24.334,24.334,0,0,1-6.882,5.582q-3.756,1.988-15.14,4.358l1.682-9.864q17.654-3.746,21.327-6.652l-.918-2.759c-.51-1.473-.969-2.218-1.377-2.218a.242.242,0,0,0-.229.16,8.145,8.145,0,0,1-3.129,1.605,5.007,5.007,0,0,1-3.747-.306,2.277,2.277,0,0,1-1.147-2.147v-.147a5.3,5.3,0,0,1,.535-2.447q1.214-2.294,2.4-4.779a28.394,28.394,0,0,1,2.791-4.633,3.154,3.154,0,0,1,2.453-1.605,2.606,2.606,0,0,1,1.676.694,11.878,11.878,0,0,1,3.747,4.436,13.331,13.331,0,0,1,1.453,6.192,18.259,18.259,0,0,1-.605,4.582A22.858,22.858,0,0,1,435.063,2358.8Z" transform="translate(150.716 26.365)" fill="#fff"/>
    <path id="Path_593" data-name="Path 593" d="M428.738,2331.477a2.77,2.77,0,0,1-1.644,1.529,4.335,4.335,0,0,0-2.02,1.683,3.586,3.586,0,0,0,1.829,1.07,8.3,8.3,0,0,1,2.065.842,2.069,2.069,0,0,1,1,1.758,3.756,3.756,0,0,1-.312,1.377,7.874,7.874,0,0,1-2.982,3.523,8.347,8.347,0,0,1-3.708,1.605c-1.3.2-2.638.428-4.008.682q1.758-.762,3.549-1.566c1.2-.536,2.357-1.11,3.485-1.715.35-.21.535-.414.535-.617,0-.052-.057-.128-.159-.225-.459-.255-.943-.5-1.447-.732s-1-.472-1.453-.727a2.148,2.148,0,0,1-1.383-2.064,6.539,6.539,0,0,1,1.606-3.594,31.317,31.317,0,0,1,4.664-5.2,11.259,11.259,0,0,1,1.988-1.07Z" transform="translate(182.496)" fill="#fff"/>
    <path id="Path_594" data-name="Path 594" d="M419.473,2340.067l5.658-8.946,2.211,32.5-5.652,8.947Z" transform="translate(185.269 16.567)" fill="#fff"/>
  </g>
</svg>
