<svg xmlns="http://www.w3.org/2000/svg" width="91.719" height="92.055" viewBox="0 0 91.719 92.055">
  <g id="Group_70" data-name="Group 70" transform="translate(371.326 -2119.071)">
    <path id="Path_595" data-name="Path 595" d="M-327.117,2119.071a79.064,79.064,0,0,1,8.134.852,9.109,9.109,0,0,1,4.675,15.142,41.823,41.823,0,0,0-10.87,23.987c-1.684,13.594,2.087,25.608,10.8,36.1,4.859,5.85,1.918,14.183-5.569,15.425A40.879,40.879,0,0,1-343,2207.661c-15.462-6.6-24.951-18.289-27.661-34.855A45.676,45.676,0,0,1-336.8,2120.5,90.627,90.627,0,0,1-327.117,2119.071Zm-16.852,46.129a9.272,9.272,0,0,0-9.116-9.25,9.255,9.255,0,0,0-9.278,9.3,9.278,9.278,0,0,0,9.165,9.093A9.3,9.3,0,0,0-343.969,2165.2Zm4.515,32.079a9.212,9.212,0,0,0,9.27-9.179,9.25,9.25,0,0,0-9.185-9.173,9.243,9.243,0,0,0-9.216,9.142A9.217,9.217,0,0,0-339.454,2197.279Zm.1-64.268a9.206,9.206,0,0,0-9.218,9.133,9.243,9.243,0,0,0,9.164,9.21,9.269,9.269,0,0,0,9.225-9.156A9.209,9.209,0,0,0-339.358,2133.011Z" transform="translate(0)" fill="#fff"/>
    <path id="Path_596" data-name="Path 596" d="M-17.405,2184.116h-9.212v-1.528q0-17.548.017-35.1a1.582,1.582,0,0,0-.754-1.491,8.93,8.93,0,0,1-2.651-11.915c2.64-4.683,5.274-9.369,7.974-14.167.249.4.459.707.642,1.031q3.745,6.654,7.482,13.312a8.907,8.907,0,0,1-2.638,11.66,1.833,1.833,0,0,0-.87,1.744q.03,17.655.011,35.312C-17.405,2183.33-17.405,2183.681-17.405,2184.116Z" transform="translate(-266.844 -0.666)" fill="#fff"/>
    <path id="Path_597" data-name="Path 597" d="M-9.683,2461H-.635a7.273,7.273,0,0,1,.084.765c0,4.41.027,8.819-.009,13.229a4.242,4.242,0,0,1-3.614,4.3c-2.516.4-4.579-.687-5.283-2.824a5.575,5.575,0,0,1-.285-1.685c-.022-4.409-.012-8.819-.009-13.229C-9.75,2461.423-9.718,2461.285-9.683,2461Z" transform="translate(-283.702 -268.292)" fill="#fff"/>
  </g>
</svg>
