<svg xmlns="http://www.w3.org/2000/svg" xmlns:xlink="http://www.w3.org/1999/xlink" width="96" height="96" viewBox="0 0 96 96">
  <defs>
    <clipPath id="clip-path">
      <rect id="Rectangle_6" data-name="Rectangle 6" width="96" height="96" transform="translate(291 1274)" fill="#fff"/>
    </clipPath>
  </defs>
  <g id="Mask_Group_7" data-name="Mask Group 7" transform="translate(-291 -1274)" clip-path="url(#clip-path)">
    <path id="iconfinder_print_1608799" d="M25.846,88.615H77.538V73.846H25.846Zm0-36.923H77.538V29.538H68.308A5.515,5.515,0,0,1,62.769,24V14.769H25.846Zm66.462,3.692a3.744,3.744,0,1,0-1.1,2.6A3.548,3.548,0,0,0,92.308,55.385Zm7.385,0v24a1.872,1.872,0,0,1-1.846,1.846H84.923v9.231A5.515,5.515,0,0,1,79.385,96H24a5.515,5.515,0,0,1-5.538-5.538V81.231H5.538a1.774,1.774,0,0,1-1.3-.548,1.774,1.774,0,0,1-.548-1.3v-24a10.663,10.663,0,0,1,3.26-7.817,10.663,10.663,0,0,1,7.817-3.26h3.692V12.923A5.515,5.515,0,0,1,24,7.385H62.769a13.318,13.318,0,0,1,5.077,1.154,13.423,13.423,0,0,1,4.385,2.769L81,20.077a13.423,13.423,0,0,1,2.769,4.385,13.318,13.318,0,0,1,1.154,5.077V44.308h3.692A11.129,11.129,0,0,1,99.692,55.385Z" transform="translate(287.308 1270.308)" fill="#fff"/>
  </g>
</svg>
