<svg xmlns="http://www.w3.org/2000/svg" width="114.212" height="79.721" viewBox="0 0 114.212 79.721">
  <g id="Group_71" data-name="Group 71" transform="translate(-315.045 -2419.972)">
    <path id="Path_598" data-name="Path 598" d="M343.84,2499.693v-52.084l-17.948,6.125-10.847-16.266c.419-.258.776-.485,1.14-.7q13.774-8.091,27.563-16.159a4.657,4.657,0,0,1,2.194-.6c4.676-.054,9.353-.027,14.137-.027a12.427,12.427,0,0,0,5.2,9.632,11.634,11.634,0,0,0,7.92,2.129c5.179-.442,10.607-4.236,11.073-11.761h1.486c4.288,0,8.576-.013,12.864.016a3.247,3.247,0,0,1,1.554.37q14.2,8.3,28.372,16.644c.23.135.437.308.709.5l-10.816,16.222-17.911-6.111v52.071Zm30.453-23.716.369-.086,2.085-5.748,2.3,1.664v-2.588l5.721,1.875.173-.263-2.547-5.044,6.01-.657-4.153-3.615,4.876-2.6,0-.365-7.082-2.1,1.572-1.877h-2.441l1.944-7.114-.331-.168-4.141,2.263-1.107-5.286-.333-.006-2.878,3.934-2.772-4.512-.339.131-1.823,7.746-2.32-1.743-.27.268v1.813l-6.09-2.707-.231.24,2.263,5.527h-5.784l4.277,4.074-4.673,2.053v.366l7.3,2.808-2,2.16,2.167.125c-.441,2.081-1.663,3.88-1.457,6.252l4.978-2.32.752,5.031.4.023,3.11-3.773Z" transform="translate(0 0)" fill="#fff"/>
    <path id="Path_599" data-name="Path 599" d="M532.006,2575.124a5.193,5.193,0,1,1,5.087,5.267A5.249,5.249,0,0,1,532.006,2575.124Z" transform="translate(-165.741 -114.615)" fill="#fff"/>
  </g>
</svg>
