<svg xmlns="http://www.w3.org/2000/svg" width="65.325" height="92.73" viewBox="0 0 65.325 92.73">
  <g id="Group_72" data-name="Group 72" transform="translate(-1143.915 -2240.64)">
    <path id="Path_600" data-name="Path 600" d="M1180.214,2301.342c1.678,0,3.344-.009,5.009,0,2.367.015,2.608.276,2.55,2.846q-11.1,0-22.215,0c-.427-2.215.031-2.82,2.21-2.846,1.732-.021,3.464,0,5.432,0a37.209,37.209,0,0,0-.066-4.789c-.083-.614-.812-1.252-1.4-1.669a93.906,93.906,0,0,1-18.671-16.851c-4.428-5.428-7.872-11.348-8.941-18.429-1.34-8.875,3.837-17,12.217-18.627,7.18-1.391,12.726,1.616,17.044,7.214.785,1.018,1.357,2.2,2.084,3.263a9.239,9.239,0,0,0,1.137,1.173,6.136,6.136,0,0,0,1.127-1.165,20.742,20.742,0,0,1,9.136-9.2,15.46,15.46,0,0,1,22.338,13.267c.37,7.223-2.49,13.371-6.48,19.09a74.075,74.075,0,0,1-19.745,19.007C1179.876,2295.712,1179.687,2298.1,1180.214,2301.342Z" fill="#fff"/>
    <path id="Path_601" data-name="Path 601" d="M1215.912,2411.121c1.113,6.7,2.211,13.307,3.332,20.05h-30.487l3.331-20.05Z" transform="translate(-27.427 -104.271)" fill="#fff"/>
    <path id="Path_602" data-name="Path 602" d="M1218.716,2469.418c.383,3.46.028,3.868-3.313,3.871q-12.52.011-25.04.009c-3.314,0-3.689-.414-3.325-3.88Z" transform="translate(-26.307 -139.928)" fill="#fff"/>
  </g>
</svg>
