<svg xmlns="http://www.w3.org/2000/svg" xmlns:xlink="http://www.w3.org/1999/xlink" width="350.622" height="285.399" viewBox="0 0 350.622 285.399">
  <defs>
    <linearGradient id="linear-gradient" x1="0.883" y1="-0.125" x2="0.42" y2="0.63" gradientUnits="objectBoundingBox">
      <stop offset="0" stop-color="#04070c"/>
      <stop offset="0.134" stop-color="#070a0f"/>
      <stop offset="0.267" stop-color="#13161b"/>
      <stop offset="0.401" stop-color="#272a2e"/>
      <stop offset="0.534" stop-color="#444649"/>
      <stop offset="0.667" stop-color="#68696c"/>
      <stop offset="0.801" stop-color="#949597"/>
      <stop offset="0.932" stop-color="#c8c8c9"/>
      <stop offset="1" stop-color="#e6e6e6"/>
    </linearGradient>
    <linearGradient id="linear-gradient-2" x1="0.944" y1="-0.017" x2="0.576" y2="0.38" xlink:href="#linear-gradient"/>
    <linearGradient id="linear-gradient-3" x1="-0.92" y1="-0.028" x2="0.837" y2="0.624" xlink:href="#linear-gradient"/>
    <linearGradient id="linear-gradient-4" x1="-0.21" y1="-0.058" x2="0.654" y2="0.633" xlink:href="#linear-gradient"/>
    <linearGradient id="linear-gradient-5" x1="0.12" y1="0.026" x2="0.461" y2="0.625" xlink:href="#linear-gradient"/>
    <linearGradient id="linear-gradient-6" x1="0.555" y1="0.421" x2="0.505" y2="0.487" xlink:href="#linear-gradient"/>
    <linearGradient id="linear-gradient-7" x1="0.864" y1="-0.228" x2="0.566" y2="0.374" xlink:href="#linear-gradient"/>
    <linearGradient id="linear-gradient-8" x1="0.676" y1="-0.145" x2="0.531" y2="0.385" xlink:href="#linear-gradient"/>
    <linearGradient id="linear-gradient-9" x1="0.602" y1="0.428" x2="0.518" y2="0.487" xlink:href="#linear-gradient"/>
    <linearGradient id="linear-gradient-10" x1="0.982" y1="0.05" x2="0.602" y2="0.395" xlink:href="#linear-gradient"/>
    <linearGradient id="linear-gradient-11" x1="-0.542" y1="-0.273" x2="7.227" y2="6.675" gradientUnits="objectBoundingBox">
      <stop offset="0" stop-color="#fff"/>
      <stop offset="1"/>
    </linearGradient>
    <linearGradient id="linear-gradient-12" x1="-1.526" y1="-1.471" x2="10.775" y2="9.53" xlink:href="#linear-gradient-11"/>
    <linearGradient id="linear-gradient-13" x1="-10.463" y1="-9.146" x2="1.838" y2="1.856" xlink:href="#linear-gradient-11"/>
    <linearGradient id="linear-gradient-14" x1="-6.319" y1="-5.678" x2="6.21" y2="5.661" xlink:href="#linear-gradient-11"/>
    <linearGradient id="linear-gradient-15" x1="-6.647" y1="-5.976" x2="17.168" y2="15.58" xlink:href="#linear-gradient-11"/>
    <linearGradient id="linear-gradient-16" x1="-5.655" y1="-5.078" x2="18.16" y2="16.478" xlink:href="#linear-gradient-11"/>
    <linearGradient id="linear-gradient-17" x1="-8.927" y1="-8.039" x2="12.264" y2="11.141" xlink:href="#linear-gradient-11"/>
    <linearGradient id="linear-gradient-18" x1="-0.38" y1="-0.303" x2="20.811" y2="18.877" xlink:href="#linear-gradient-11"/>
    <linearGradient id="linear-gradient-19" x1="-4.553" y1="-4.08" x2="16.637" y2="15.1" xlink:href="#linear-gradient-11"/>
    <linearGradient id="linear-gradient-20" x1="-1.199" y1="-2.194" x2="4.024" y2="6.254" xlink:href="#linear-gradient-11"/>
    <linearGradient id="linear-gradient-21" x1="-1.54" y1="-3.919" x2="7.03" y2="14.663" xlink:href="#linear-gradient-11"/>
    <linearGradient id="linear-gradient-22" x1="-3.142" y1="-7.393" x2="8.069" y2="16.916" xlink:href="#linear-gradient-11"/>
    <linearGradient id="linear-gradient-23" x1="-1.503" y1="-2.754" x2="3.899" y2="6.024" xlink:href="#linear-gradient-11"/>
    <linearGradient id="linear-gradient-24" x1="-4.124" y1="-7.218" x2="3.104" y2="4.839" xlink:href="#linear-gradient-11"/>
    <linearGradient id="linear-gradient-25" x1="-9.645" y1="-7.335" x2="6.992" y2="5.499" xlink:href="#linear-gradient-11"/>
    <linearGradient id="linear-gradient-26" x1="-5.129" y1="-4.534" x2="8.58" y2="7.729" xlink:href="#linear-gradient-11"/>
    <linearGradient id="linear-gradient-27" x1="-2.213" y1="-2.237" x2="7.567" y2="7.542" xlink:href="#linear-gradient-11"/>
    <linearGradient id="linear-gradient-28" x1="-4.769" y1="-4.921" x2="7.06" y2="7.373" xlink:href="#linear-gradient-11"/>
    <linearGradient id="linear-gradient-29" x1="-2.417" y1="-2.477" x2="9.412" y2="9.818" xlink:href="#linear-gradient-11"/>
    <linearGradient id="linear-gradient-30" x1="-5.247" y1="-3.6" x2="1.804" y2="1.545" xlink:href="#linear-gradient-11"/>
    <linearGradient id="linear-gradient-31" x1="-4.562" y1="-3.1" x2="8.799" y2="6.65" xlink:href="#linear-gradient-11"/>
    <linearGradient id="linear-gradient-32" x1="-5.989" y1="-6.678" x2="4.64" y2="5.281" xlink:href="#linear-gradient-11"/>
    <linearGradient id="linear-gradient-33" x1="-22.292" y1="-10.043" x2="7.144" y2="3.616" xlink:href="#linear-gradient-11"/>
    <linearGradient id="linear-gradient-34" x1="-12.064" y1="-4.034" x2="18.808" y2="7.154" xlink:href="#linear-gradient-11"/>
    <linearGradient id="linear-gradient-35" x1="-3.827" y1="-6.786" x2="8.496" y2="14.403" xlink:href="#linear-gradient-11"/>
    <linearGradient id="linear-gradient-36" x1="-5.347" y1="-1.638" x2="25.525" y2="9.55" xlink:href="#linear-gradient-11"/>
    <linearGradient id="linear-gradient-37" x1="-10.345" y1="-4.256" x2="3.198" y2="1.673" xlink:href="#linear-gradient-11"/>
    <linearGradient id="linear-gradient-38" x1="-9.217" y1="-3.762" x2="4.327" y2="2.166" xlink:href="#linear-gradient-11"/>
    <linearGradient id="linear-gradient-39" x1="-2.776" y1="-0.943" x2="15.252" y2="6.949" xlink:href="#linear-gradient-11"/>
    <linearGradient id="linear-gradient-40" x1="-2.005" y1="-6.981" x2="2.684" y2="6.847" xlink:href="#linear-gradient-11"/>
    <linearGradient id="linear-gradient-41" x1="-2.479" y1="-0.372" x2="10.879" y2="3.611" xlink:href="#linear-gradient-11"/>
    <linearGradient id="linear-gradient-42" x1="-4.531" y1="-0.806" x2="11.206" y2="3.507" xlink:href="#linear-gradient-11"/>
    <linearGradient id="linear-gradient-43" x1="-6.964" y1="-1.303" x2="10.198" y2="2.929" xlink:href="#linear-gradient-11"/>
    <linearGradient id="linear-gradient-44" x1="-0.096" y1="-0.555" x2="3.842" y2="6.715" xlink:href="#linear-gradient-11"/>
    <linearGradient id="linear-gradient-45" x1="-3.045" y1="-2.764" x2="4.814" y2="4.538" xlink:href="#linear-gradient-11"/>
    <linearGradient id="linear-gradient-46" x1="-4.095" y1="-4.204" x2="5.295" y2="5.04" xlink:href="#linear-gradient-11"/>
    <linearGradient id="linear-gradient-47" x1="-8.827" y1="-8.863" x2="7.295" y2="7.009" xlink:href="#linear-gradient-11"/>
    <linearGradient id="linear-gradient-48" x1="-3.08" y1="-3.205" x2="7.258" y2="6.973" xlink:href="#linear-gradient-11"/>
    <linearGradient id="linear-gradient-49" x1="-8.855" y1="-8.89" x2="7.525" y2="7.235" xlink:href="#linear-gradient-11"/>
    <linearGradient id="linear-gradient-50" x1="-1.347" y1="-2.968" x2="4.715" y2="8.55" xlink:href="#linear-gradient-11"/>
    <linearGradient id="linear-gradient-51" x1="-1.774" y1="-2.034" x2="2.965" y2="3.56" xlink:href="#linear-gradient-11"/>
    <linearGradient id="linear-gradient-52" x1="-3.665" y1="-4.036" x2="2.622" y2="2.927" xlink:href="#linear-gradient-11"/>
    <linearGradient id="linear-gradient-53" x1="-3.143" y1="-4.185" x2="9.077" y2="10.91" xlink:href="#linear-gradient-11"/>
    <linearGradient id="linear-gradient-54" x1="-2.943" y1="-3.76" x2="5.847" y2="7.233" xlink:href="#linear-gradient-11"/>
    <linearGradient id="linear-gradient-55" x1="-7.686" y1="-9.693" x2="1.103" y2="1.3" xlink:href="#linear-gradient-11"/>
    <linearGradient id="linear-gradient-56" x1="-1.489" y1="-0.708" x2="7.718" y2="5.508" xlink:href="#linear-gradient-11"/>
    <linearGradient id="linear-gradient-57" x1="-7.488" y1="-2.304" x2="6.893" y2="2.638" xlink:href="#linear-gradient-11"/>
    <linearGradient id="linear-gradient-58" x1="0.001" y1="-0.239" x2="4.358" y2="6.449" xlink:href="#linear-gradient-11"/>
    <linearGradient id="linear-gradient-59" x1="-4.031" y1="-7.016" x2="2.237" y2="3.406" xlink:href="#linear-gradient-11"/>
    <linearGradient id="linear-gradient-60" x1="-6.109" y1="-5.088" x2="3.043" y2="2.668" xlink:href="#linear-gradient-11"/>
    <linearGradient id="linear-gradient-61" x1="0.132" y1="0.126" x2="6.144" y2="6.477" xlink:href="#linear-gradient-11"/>
    <linearGradient id="linear-gradient-62" x1="-2.706" y1="-2.647" x2="5.57" y2="5.545" xlink:href="#linear-gradient-11"/>
    <linearGradient id="linear-gradient-63" x1="0.016" y1="-0.196" x2="7.74" y2="9.747" xlink:href="#linear-gradient-11"/>
    <linearGradient id="linear-gradient-64" x1="0" y1="0.5" x2="1" y2="0.5" xlink:href="#linear-gradient-11"/>
  </defs>
  <g id="Group_1" data-name="Group 1" transform="translate(-75 -161.5)">
    <g id="Group_18" data-name="Group 18" transform="translate(172.618 225.402)">
      <g id="Group_17" data-name="Group 17">
        <g id="Group_16" data-name="Group 16">
          <path id="Path_176" data-name="Path 176" d="M529.622,491.424c-.015-.015-.031-.026-.046-.041l.046.046h.005v-.005C529.622,491.43,529.622,491.424,529.622,491.424Zm-.389-.333a0,0,0,0,0,0-.005.005.005,0,0,0-.005.005.123.123,0,0,0,.036.02A.053.053,0,0,0,529.233,491.092Zm.389.333c-.015-.015-.031-.026-.046-.041l.046.046h.005v-.005C529.622,491.43,529.622,491.424,529.622,491.424Zm-.389-.333a0,0,0,0,0,0-.005.005.005,0,0,0-.005.005.123.123,0,0,0,.036.02A.053.053,0,0,0,529.233,491.092Zm.389.333c-.015-.015-.031-.026-.046-.041l.046.046h.005v-.005C529.622,491.43,529.622,491.424,529.622,491.424Zm-.389-.333a0,0,0,0,0,0-.005.005.005,0,0,0-.005.005.123.123,0,0,0,.036.02A.053.053,0,0,0,529.233,491.092Zm.389.333c-.015-.015-.031-.026-.046-.041l.046.046h.005v-.005C529.622,491.43,529.622,491.424,529.622,491.424Zm-.389-.333a0,0,0,0,0,0-.005.005.005,0,0,0-.005.005.123.123,0,0,0,.036.02A.053.053,0,0,0,529.233,491.092Zm2.889,6.248v.015a.308.308,0,0,0,.031-.118A.342.342,0,0,1,532.122,497.34Zm-.113.307c-.005.015-.01.026-.015.041a.621.621,0,0,0,.077-.18A.412.412,0,0,1,532.009,497.647Zm-2.387-6.223c-.015-.015-.031-.026-.046-.041l.046.046h.005v-.005C529.622,491.43,529.622,491.424,529.622,491.424Zm-.389-.333a0,0,0,0,0,0-.005.005.005,0,0,0-.005.005.123.123,0,0,0,.036.02A.053.053,0,0,0,529.233,491.092Zm2.889,6.248v.015a.308.308,0,0,0,.031-.118A.342.342,0,0,1,532.122,497.34Zm-.113.307c-.005.015-.01.026-.015.041a.621.621,0,0,0,.077-.18A.412.412,0,0,1,532.009,497.647Zm-2.387-6.223c-.015-.015-.031-.026-.046-.041l.046.046h.005v-.005C529.622,491.43,529.622,491.424,529.622,491.424Zm-.389-.333a0,0,0,0,0,0-.005.005.005,0,0,0-.005.005.123.123,0,0,0,.036.02A.053.053,0,0,0,529.233,491.092Zm2.889,6.248v.015a.308.308,0,0,0,.031-.118A.342.342,0,0,1,532.122,497.34Zm-.113.307c-.005.015-.01.026-.015.041a.621.621,0,0,0,.077-.18A.412.412,0,0,1,532.009,497.647Zm-2.387-6.223c-.015-.015-.031-.026-.046-.041l.046.046h.005v-.005C529.622,491.43,529.622,491.424,529.622,491.424Zm-.389-.333a0,0,0,0,0,0-.005.005.005,0,0,0-.005.005.123.123,0,0,0,.036.02A.053.053,0,0,0,529.233,491.092Zm2.889,6.248v.015a.308.308,0,0,0,.031-.118A.342.342,0,0,1,532.122,497.34Zm-.113.307c-.005.015-.01.026-.015.041a.621.621,0,0,0,.077-.18A.412.412,0,0,1,532.009,497.647Zm-2.387-6.223c-.015-.015-.031-.026-.046-.041l.046.046h.005v-.005C529.622,491.43,529.622,491.424,529.622,491.424Zm-.389-.333a0,0,0,0,0,0-.005.005.005,0,0,0-.005.005.123.123,0,0,0,.036.02A.053.053,0,0,0,529.233,491.092Zm2.889,6.264a.308.308,0,0,0,.031-.118.342.342,0,0,1-.031.1Zm-.128.333a.621.621,0,0,0,.077-.18.412.412,0,0,1-.061.138C532,497.663,532,497.673,531.994,497.688Zm-2.366-6.258v-.005c-.005.005-.005,0-.005,0-.015-.015-.031-.026-.046-.041l.046.046Zm-.271-.236v0h.005Zm-.123-.1a0,0,0,0,0,0-.005.005.005,0,0,0-.005.005.123.123,0,0,0,.036.02A.053.053,0,0,0,529.233,491.092Zm41.556,68.229c-.118.056-.241.113-.364.169l-.067.031c-.051.026-.1.051-.154.072q-.56.269-1.091.492h-.005c-.2.092-.394.174-.594.251-.031.015-.061.026-.087.036v.005c-.072.026-.138.057-.205.082-.1.041-.189.082-.282.118-.251.1-.5.195-.732.282s-.482.179-.712.256c-.148.051-.3.1-.451.149s-.287.1-.425.138c-.215.067-.42.133-.619.19a.241.241,0,0,0-.036.01,0,0,0,0,0-.005,0c-.061.021-.123.031-.179.046s-.113.031-.169.046c-.446.118-.866.21-1.27.282l-.394.062c-.076.015-.159.031-.225.041-.087.01-.164.026-.241.031-.107.016-.21.026-.312.031s-.2.02-.3.026-.174.01-.256.015-.164.005-.246.005a.556.556,0,0,1-.184,0h-.056c-.123,0-.246-.005-.359-.015a.8.8,0,0,1-.195-.016,1.1,1.1,0,0,1-.195-.02,1.165,1.165,0,0,1-.133-.02.325.325,0,0,1-.1-.016.156.156,0,0,0-.051-.005c-.051-.01-.1-.02-.154-.026-.082-.015-.164-.031-.241-.051a1.951,1.951,0,0,1-.23-.062,1.521,1.521,0,0,1-.256-.087,2.453,2.453,0,0,1-.292-.113c-.1-.041-.19-.092-.277-.138s-.174-.1-.261-.148-.159-.1-.241-.164a3.341,3.341,0,0,1-.425-.384.309.309,0,0,1-.036-.041,1.251,1.251,0,0,1-.153-.174c-.077-.1-.148-.2-.221-.3a.978.978,0,0,1-.1-.164v-.005c-.051-.087-.1-.174-.149-.266a.231.231,0,0,1-.026-.046c-.031-.062-.051-.118-.077-.174s-.046-.113-.072-.169c-.036-.087-.067-.174-.1-.266-.005-.01-.005-.016-.01-.026a.269.269,0,0,1-.026-.072v-.01c-.036-.113-.067-.236-.1-.359-.011-.046-.021-.092-.031-.138a1.4,1.4,0,0,0-.036-.143c-.01-.057-.02-.108-.026-.164a1.59,1.59,0,0,1-.026-.164c0-.051-.016-.1-.02-.143s-.01-.092-.02-.143a.222.222,0,0,1-.005-.061q-.015-.169-.031-.338c0-.077-.01-.159-.01-.236-.005-.153-.01-.307-.01-.466q0-.284.016-.584a.488.488,0,0,1,0-.082c.005-.169.021-.343.036-.517,0-.056.01-.118.015-.179.01-.092.021-.185.031-.282.01-.082.02-.159.031-.241.021-.174.046-.353.077-.533q.077-.469.169-.953.092-.445.2-.891c.041-.18.087-.354.133-.533s.092-.359.144-.538q.107-.4.23-.8t.246-.8c.056-.174.113-.348.174-.522.328-.978.686-1.926,1.04-2.807.148-.374.3-.737.445-1.086.5-1.183.968-2.181,1.306-2.883.057-.123.113-.23.159-.328.082-.169.153-.307.215-.425.026-.046.046-.087.067-.128.036-.077.066-.138.087-.174a.206.206,0,0,0,.031-.056s0-.005,0,0c-1.3.353-2.6.7-3.918,1.035h0q-4.571,1.175-9.337,2.223-14,3.112-27.226,4.7a125.925,125.925,0,0,1-16.614,1.4,33.669,33.669,0,0,0-3.4-.195,25.156,25.156,0,0,1-10.151-2.371,15.676,15.676,0,0,1-2.807-1.787v-.005h0c-.144-.113-.287-.231-.425-.354a.228.228,0,0,1-.036-.036,2.729,2.729,0,0,1-.225-.2c-.184-.159-.369-.328-.543-.507-.123-.123-.246-.246-.363-.379a2.044,2.044,0,0,1-.149-.159c-.143-.154-.277-.312-.41-.471-.164-.194-.318-.394-.471-.594s-.3-.41-.44-.62a14.978,14.978,0,0,1-.794-1.326c-.1-.185-.2-.364-.287-.548a1.225,1.225,0,0,1-.1-.2c-.005-.005-.01-.005-.005-.011a3.405,3.405,0,0,1-.164-.374,6.088,6.088,0,0,1-.256-.712.879.879,0,0,1-.061-.174.016.016,0,0,0,0-.01c-.005,0-.005,0-.005-.005-.026-.092-.051-.184-.077-.282s-.046-.195-.066-.292c-.015-.051-.031-.112-.046-.174a3.5,3.5,0,0,1-.087-.466.06.06,0,0,1-.015-.056c-.005-.015-.005-.031-.01-.051-.015-.077-.031-.164-.041-.251-.041-.236-.072-.477-.1-.722-.051-.533-.082-1.091-.082-1.675,0-.4.015-.825.046-1.26v-.015c0-.118.015-.231.026-.348s.015-.231.026-.354h0c1-.2,1.993-.42,3-.661.169-.036.343-.077.512-.118,1.219-.292,2.453-.61,3.7-.943q7.706-2.1,11.913-3.308c.619-.225,1.239-.456,1.854-.7,1.07-.41,2.126-.83,3.17-1.27.394-.164.779-.328,1.168-.5.159-.066.318-.138.477-.2.517-.23,1.039-.461,1.552-.691.435-.2.871-.4,1.3-.609.282-.128.558-.261.835-.394.415-.195.83-.394,1.245-.6.128-.067.256-.134.389-.2s.266-.128.4-.2l.4-.2.558-.282a.059.059,0,0,0,.031-.015l.031-.016c.927-.481,1.839-.968,2.75-1.47.133-.077.271-.159.409-.235.507-.271.994-.548,1.485-.84.123-.061.241-.138.353-.2.041-.026.072-.046.108-.072.164-.092.328-.184.487-.282l.256-.149c.005,0,.005-.005.01-.005.205-.118.415-.246.625-.374q1.221-.737,2.428-1.511a68.046,68.046,0,0,0,8.3-6.228s.005,0,.005,0q1.229-1.083,2.4-2.218a63.233,63.233,0,0,0,6.622-7.564,87.5,87.5,0,0,0,9.413-15.016,15.489,15.489,0,0,0,1.6-6.607,13.1,13.1,0,0,0-3.6-9.213,12.921,12.921,0,0,0-10.412-4.8,23.964,23.964,0,0,0-4.2.4q-9.41,1.99-14.023,6.2-9.61,9.019-18.606,18.622c-2.771,2.94-5.506,5.93-8.174,8.937q-4.724,5.278-9.255,10.683a104.959,104.959,0,0,1-12.409,1.8l-.2-.2c2.8-6.269,4.732-11.016,5.8-14.207a8.269,8.269,0,0,0,.2-2.413c0-.656-.077-.994-.2-.994-.267,0-.538.2-.794.594a20.706,20.706,0,0,1-8.614,9.818q-7.252,4.049-35.011,6.535l.184-.333-3.611-52.654c0-1.306-.061-2.545-.169-3.7q-.953-9.756-7.242-12.312a9.207,9.207,0,0,0-3.805-.8,13.616,13.616,0,0,0-6.258,1.705,31.674,31.674,0,0,0-7.15,5.3q-2.819,2.4-8.307,10.31a147.31,147.31,0,0,0-10.217,17.126,79.27,79.27,0,0,0-6.7,17.608,19.076,19.076,0,0,0-.794,5.2,12.35,12.35,0,0,0,.107,1.721,8.672,8.672,0,0,0,2.7,5.485q6,5.616,12.8,5.613a14.417,14.417,0,0,0,1.752-.1c.3-.031.594-.061.9-.113a16.947,16.947,0,0,0,2.551-.589,31.575,31.575,0,0,0,15.18-9.075l.835-.932L417.4,526l.615,9.076a4.4,4.4,0,0,0,.041.517c.123,1.086.615,3.462,2.745,3.324.062,0,.123-.01.184-.015,3.759-.44,8.01-1.091,12.753-1.905q2.451-.43,5.1-.927,12.707-2.42,19.508-5.208a9.222,9.222,0,0,0-.2,1.8c0,1.875,1.332,2.935,4.005,3.2a31.188,31.188,0,0,0,3.81.21,45.29,45.29,0,0,0,4.722-.261c.195-.02.394-.036.594-.062,1.126-.118,2.279-.287,3.482-.486h.062c-.189.43-.374.86-.548,1.291s-.354.866-.523,1.3c-.066.164-.133.328-.195.492-.1.261-.2.527-.307.794-.215.543-.42,1.091-.62,1.639q-.346.952-.66,1.905c-.1.282-.19.569-.282.85-.118.353-.225.707-.338,1.06-.138.43-.266.855-.394,1.286-.092.287-.179.568-.261.85q-.392,1.259-.7,2.5c-.067.267-.133.533-.195.794-.108.461-.205.922-.292,1.378-.061.3-.118.594-.169.886-.057.328-.113.661-.164.989q-.223,1.467-.323,2.893c-.015.144-.02.287-.031.43-.046.7-.067,1.4-.067,2.085.031.512.067,1.014.108,1.511.015.23.036.451.051.681.026.266.057.533.087.794v.01c.036.323.072.645.113.963.118.973.271,1.921.441,2.848.025.123.056.246.087.369q2.174,8.689,14.73,10.443c.4.061.814.118,1.224.164.174.021.353.046.538.061.369.046.743.092,1.122.128.354.031.707.072,1.076.1.225.026.456.041.681.061l.7.046h.01c.261.026.517.041.779.056l.794.046c.057,0,.118,0,.179,0,.236.01.486.026.722.031.287.015.579.031.876.041a.665.665,0,0,0,.107.005c.354.01.7.026,1.065.031h.02c.277.011.558.011.825.016q.838.015,1.69.015c4.138-.138,8.614-.4,13.424-.809a181.073,181.073,0,0,0,29.828-5.409q1.183-.315,2.351-.64l.783-.225c.687-.195,1.373-.394,2.059-.61.307-.087.615-.179.927-.271.471-.143.943-.3,1.419-.446s.947-.3,1.413-.456c.507-.153.994-.317,1.49-.486l.277-.092c.5-.169,1-.338,1.506-.512.328-.123.676-.246,1.009-.359.394-.138.794-.287,1.183-.425.292-.1.569-.21.855-.318.108-.03.215-.077.323-.118s.215-.082.323-.123c.727-.266,1.439-.538,2.146-.814.113-.051.23-.1.343-.148h.005l.076-.031c.789-.3,1.562-.625,2.33-.942.456-.184.9-.369,1.342-.553.128-.057.241-.1.364-.159a.891.891,0,0,0,.153-.077c.287-.113.589-.246.881-.374s.579-.256.866-.379c.6-.266,1.2-.533,1.782-.8s1.173-.548,1.767-.825c.077-.041.169-.077.256-.118l.215-.108c.937-.45,1.854-.9,2.745-1.372C571.081,559.177,570.932,559.249,570.789,559.32Zm-72.766-55.543q2.42-2.458,4.875-4.958a52.57,52.57,0,0,1,7.969-6.632q1.26-.86,2.571-1.644s.01,0,.01-.005v-.005a.043.043,0,0,0,.016,0c0-.005,0-.005.01-.005s0,0,.01,0c.574-.343,1.147-.671,1.726-.989h.005c.066-.036.123-.077.189-.108a12.782,12.782,0,0,1,2.709-.912c.251-.057.507-.108.763-.144a12.757,12.757,0,0,1,1.931-.149c.333,0,.666.015,1,.046.041,0,.092.011.133.011a12.1,12.1,0,0,1,1.311.2c.451.087.9.2,1.367.338l.236.077c.2.061.4.128.594.195.138.046.271.092.4.143a.583.583,0,0,1,.1.036q.292.108.568.231c.072.031.149.061.22.1.1.046.205.1.318.149.02.01.041.02.066.031a10.491,10.491,0,0,1,1.163.645c.133.082.261.169.389.256a.005.005,0,0,0,.005.005v0c.026.021.056.041.087.061.01,0,.016.005.02.015s.005-.005.005,0,.01.01.01.01.005,0,.01.005.01.01.01.01.016.005.026.015a0,0,0,0,1,.005,0,.164.164,0,0,1,.036.026c.005,0,.01.01.01.01s.016.005.026.015c.036.026.072.057.107.082l.046.031v.005h0v0l.082.067c.02.015.036.03.056.046a.123.123,0,0,0,.036.02c.005,0,.005.005.01.011h.005v0s0,0,0,0v.005c.005-.005.01,0,.01,0l0,.005c.01,0,.016.01.02.015s.011,0,.016.015.021.011.026.015v.01h.005a.171.171,0,0,1,.036.031c0-.005,0-.005,0,0l.026.026c.005-.005.005-.005.005,0l.01.01a.269.269,0,0,1,.072.061c.021.02.041.036.061.056l.046.046h.005a.072.072,0,0,0,.02.015l.021.021c0-.005,0,0,0,0s.005.01.01.015a.32.32,0,0,1,.077.072h.005v0h0v.005c.005,0,.005,0,.011,0v.005l0,.005c.005-.005.005-.005.01,0a.015.015,0,0,0,.005.01h.005v.005h.01v.01c.005,0,.016,0,.02.015a.188.188,0,0,1,.046.046l.077.077c.01,0,.016.01.016.015s.01,0,0,0a.194.194,0,0,1,.056.057.19.19,0,0,1,.046.046.087.087,0,0,0,.031.031s0,0,0,.005l.01.005s0,0,0,0l.01.005a.017.017,0,0,1,.005.01c.066.067.128.133.189.2.005.005.01.015.015.021a.141.141,0,0,0,.026.031c.072.087.143.174.21.261s.128.174.195.261a.109.109,0,0,1,.016.026c.041.056.082.113.123.174.03.041.051.077.077.118v.005c.066.1.133.21.195.322.01.021.026.046.036.067q.069.131.123.246c.041.082.077.159.113.236a0,0,0,0,0,0,.005c.077.159.138.312.2.461v.005c.061.154.123.292.174.435.046.128.092.256.133.384.005.01.005.021.01.031.041.133.077.261.108.389.02.087.041.174.056.261a.112.112,0,0,1,.005.041c.01.051.02.1.026.153,0,.015.01.026,0,.036a1.42,1.42,0,0,1,.031.195c.01.113.015.221.015.328a2,2,0,0,1-.015.246.059.059,0,0,1,0,.041.018.018,0,0,1-.005.01.189.189,0,0,1-.005.056.073.073,0,0,1,0,.046.9.9,0,0,1-.031.169.013.013,0,0,1,0,.02.01.01,0,0,1,0,.015s-.005,0-.005,0a.342.342,0,0,1-.031.1v.015s0,.01-.005.015c.005,0,.005,0,0,.01a.427.427,0,0,1-.046.128.412.412,0,0,1-.061.138c-.005.015-.01.026-.015.041a.3.3,0,0,1-.041.082.065.065,0,0,1-.02.036.438.438,0,0,1-.051.082s.005,0-.005,0a.783.783,0,0,1-.123.174,1.313,1.313,0,0,1-.205.21,0,0,0,0,1,0,.005,1.794,1.794,0,0,1-.241.184,2.133,2.133,0,0,1-.282.164c-.435.21-.87.42-1.311.625s-.87.4-1.311.6c-.4.18-.8.353-1.2.527-.23.1-.466.2-.7.3s-.461.2-.7.292q-.707.292-1.413.569c-.482.19-.963.374-1.45.553q-2.036.761-4.133,1.434-.953.307-1.921.6l-.993.292-1.029.292c-.369.108-.743.21-1.117.3-.41.112-.819.22-1.234.322-.548.133-1.1.271-1.639.4l-1.234.308q-1.99.484-4.01.947c-.85.195-1.7.389-2.556.573-.5.113-.993.22-1.5.328h-.005q-4.717,1.037-9.582,1.946C493.987,507.844,496,505.816,498.023,503.778ZM412.7,485.612a19.452,19.452,0,0,1-6.2,1,20.918,20.918,0,0,1-5.813-.8.7.7,0,0,0-.1-.031c-3.816-1.2-6.453-3.186-7.9-5.972a5.473,5.473,0,0,1-1-2.8,6.262,6.262,0,0,1,1.2-2.8,35.923,35.923,0,0,1,6-5.813,7.553,7.553,0,0,1,5.209-2,10.521,10.521,0,0,1,3.4.61q4.2,1.375,5.009,7.8a44.8,44.8,0,0,1,.6,6.8C412.97,483.076,412.847,484.413,412.7,485.612Zm116.53,5.48a0,0,0,0,0,0-.005.005.005,0,0,0-.005.005.123.123,0,0,0,.036.02A.053.053,0,0,0,529.233,491.092Zm.389.333c-.015-.015-.031-.026-.046-.041l.046.046h.005v-.005C529.622,491.43,529.622,491.424,529.622,491.424Zm2.387,6.223c-.005.015-.01.026-.015.041a.621.621,0,0,0,.077-.18A.412.412,0,0,1,532.009,497.647Zm.113-.307v.015a.308.308,0,0,0,.031-.118A.342.342,0,0,1,532.122,497.34Zm-2.889-6.248a0,0,0,0,0,0-.005.005.005,0,0,0-.005.005.123.123,0,0,0,.036.02A.053.053,0,0,0,529.233,491.092Zm.389.333c-.015-.015-.031-.026-.046-.041l.046.046h.005v-.005C529.622,491.43,529.622,491.424,529.622,491.424Zm2.387,6.223c-.005.015-.01.026-.015.041a.621.621,0,0,0,.077-.18A.412.412,0,0,1,532.009,497.647Zm.113-.307v.015a.308.308,0,0,0,.031-.118A.342.342,0,0,1,532.122,497.34Zm-2.889-6.248a0,0,0,0,0,0-.005.005.005,0,0,0-.005.005.123.123,0,0,0,.036.02A.053.053,0,0,0,529.233,491.092Zm.389.333c-.015-.015-.031-.026-.046-.041l.046.046h.005v-.005C529.622,491.43,529.622,491.424,529.622,491.424Zm2.387,6.223c-.005.015-.01.026-.015.041a.621.621,0,0,0,.077-.18A.412.412,0,0,1,532.009,497.647Zm.113-.307v.015a.308.308,0,0,0,.031-.118A.342.342,0,0,1,532.122,497.34Zm-2.889-6.248a0,0,0,0,0,0-.005.005.005,0,0,0-.005.005.123.123,0,0,0,.036.02A.053.053,0,0,0,529.233,491.092Zm.389.333c-.015-.015-.031-.026-.046-.041l.046.046h.005v-.005C529.622,491.43,529.622,491.424,529.622,491.424Zm2.387,6.223c-.005.015-.01.026-.015.041a.621.621,0,0,0,.077-.18A.412.412,0,0,1,532.009,497.647Zm.113-.307v.015a.308.308,0,0,0,.031-.118A.342.342,0,0,1,532.122,497.34Zm-2.889-6.248a0,0,0,0,0,0-.005.005.005,0,0,0-.005.005.123.123,0,0,0,.036.02A.053.053,0,0,0,529.233,491.092Zm.389.333c-.015-.015-.031-.026-.046-.041l.046.046h.005v-.005C529.622,491.43,529.622,491.424,529.622,491.424Zm-.389-.333a0,0,0,0,0,0-.005.005.005,0,0,0-.005.005.123.123,0,0,0,.036.02A.053.053,0,0,0,529.233,491.092Zm.389.333c-.015-.015-.031-.026-.046-.041l.046.046h.005v-.005C529.622,491.43,529.622,491.424,529.622,491.424Zm-.389-.333a0,0,0,0,0,0-.005.005.005,0,0,0-.005.005.123.123,0,0,0,.036.02A.053.053,0,0,0,529.233,491.092Zm.389.333c-.015-.015-.031-.026-.046-.041l.046.046h.005v-.005C529.622,491.43,529.622,491.424,529.622,491.424Zm-.389-.333a0,0,0,0,0,0-.005.005.005,0,0,0-.005.005.123.123,0,0,0,.036.02A.053.053,0,0,0,529.233,491.092Zm.389.333c-.015-.015-.031-.026-.046-.041l.046.046h.005v-.005C529.622,491.43,529.622,491.424,529.622,491.424ZM561.3,541.508v.005l.005-.005Zm-32.066-50.416a0,0,0,0,0,0-.005.005.005,0,0,0-.005.005.123.123,0,0,0,.036.02A.053.053,0,0,0,529.233,491.092Zm.389.333c-.015-.015-.031-.026-.046-.041l.046.046h.005v-.005C529.622,491.43,529.622,491.424,529.622,491.424Z" transform="translate(-361.929 -400.257)" fill="#e6e6e6"/>
          <g id="Group_15" data-name="Group 15">
            <g id="Group_14" data-name="Group 14">
              <g id="Group_11" data-name="Group 11">
                <path id="Path_177" data-name="Path 177" d="M453.351,343.431a247.167,247.167,0,0,0-16.419,23.374c-.5.5-.989.5-1.982,0l-13.116-6.233-3.216-1.521-.481-.23-.83-.394c3.344-4.906,6.709-9.475,10.049-13.654l.143-.169.1-.21a3.819,3.819,0,0,0,.359-1.019l.01,0a3.187,3.187,0,0,0,.056-.615,3.065,3.065,0,0,0-.594-1.787v-.01a7.82,7.82,0,0,0-2.059-1.813l-.036-.026c-.471-.292-.927-.584-1.383-.86,0,0,0-.005,0-.005q.208-.292.415-.569c.041-.056.082-.113.128-.169.092-.128.19-.256.282-.379a.155.155,0,0,1,.036-.051c3.1-4.189,4.917-6.09,5.644-6.09a14.965,14.965,0,0,1,4.886,1.111c3.9,1.424,9.357,4.276,16.512,8.829C453.351,341.935,453.848,342.432,453.351,343.431Z" transform="translate(-385.87 -330.996)" fill="#e6e6e6"/>
                <path id="Path_178" data-name="Path 178" d="M453.351,343.431a247.167,247.167,0,0,0-16.419,23.374c-.5.5-.989.5-1.982,0l-13.116-6.233-3.216-1.521-.481-.23-.83-.394c3.344-4.906,6.709-9.475,10.049-13.654l.143-.169.1-.21a3.819,3.819,0,0,0,.359-1.019l.01,0a3.187,3.187,0,0,0,.056-.615,3.065,3.065,0,0,0-.594-1.787v-.01a7.82,7.82,0,0,0-2.059-1.813l-.036-.026c-.471-.292-.927-.584-1.383-.86,0,0,0-.005,0-.005q.208-.292.415-.569c.041-.056.082-.113.128-.169.092-.128.19-.256.282-.379a.155.155,0,0,1,.036-.051c3.1-4.189,4.917-6.09,5.644-6.09a14.965,14.965,0,0,1,4.886,1.111c3.9,1.424,9.357,4.276,16.512,8.829C453.351,341.935,453.848,342.432,453.351,343.431Z" transform="translate(-385.87 -330.996)" fill="#e6e6e6"/>
                <path id="Path_179" data-name="Path 179" d="M434.924,356.982c-.123-.077-.256-.153-.379-.23.128.077.251.153.379.236.036.026.072.051.1.072A.51.51,0,0,0,434.924,356.982Z" transform="translate(-396.61 -347.042)" fill="#e6e6e6" opacity="0.25"/>
                <path id="Path_180" data-name="Path 180" d="M373.811,343.247c-.025.061-.056.123-.087.184-.159.2-.317.4-.476.6-.261.328-.522.656-.779.983-3.175,4.046-6.207,8.23-9.091,12.471-.348.507-.691,1.019-1.035,1.531l-.384.584c-.128.19-.261.389-.384.579-1.465,2.2-2.894,4.415-4.266,6.622-.5.5-.993.5-1.992,0l-6.054-2.873-2.31-1.1-11.534-5.475a2.682,2.682,0,0,1-1.5-1.987c0-1.009,2.494-5.48,7.467-12.942,5.465-7.959,8.45-11.436,9.444-11.436a17.992,17.992,0,0,1,6.289,1.659c1.045.43,2.182.947,3.421,1.562q1.083.538,2.274,1.173,2.566,1.36,5.6,3.2h0l.584.353c.077.046.153.092.236.144.492.3.993.615,1.506.932.246.143.486.3.732.456.123.077.246.154.374.236s.256.153.379.23a.513.513,0,0,1,.1.077s0,0,0,.005c.036.02.067.041.1.061.19.133.369.261.528.374.1.082.195.154.287.236a2.881,2.881,0,0,1,.282.267c.041.046.082.092.112.133s.067.092.1.133.051.1.077.143A1.1,1.1,0,0,1,373.811,343.247Z" transform="translate(-333.925 -330.996)" fill="#e6e6e6"/>
                <path id="Path_181" data-name="Path 181" d="M373.811,343.247c-.025.061-.056.123-.087.184-.159.2-.317.4-.476.6-.261.328-.522.656-.779.983-3.175,4.046-6.207,8.23-9.091,12.471-.348.507-.691,1.019-1.035,1.531l-.384.584c-.128.19-.261.389-.384.579-1.465,2.2-2.894,4.415-4.266,6.622-.5.5-.993.5-1.992,0l-6.054-2.873-2.31-1.1-11.534-5.475a2.682,2.682,0,0,1-1.5-1.987c0-1.009,2.494-5.48,7.467-12.942,5.465-7.959,8.45-11.436,9.444-11.436a17.992,17.992,0,0,1,6.289,1.659c1.045.43,2.182.947,3.421,1.562q1.083.538,2.274,1.173,2.566,1.36,5.6,3.2h0l.584.353c.077.046.153.092.236.144.492.3.993.615,1.506.932.246.143.486.3.732.456.123.077.246.154.374.236s.251.153.379.236c.036.026.072.051.1.072,0,0,0,0,0,.005.036.02.067.041.1.061.19.133.369.261.528.374.1.082.195.154.287.236a2.881,2.881,0,0,1,.282.267c.041.046.082.092.112.133s.067.092.1.133.051.1.077.143A1.1,1.1,0,0,1,373.811,343.247Z" transform="translate(-333.925 -330.996)" fill="#e6e6e6"/>
              </g>
              <g id="Group_12" data-name="Group 12" transform="translate(185.332 29.423)">
                <path id="Path_182" data-name="Path 182" d="M944.927,421.478q-3.011,3.757-5.844,7.667c-.512.7-1.014,1.4-1.516,2.1-.225.323-.456.64-.681.963-2.935,4.164-5.726,8.4-8.379,12.64-.5.5-1,.5-1.987,0l-16.327-7.759-.482-.225-.84-.4c3.349-4.906,6.709-9.475,10.059-13.649l.138-.179.1-.205a3.612,3.612,0,0,0,.42-1.639c0-1.844-1.721-2.991-2.643-3.605l-.046-.021c-.461-.307-.917-.589-1.372-.871V416.3q.276-.384.538-.737c.107-.143.21-.287.313-.425.148-.2.292-.389.435-.579.456-.615.891-1.173,1.291-1.68l.286-.363c1.9-2.377,3.083-3.473,3.646-3.473,3.483,0,10.448,2.986,21.393,9.941C944.927,419.983,945.424,420.48,944.927,421.478Z" transform="translate(-877.441 -409.038)" fill="#e6e6e6"/>
                <path id="Path_183" data-name="Path 183" d="M944.927,421.478q-3.011,3.757-5.844,7.667c-.512.7-1.014,1.4-1.516,2.1-.225.323-.456.64-.681.963-2.935,4.164-5.726,8.4-8.379,12.64-.5.5-1,.5-1.987,0l-16.327-7.759-.482-.225-.84-.4c3.349-4.906,6.709-9.475,10.059-13.649l.138-.179.1-.205a3.612,3.612,0,0,0,.42-1.639c0-1.844-1.721-2.991-2.643-3.605l-.046-.021c-.461-.307-.917-.589-1.372-.871V416.3q.276-.384.538-.737c.107-.143.21-.287.313-.425.148-.2.292-.389.435-.579.456-.615.891-1.173,1.291-1.68l.286-.363c1.9-2.377,3.083-3.473,3.646-3.473,3.483,0,10.448,2.986,21.393,9.941C944.927,419.983,945.424,420.48,944.927,421.478Z" transform="translate(-877.441 -409.038)" fill="#e6e6e6"/>
                <path id="Path_184" data-name="Path 184" d="M865.442,421.12a1.741,1.741,0,0,1-.144.348q-2.036,2.558-4.005,5.183c-2.182,2.919-4.3,5.89-6.33,8.886-.354.512-.7,1.024-1.04,1.536v.005c-.261.384-.512.763-.763,1.147q-2.2,3.311-4.276,6.627c-.5.5-.989.5-1.982,0L827,435.4a2.659,2.659,0,0,1-1.5-1.982c0-1,2.489-5.475,7.462-12.937,5.475-7.959,8.461-11.442,9.454-11.442a17.99,17.99,0,0,1,6.284,1.66,91.121,91.121,0,0,1,11.9,6.294c.564.343,1.142.7,1.731,1.065.389.235.789.492,1.193.742q.139.092.292.184C865.114,419.855,865.662,420.347,865.442,421.12Z" transform="translate(-825.504 -409.038)" fill="#e6e6e6"/>
                <path id="Path_185" data-name="Path 185" d="M865.442,421.12a1.741,1.741,0,0,1-.144.348q-2.036,2.558-4.005,5.183c-2.182,2.919-4.3,5.89-6.33,8.886-.354.512-.7,1.024-1.04,1.536v.005c-.261.384-.512.763-.763,1.147q-2.2,3.311-4.276,6.627c-.5.5-.989.5-1.982,0L827,435.4a2.659,2.659,0,0,1-1.5-1.982c0-1,2.489-5.475,7.462-12.937,5.475-7.959,8.461-11.442,9.454-11.442a17.99,17.99,0,0,1,6.284,1.66,91.121,91.121,0,0,1,11.9,6.294c.564.343,1.142.7,1.731,1.065.389.235.789.492,1.193.742q.139.092.292.184C865.114,419.855,865.662,420.347,865.442,421.12Z" transform="translate(-825.504 -409.038)" fill="#e6e6e6"/>
              </g>
              <g id="Group_13" data-name="Group 13" transform="translate(202.33 77.954)">
                <path id="Path_186" data-name="Path 186" d="M906.226,551.167c-.153-.3-.312-.61-.486-.912-.092-.169-.184-.338-.282-.507-.118-.215-.251-.435-.379-.64a.426.426,0,0,0-.056-.108c-.23-.389-.461-.768-.7-1.126-.123-.19-.241-.374-.364-.543-.108-.164-.215-.317-.328-.476-.379-.558-.789-1.1-1.209-1.613-.169-.21-.328-.41-.507-.62a.66.66,0,0,0-.061-.067l-.256-.3c-.159-.184-.323-.364-.487-.548-.348-.379-.691-.748-1.055-1.106-.041-.02-.061-.061-.1-.1-.476-.466-.963-.9-1.475-1.337v0c-.138-.118-.276-.236-.415-.348s-.277-.225-.415-.323c-.1-.077-.2-.164-.3-.241s-.21-.149-.307-.231c-.2-.153-.41-.3-.625-.456a7.765,7.765,0,0,0-4.609-1.8q-3.388,0-6.407,4.189a75.522,75.522,0,0,0-7,12.123q-3.011,6.507-6.4,12.512a14.068,14.068,0,0,0-1.413,6.4v.609q.192,4.01,3,5.4a11.589,11.589,0,0,0,5.8,1.608A13.754,13.754,0,0,0,883.4,580a22.937,22.937,0,0,0,8.209-4.4.639.639,0,0,1,.6-.4,1.629,1.629,0,0,1,.184.046.04.04,0,0,1,.026.01.984.984,0,0,1,.19.082c.01,0,.01.01.015.01a1.416,1.416,0,0,1,.164.1.005.005,0,0,1,.005.005.821.821,0,0,1,.164.138c.015.01.03.01.03.026a1.878,1.878,0,0,1,.2.2,1,1,0,0,1,.123.128c.026.036.046.057.072.087a1.768,1.768,0,0,0,.118.154,2.05,2.05,0,0,0,.123.169c.036.062.082.123.123.189.077.128.159.267.256.415.092.169.19.338.282.533.056.1.107.21.164.322.107.225.225.466.333.717.051.133.113.267.169.394s.107.271.159.42c.236.563.466,1.178.7,1.859l1.434,4.292.973,2.914a15.488,15.488,0,0,1,.456,5.316c0,.072,0,.138-.01.21s-.015.144-.02.215v.087c-.016.123-.026.256-.046.389a3.517,3.517,0,0,1-.046.384c-.016.143-.031.282-.056.42-.031.21-.067.43-.1.645,0,.021,0,.041-.01.067-.036.184-.072.374-.118.569a.873.873,0,0,1-.031.149c-.036.189-.082.379-.133.573-.057.231-.118.466-.19.707-.026.077-.051.153-.072.236s-.051.164-.077.246c-.031.113-.066.22-.1.333s-.077.22-.118.338c-.077.225-.159.456-.251.691-.062.144-.112.292-.174.436-.113.271-.225.548-.354.824-.056.128-.118.261-.179.39-.108.225-.22.456-.338.686-.359.7-.763,1.4-1.224,2.12-.1.159-.21.323-.318.486-.01.021-.026.036-.036.057a.1.1,0,0,1-.031.051c-.077.118-.164.235-.251.358-.113.159-.226.318-.348.477-.031.041-.066.082-.1.128,0,.011-.015.016-.015.026-.015.026-.036.046-.051.072-.1.143-.21.282-.323.43-.082.107-.164.21-.251.312v.005c-.082.1-.164.21-.251.312-.179.21-.359.425-.543.635-.236.282-.487.558-.748.835-.087.093-.179.19-.271.282l-.215.231c-.072.077-.149.153-.225.23q-.484.5-1.014.983h0v.01c-.1.092-.21.19-.313.287a.247.247,0,0,0-.066.061h-.005c-.082.077-.169.149-.251.225-.123.113-.246.225-.374.333a.077.077,0,0,1-.021.02c-.061.051-.118.107-.179.159q-.177.154-.369.307c-.246.205-.5.415-.758.62-.128.107-.261.215-.394.318.379-.282.748-.563,1.122-.845,0-.005.016-.016.021-.02.287-.215.573-.441.85-.671.143-.107.287-.225.425-.343l.01-.01c.138-.108.277-.215.415-.328.461-.394.917-.779,1.362-1.178.1-.087.2-.174.3-.271.118-.108.241-.215.353-.323.164-.143.313-.287.456-.425.282-.256.548-.517.819-.783.318-.312.625-.63.932-.947.287-.3.573-.61.85-.912a50.725,50.725,0,0,0,6.059-8.307,67.6,67.6,0,0,0,7.155-18.125,52,52,0,0,0,1.4-11.815A33.4,33.4,0,0,0,906.226,551.167Z" transform="translate(-870.591 -537.764)" fill="#e6e6e6"/>
              </g>
            </g>
            <path id="Path_187" data-name="Path 187" d="M719.274,843.223v.21l.184-.292A1.182,1.182,0,0,0,719.274,843.223Zm39.507-22.893q-.653.23-1.321.476-6.215,2.289-12.026,4.359c-3.882,1.393-7.544,2.735-11.011,4.051-1.946.743-3.682,1.409-5.193,2-1.162.446-2.207.855-3.108,1.209l-.21.215-6.453,10.5q7.306-3.565,16.077-6.945c1.567-.594,3.17-1.2,4.809-1.792q6.208-2.243,12.256-4.4,5.4-1.921,10.678-3.79l6.023-9.557Q764.3,818.319,758.781,820.329Z" transform="translate(-573.992 -633.553)" fill="#e6e6e6"/>
          </g>
          <path id="Path_188" data-name="Path 188" d="M885.762,677.413c-.006.138-.018.282-.03.426,0,.03-.006.054-.006.084-.012.126-.024.258-.042.39s-.024.252-.048.384-.03.282-.054.42a20.514,20.514,0,0,1-.588,2.711c-.048.156-.1.318-.144.48-.066.222-.144.444-.222.672s-.162.456-.252.69c-.06.144-.114.294-.174.438a24.417,24.417,0,0,1-2.093,4.018c-.126.2-.258.4-.39.594-.216.318-.444.642-.69.965q-.189.261-.4.522c-.162.216-.33.426-.5.636s-.354.426-.539.636c-.312.372-.654.743-1.014,1.116-.144.156-.294.312-.444.462-.324.33-.66.66-1.013.984l-.006.006c-.2.192-.42.384-.636.576-.186.174-.378.342-.576.51-.48.414-.99.828-1.517,1.241a74.068,74.068,0,0,1-9.74,5.973c-.15.072-.294.144-.438.21s-.288.138-.432.2c-.432.2-.846.39-1.248.564q-.3.135-.594.252c-.2.084-.39.162-.576.24-.666.264-1.3.5-1.889.69-.36.12-.714.228-1.05.324-.012.006-.03.006-.042.012-.12.036-.24.066-.348.1a15.864,15.864,0,0,1-1.661.348l-.228.036c-.084.012-.162.024-.24.03q-.315.036-.612.054a4.84,4.84,0,0,1-.5.024.959.959,0,0,1-.186,0h-.054a3.414,3.414,0,0,1-.36-.018,1.133,1.133,0,0,1-.2-.012,1.86,1.86,0,0,1-.192-.024c-.078-.006-.15-.018-.228-.03l-.21-.036a2.971,2.971,0,0,1-.468-.114,1.83,1.83,0,0,1-.258-.084c-.1-.036-.2-.072-.294-.114s-.186-.09-.276-.138-.174-.1-.258-.15a2.1,2.1,0,0,1-.24-.162,3.285,3.285,0,0,1-.426-.384,2.3,2.3,0,0,1-.192-.216c-.078-.1-.15-.2-.222-.3-.036-.054-.072-.114-.1-.168-.06-.1-.12-.21-.174-.318s-.1-.228-.15-.342a3.219,3.219,0,0,1-.126-.36.021.021,0,0,1-.006-.012c-.036-.114-.066-.234-.1-.36-.024-.09-.042-.186-.06-.282s-.042-.216-.06-.33c-.012-.1-.024-.186-.036-.282a.223.223,0,0,1-.006-.066c-.012-.108-.024-.222-.03-.336-.006-.078-.012-.156-.012-.234-.264-6.118,4.846-15.81,4.846-15.81l.066-.018q6.72-1.826,13-3.922c.618-.2,1.223-.414,1.811-.617v-.006c.636-.222,1.26-.444,1.865-.672.234-.09.468-.174.7-.264.432-.168.857-.33,1.277-.5a.7.7,0,0,1,.066-.03c.216-.084.438-.174.648-.264.174-.072.348-.144.516-.216.252-.1.5-.21.75-.318q2.465-1.062,4.492-2.171c.168-.09.33-.18.5-.276a31.022,31.022,0,0,0,3.635-2.345c.2-.156.4-.306.594-.462.234-.192.461-.384.677-.576A15.7,15.7,0,0,1,885.762,677.413Z" transform="translate(-655.347 -543.495)" fill="#e6e6e6"/>
          <path id="Path_189" data-name="Path 189" d="M898.811,736.489a55.176,55.176,0,0,1-9.59,5.9,1.623,1.623,0,0,1-.15.072A74.071,74.071,0,0,0,898.811,736.489Z" transform="translate(-679.774 -583.613)" fill="url(#linear-gradient)"/>
          <path id="Path_190" data-name="Path 190" d="M885.762,677.413c-.006.138-.018.282-.03.426,0,.03-.006.054-.006.084-.012.126-.024.258-.042.39s-.024.252-.048.384-.03.282-.054.42a20.514,20.514,0,0,1-.588,2.711c-.048.156-.1.318-.144.48-.066.222-.144.444-.222.672s-.162.456-.252.69c-.06.144-.114.294-.174.438a24.417,24.417,0,0,1-2.093,4.018c-.126.2-.258.4-.39.594-.216.318-.444.642-.69.965q-.189.261-.4.522c-.162.216-.33.426-.5.636s-.354.426-.539.636c-.312.372-.654.743-1.014,1.116-.144.156-.294.312-.444.462-.324.33-.66.66-1.013.984l-.006.006c-.2.192-.42.384-.636.576-.186.174-.378.342-.576.51-.48.414-.99.828-1.517,1.241a74.068,74.068,0,0,1-9.74,5.973c-.15.072-.294.144-.438.21s-.288.138-.432.2c-.432.2-.846.39-1.248.564q-.3.135-.594.252c-.2.084-.39.162-.576.24-.666.264-1.3.5-1.889.69-.36.12-.714.228-1.05.324-.012.006-.03.006-.042.012-.12.036-.24.066-.348.1a15.864,15.864,0,0,1-1.661.348l-.228.036c-.084.012-.162.024-.24.03q-.315.036-.612.054a4.84,4.84,0,0,1-.5.024.959.959,0,0,1-.186,0h-.054a3.414,3.414,0,0,1-.36-.018,1.133,1.133,0,0,1-.2-.012,1.86,1.86,0,0,1-.192-.024c-.078-.006-.15-.018-.228-.03l-.21-.036a2.971,2.971,0,0,1-.468-.114,1.83,1.83,0,0,1-.258-.084c-.1-.036-.2-.072-.294-.114s-.186-.09-.276-.138-.174-.1-.258-.15a2.1,2.1,0,0,1-.24-.162,3.285,3.285,0,0,1-.426-.384,2.3,2.3,0,0,1-.192-.216c-.078-.1-.15-.2-.222-.3-.036-.054-.072-.114-.1-.168-.06-.1-.12-.21-.174-.318s-.1-.228-.15-.342a3.219,3.219,0,0,1-.126-.36.021.021,0,0,1-.006-.012c-.036-.114-.066-.234-.1-.36-.024-.09-.042-.186-.06-.282s-.042-.216-.06-.33c-.012-.1-.024-.186-.036-.282a.223.223,0,0,1-.006-.066c-.012-.108-.024-.222-.03-.336-.006-.078-.012-.156-.012-.234-.264-6.118,4.846-15.81,4.846-15.81l.066-.018q6.72-1.826,13-3.922c.618-.2,1.223-.414,1.811-.617v-.006c.636-.222,1.26-.444,1.865-.672.234-.09.468-.174.7-.264.432-.168.857-.33,1.277-.5a.7.7,0,0,1,.066-.03c.216-.084.438-.174.648-.264.174-.072.348-.144.516-.216.252-.1.5-.21.75-.318q2.465-1.062,4.492-2.171c.168-.09.33-.18.5-.276a31.022,31.022,0,0,0,3.635-2.345c.2-.156.4-.306.594-.462.234-.192.461-.384.677-.576A15.7,15.7,0,0,1,885.762,677.413Z" transform="translate(-655.347 -543.495)" opacity="0.75" fill="url(#linear-gradient-2)"/>
          <path id="Path_191" data-name="Path 191" d="M662.364,695.249c-.015-.087-.026-.174-.036-.272.01.082.021.159.036.236,0,.02.005.041.005.061A.194.194,0,0,0,662.364,695.249Z" transform="translate(-538.516 -557.751)" opacity="0.75" fill="url(#linear-gradient-3)"/>
          <path id="Path_192" data-name="Path 192" d="M663.01,698.48c-.005-.02-.011-.041-.015-.066.015.046.026.092.041.138C663.025,698.532,663.02,698.506,663.01,698.48Z" transform="translate(-538.931 -559.893)" opacity="0.75" fill="url(#linear-gradient-4)"/>
          <path id="Path_193" data-name="Path 193" d="M636.355,698.07v0c-2.3,14.96-10.474,17.229-17.127,16.384-.538-.067-1.07-.159-1.588-.261-.041-.318-.077-.64-.113-.963v-.01c-.031-.261-.061-.527-.087-.794-.015-.23-.036-.451-.051-.681-.041-.5-.077-1-.108-1.511,0-.686.021-1.383.067-2.085.01-.143.016-.287.031-.43q.1-1.429.323-2.894c.051-.328.107-.661.164-.988.051-.292.107-.589.169-.886.087-.456.184-.917.292-1.378.061-.261.128-.528.195-.794q.307-1.244.7-2.5c.087-.282.174-.568.267-.85.128-.43.256-.855.389-1.285.113-.353.22-.707.338-1.06.092-.282.184-.569.282-.85q.315-.953.661-1.905c.2-.548.4-1.1.62-1.639.1-.266.2-.532.307-.794.061-.164.123-.328.19-.492.169-.435.343-.866.527-1.3s.359-.86.548-1.29v-.005l7.846-1.373h0c-.01.123-.02.236-.031.354s-.021.23-.026.348v.015c-.031.435-.046.86-.046,1.26,0,.584.031,1.142.082,1.675.026.246.056.487.1.722.01.087.026.174.041.251.005.021.005.036.01.051a.06.06,0,0,0,.015.056,3.533,3.533,0,0,0,.087.466,1.409,1.409,0,0,0,.046.174c.02.1.041.195.066.292s.057.184.082.276v.01a.016.016,0,0,1,0,.01,1.821,1.821,0,0,0,.061.174,6.087,6.087,0,0,0,.256.712,3.439,3.439,0,0,0,.164.374c0,.005,0,.005.005.01a1.912,1.912,0,0,0,.1.2c.087.184.184.363.287.548.246.461.512.9.794,1.326.144.21.292.415.44.62s.308.4.471.594c.133.159.267.318.41.471a2.01,2.01,0,0,0,.148.159c.118.128.241.256.364.379.174.179.358.348.543.507a1.938,1.938,0,0,0,.225.2.223.223,0,0,0,.036.036C636.068,697.839,636.211,697.957,636.355,698.07Z" transform="translate(-510.453 -551.81)" opacity="0.75" fill="url(#linear-gradient-5)"/>
          <path id="Path_194" data-name="Path 194" d="M778.744,572.836c-.006-.006-.018-.012-.024-.018h.006Z" transform="translate(-611.026 -481.648)" fill="url(#linear-gradient-6)"/>
          <path id="Path_195" data-name="Path 195" d="M735.86,570.41a.109.109,0,0,0-.036.018" transform="translate(-584.303 -480.148)" fill="url(#linear-gradient-7)"/>
          <path id="Path_196" data-name="Path 196" d="M761.027,565a14.36,14.36,0,0,0-2.677-.54,13.338,13.338,0,0,1,4.8,1.312A16.574,16.574,0,0,0,761.027,565Z" transform="translate(-598.336 -476.441)" fill="url(#linear-gradient-8)"/>
          <path id="Path_197" data-name="Path 197" d="M781.665,576.112c-.126-.2-.265-.392-.408-.579C781.4,575.719,781.538,575.911,781.665,576.112Z" transform="translate(-612.607 -483.339)" fill="url(#linear-gradient-9)"/>
          <path id="Path_198" data-name="Path 198" d="M725.4,604.042q-.312.2-.623.374c-.006,0-.006.006-.012.006q-1.673.952-3.1,1.78-1.362.748-2.748,1.466a.317.317,0,0,1-.065.03q-3.267,1.691-6.677,3.175c-.546.238-1.092.475-1.644.706-2.558-2.071-8.374-8.487-1.193-19.9q2.021-.463,4.012-.95c.416-.1.825-.2,1.234-.3l1.638-.41a95.576,95.576,0,0,0,18.516-6.7,2.072,2.072,0,0,0,1.2-2.006,7.782,7.782,0,0,0-1-3.2C738.939,585.129,733.7,598.79,725.4,604.042Z" transform="translate(-565.649 -484.943)" opacity="0.5" fill="url(#linear-gradient-10)"/>
          <path id="Path_199" data-name="Path 199" d="M615.174,417.845q-.187,3.1-.641,7.822a43.036,43.036,0,0,1-1.816,9,15.133,15.133,0,0,1-3.911,6.641,5.445,5.445,0,0,1-4,1.638,9.834,9.834,0,0,1-3.092-.546,10.509,10.509,0,0,1-3.181-2.546,16.207,16.207,0,0,1-1.911-2.908,7.384,7.384,0,0,1-1.27,3.27,11.7,11.7,0,0,1-2.641,2.819,16.64,16.64,0,0,1-2.979,1.816c-.107.054-.208.1-.315.148l-.071.035a11.642,11.642,0,0,1-3.454,1q-4.362-.187-6.095-2.641a10.525,10.525,0,0,1-1.905-5.543V436.4a23.918,23.918,0,0,1,.546-5.092c.421-1.875.831-3.525,1.246-4.955l.024-.077c.018-.071.041-.143.065-.214a.265.265,0,0,1,.024-.065l.166-.481.161-.433.231-.659.054-.154a17.119,17.119,0,0,1,.754-1.691c.487-.967,1.092-1.454,1.822-1.454v.178a10.646,10.646,0,0,1-.184,1.454,18.256,18.256,0,0,0-.546,3.092,19.842,19.842,0,0,0-.178,2.73v.908a5.589,5.589,0,0,0,.908,3.181,4.823,4.823,0,0,0,2.908,1.911h1.353a10.93,10.93,0,0,0,1.8-.19,20.922,20.922,0,0,0,2.125-.534,5.145,5.145,0,0,0,2.635-1.733,9.584,9.584,0,0,0,1.49-2.3v-.006c.1-.208.19-.415.267-.629a1.638,1.638,0,0,0,.059-.154c.427-1.151.819-2.333,1.187-3.549a11.128,11.128,0,0,0,.546-3.092l2.724-2.73v.184a.8.8,0,0,1-.089.362.766.766,0,0,0-.089.368v2.178a18.217,18.217,0,0,0,.178,2.546,5.447,5.447,0,0,0,1.822,3.822c1.454,1.579,2.784,2.362,4,2.362h.362a4.411,4.411,0,0,0,3.276-1.911,13.332,13.332,0,0,0,2-4.273,18.379,18.379,0,0,0,.362-3.638v-.724Z" transform="translate(-485.913 -385.102)" fill="#e6e6e6"/>
        </g>
      </g>
    </g>
    <path id="Path_200" data-name="Path 200" d="M124.116,421.515c-.179-.178-.179-.357,0-.714l3.573-7.145q.268-.536.536-.536c.536,0,1.965.893,4.823,2.679,2.679,1.965,4.108,3.036,4.108,3.394,0,1.25-1.251,3.751-3.751,7.681-.179.536-.536.714-.893.357-2.679-1.965-5.538-3.93-8.4-5.716m9.825,11.075,2.679-5.716c.357-.536.536-.714.715-.714.536,0,1.965.893,4.823,2.858,2.679,1.965,4.109,3.036,4.109,3.394,0,1.251-1.251,3.751-3.751,7.681-.179.536-.536.536-.893.357-2.322-1.786-5-3.573-8.038-5.538a55.439,55.439,0,0,1-3.037,5.716c-.357.536-.536.714-.893.536a88.824,88.824,0,0,0-8.4-5.895c-.179-.179-.179-.357,0-.715l3.394-7.145c.179-.357.536-.715.714-.715.357,0,1.608.893,3.93,2.5a28.28,28.28,0,0,1,4.644,3.394" transform="translate(-28.734 -156.756)" opacity="0.1" fill="url(#linear-gradient-11)"/>
    <path id="Path_201" data-name="Path 201" d="M351.467,286.255c.113.113.113.225,0,.451l-2.256,4.512q-.17.339-.339.339a12.545,12.545,0,0,1-3.046-1.692c-1.692-1.241-2.595-1.918-2.595-2.143,0-.79.79-2.369,2.369-4.851.113-.339.339-.451.564-.226,1.692,1.241,3.5,2.482,5.3,3.61m-6.2-6.995-1.692,3.61c-.226.338-.339.451-.451.451-.339,0-1.241-.564-3.046-1.805-1.692-1.241-2.595-1.918-2.595-2.144,0-.79.789-2.369,2.369-4.851.113-.339.338-.339.564-.226,1.467,1.128,3.159,2.256,5.077,3.5a34.924,34.924,0,0,1,1.918-3.61c.225-.339.339-.451.564-.339a56.1,56.1,0,0,0,5.3,3.723c.113.113.113.226,0,.451l-2.143,4.513c-.113.225-.339.451-.451.451a12.7,12.7,0,0,1-2.482-1.58,17.853,17.853,0,0,1-2.933-2.143" transform="translate(-163.52 -69.963)" opacity="0.1" fill="url(#linear-gradient-12)"/>
    <path id="Path_202" data-name="Path 202" d="M533.626,822.637c-.113-.113-.113-.226,0-.451l2.256-4.513q.169-.338.339-.338a12.546,12.546,0,0,1,3.046,1.692c1.692,1.241,2.595,1.918,2.595,2.144,0,.79-.79,2.369-2.369,4.851-.113.339-.339.451-.564.226-1.692-1.241-3.5-2.482-5.3-3.61m6.205,6.995,1.692-3.61c.226-.339.339-.451.451-.451.339,0,1.241.564,3.046,1.805,1.692,1.241,2.595,1.918,2.595,2.144,0,.789-.789,2.369-2.369,4.851-.113.339-.339.339-.564.225-1.466-1.128-3.159-2.256-5.077-3.5a34.973,34.973,0,0,1-1.918,3.61c-.225.338-.339.451-.564.338a56.217,56.217,0,0,0-5.3-3.723c-.113-.113-.113-.225,0-.451l2.143-4.512c.113-.226.339-.451.451-.451a12.693,12.693,0,0,1,2.482,1.579,17.838,17.838,0,0,1,2.934,2.144" transform="translate(-284.54 -408.576)" opacity="0.1" fill="url(#linear-gradient-13)"/>
    <path id="Path_203" data-name="Path 203" d="M368.7,639.982c-.214-.214-.214-.429,0-.857l4.072-8.572a1.148,1.148,0,0,1,.857-.643c.428,0,2.357,1.071,5.572,3.215,3.429,2.357,4.929,3.643,4.929,4.072,0,1.5-1.286,4.5-4.286,9.216-.429.643-.643.857-1.072.643a106.531,106.531,0,0,0-10.073-7.072" transform="translate(-182.87 -291.813)" opacity="0.1" fill="url(#linear-gradient-14)"/>
    <path id="Path_204" data-name="Path 204" d="M156.691,614.64c-.113-.113-.113-.225,0-.451l2.142-4.51a.6.6,0,0,1,.451-.338,13.12,13.12,0,0,1,2.931,1.691c1.8,1.24,2.593,1.917,2.593,2.142,0,.789-.676,2.368-2.255,4.848-.226.338-.339.451-.564.338a56.07,56.07,0,0,0-5.3-3.721" transform="translate(-50.84 -278.999)" opacity="0.1" fill="url(#linear-gradient-15)"/>
    <path id="Path_205" data-name="Path 205" d="M290.122,438.041c-.113-.113-.113-.225,0-.451l2.142-4.51a.6.6,0,0,1,.451-.338,13.119,13.119,0,0,1,2.931,1.691c1.8,1.24,2.593,1.916,2.593,2.142,0,.789-.677,2.368-2.255,4.848-.225.338-.338.451-.564.338a56.145,56.145,0,0,0-5.3-3.72" transform="translate(-133.966 -168.98)" opacity="0.1" fill="url(#linear-gradient-16)"/>
    <path id="Path_206" data-name="Path 206" d="M176.336,742.839c-.127-.127-.127-.253,0-.507l2.408-5.068a.679.679,0,0,1,.507-.38,14.759,14.759,0,0,1,3.294,1.9c2.028,1.394,2.914,2.154,2.914,2.408,0,.887-.76,2.661-2.534,5.449-.254.38-.38.507-.634.38a63.054,63.054,0,0,0-5.955-4.182" transform="translate(-63.072 -358.457)" opacity="0.1" fill="url(#linear-gradient-17)"/>
    <path id="Path_207" data-name="Path 207" d="M194,307.229c-.127-.127-.127-.253,0-.507l2.407-5.069a.679.679,0,0,1,.507-.38,14.739,14.739,0,0,1,3.294,1.9c2.028,1.394,2.914,2.154,2.914,2.408,0,.887-.76,2.661-2.534,5.449-.253.38-.38.507-.633.38A63.057,63.057,0,0,0,194,307.229" transform="translate(-74.074 -87.077)" opacity="0.1" fill="url(#linear-gradient-18)"/>
    <path id="Path_208" data-name="Path 208" d="M502.062,203.232c-.127-.127-.127-.253,0-.507l2.408-5.069a.679.679,0,0,1,.507-.38,14.747,14.747,0,0,1,3.295,1.9c2.027,1.394,2.914,2.154,2.914,2.408,0,.887-.76,2.661-2.534,5.449-.253.38-.38.507-.633.38a63.069,63.069,0,0,0-5.956-4.181" transform="translate(-265.995 -22.289)" opacity="0.1" fill="url(#linear-gradient-19)"/>
    <path id="Path_209" data-name="Path 209" d="M158.812,605.3a.582.582,0,0,1,.952-.136c1.088-2.04,2.176-3.128,3.4-3.128.816,0,1.5.408,2.312,1.5a5.951,5.951,0,0,1,1.088,3.4c0,.544-.136.952-.136,1.5-.544,2.176-1.224,3.264-2.176,3.264a7.167,7.167,0,0,1-3.128-1.36,10.841,10.841,0,0,1-2.584-2.176,14.47,14.47,0,0,1-2.992,5.576,28.059,28.059,0,0,1-8.433,6.393c-2.856,1.632-4.488,2.312-5.3,2.312-.136,0-1.632.408-4.761,1.088-3.264.816-5.3,1.36-6.12,1.5-1.224.136-1.768.136-1.768.136,0-.136.544-.408,1.768-.952,3.4-1.36,8.569-3.672,15.505-7.072,5.168-2.72,8.433-5.168,9.793-7.208.68-1.224,1.5-2.856,2.584-4.624m6.12,2.448a5.535,5.535,0,0,0-.816-1.5c-.544-.544-.952-.816-1.36-.816a2.141,2.141,0,0,0-1.768.952,17.048,17.048,0,0,0,3.265,2.04c.408.136.544.136.68,0v-.68" transform="translate(-33.742 -274.449)" opacity="0.1" fill="url(#linear-gradient-20)"/>
    <path id="Path_210" data-name="Path 210" d="M410.554,278.435c6.836-2.486,13.937-5.149,21.305-7.9.355-.089.533-.178.533-.089.089,0,.089.177,0,.444a5.444,5.444,0,0,1-.8,1.42c-6.214,2.308-13.582,5.149-21.927,8.611a10.536,10.536,0,0,1,.888-2.486" transform="translate(-208.492 -67.849)" opacity="0.1" fill="url(#linear-gradient-21)"/>
    <path id="Path_211" data-name="Path 211" d="M352.467,434.829c5.225-1.9,10.654-3.936,16.286-6.039.271-.068.407-.136.407-.068.068,0,.068.136,0,.339a4.161,4.161,0,0,1-.611,1.086c-4.75,1.764-10.382,3.936-16.761,6.582a8.049,8.049,0,0,1,.679-1.9" transform="translate(-172.435 -166.458)" opacity="0.1" fill="url(#linear-gradient-22)"/>
    <path id="Path_212" data-name="Path 212" d="M279.485,546.436a7.216,7.216,0,0,1-1.256,2.373c-.14.14-5.723,2.094-16.611,6-3.35,1.257-8.655,3.211-15.913,6.142a22.548,22.548,0,0,1,1.256-3.629c1.4-.7,12-4.467,31.547-11.447.558-.139.977-.279.977-.279q.209.209,0,.837m2.233-6.979a5.956,5.956,0,0,1-1.256,2.373c-.14.14-5.723,2.233-16.611,6.142-3.211,1.117-8.655,3.211-15.913,6a28.438,28.438,0,0,1,1.256-3.629c1.4-.558,12-4.467,31.547-11.446.7-.14.977-.279,1.117-.14a2.447,2.447,0,0,1-.139.7" transform="translate(-106.346 -234.991)" opacity="0.1" fill="url(#linear-gradient-23)"/>
    <path id="Path_213" data-name="Path 213" d="M313.3,790.828l2.88-6.336c.384-.384.576-.576.768-.576.576,0,2.112.96,5.184,3.072,2.88,1.92,4.416,3.072,4.416,3.456,0,1.344-1.344,4.224-4.032,8.448-.192.576-.576.576-.96.384-2.5-1.92-5.376-3.84-8.64-5.952a59.553,59.553,0,0,1-3.264,6.144c-.384.576-.576.768-.96.576a95.5,95.5,0,0,0-9.024-6.336c-.192-.192-.192-.384,0-.768l3.648-7.68c.192-.384.576-.768.768-.768.384,0,1.728.96,4.224,2.688a30.361,30.361,0,0,1,4.992,3.648" transform="translate(-139.877 -387.757)" opacity="0.1" fill="url(#linear-gradient-24)"/>
    <path id="Path_214" data-name="Path 214" d="M726.712,361.446l4.482-.125c.331.114.5.171.55.282.163.334.042,1.494-.312,3.869-.3,2.21-.529,3.425-.751,3.533-.778.38-2.825.417-6.03.055-.388.052-.5-.17-.494-.447.405-1.988.7-4.2,1-6.684a38.376,38.376,0,0,1-4.479-.152c-.442-.059-.607-.116-.6-.392a61.475,61.475,0,0,0,1.115-7.015c.057-.165.168-.22.445-.217l5.477-.061a.935.935,0,0,1,.662.227,13.914,13.914,0,0,1-.361,3.2,19.566,19.566,0,0,1-.7,3.921" transform="translate(-401.873 -119.983)" opacity="0.1" fill="url(#linear-gradient-25)"/>
    <path id="Path_215" data-name="Path 215" d="M368.5,510.75l2.528,3.7c.083.34.125.51.061.615-.192.318-1.234.843-3.424,1.83-2.02.945-3.167,1.406-3.378,1.278-.741-.449-1.878-2.151-3.307-5.043a.387.387,0,0,1,.109-.657c1.891-.734,3.911-1.678,6.164-2.771a38.33,38.33,0,0,1-2.294-3.85c-.189-.4-.231-.574,0-.721a61.424,61.424,0,0,0,6.5-2.854c.17-.041.276.023.423.257l3.012,4.574a.936.936,0,0,1,.167.68,13.931,13.931,0,0,1-2.891,1.429,19.544,19.544,0,0,1-3.677,1.531" transform="translate(-178.078 -212.294)" opacity="0.1" fill="url(#linear-gradient-26)"/>
    <path id="Path_216" data-name="Path 216" d="M228.318,516.02a10.6,10.6,0,0,1-1.11,4.623c-.74,2.034-1.85,3.144-3.329,3.144-2.034,0-3.7-1.48-4.624-4.439-.925,3.7-2.774,5.733-5.548,5.733a3.218,3.218,0,0,1-2.589-1.664,7.221,7.221,0,0,1-1.295-4.624v-4.808c0-.37-.37-.555-.74-.74a1.013,1.013,0,0,1-.74-1.109,4.536,4.536,0,0,1,1.11-2.959c.74-.924,1.295-1.295,1.665-1.295.555,0,.925.925.925,2.959,0,1.11-.185,2.034-.185,2.774a6.948,6.948,0,0,0-.185,1.85,8.639,8.639,0,0,0,.555,3.144c.555,1.11,1.295,1.85,2.034,1.85a4.169,4.169,0,0,0,2.959-1.48,4.63,4.63,0,0,0,1.479-3.329,30.963,30.963,0,0,0-.74-3.7,12.868,12.868,0,0,1-.74-3.144,6.028,6.028,0,0,1,.555-1.849c.37-.74.74-1.11.924-1.11.37,0,.74,1.11,1.295,3.329a27.894,27.894,0,0,1,.925,5.179c0,3.144,1.11,4.808,3.514,4.808,1.11,0,1.665-.555,2.034-1.665-2.219-3.7-3.144-6.473-3.144-8.507a5.429,5.429,0,0,1,.74-2.959c.37-.555.74-.925.925-.925a2.682,2.682,0,0,1,.185,1.11c.185.925.37,1.85.555,2.589l1.664,3.884a11.468,11.468,0,0,1,.925,3.329" transform="translate(-83.072 -214.063)" opacity="0.1" fill="url(#linear-gradient-27)"/>
    <path id="Path_217" data-name="Path 217" d="M336.044,577.821c-1.687-.888-2.486-1.776-2.486-2.752a4,4,0,0,1,1.6-3.107q1.6-1.465,2.663-1.065c.533.178.887.8.887,1.864a12.427,12.427,0,0,1-.621,3.285,3.616,3.616,0,0,1,1.6,1.243,4.821,4.821,0,0,1-1.154,2.308,3.806,3.806,0,0,0-1.509-1.243,15.423,15.423,0,0,1-3.64,3.551,22.509,22.509,0,0,1-4.439,2.663q-.533.266-4.794,1.864a3.8,3.8,0,0,1-.888.266.087.087,0,0,1-.089-.089c0-.089.178-.355.71-.622,2.13-1.332,4.261-2.574,6.391-3.817a29.189,29.189,0,0,0,5.771-4.35m1.065-2.308a3.262,3.262,0,0,0,.089-1.6q-.133-.8-.8-.8a2.043,2.043,0,0,0-.8.266q-.533.266-.533.533c0,.444.71.976,2.042,1.6" transform="translate(-154.608 -254.995)" opacity="0.1" fill="url(#linear-gradient-28)"/>
    <path id="Path_218" data-name="Path 218" d="M167.294,540.539c-1.687-.888-2.486-1.776-2.486-2.752a4,4,0,0,1,1.6-3.107q1.6-1.465,2.663-1.065c.533.178.888.8.888,1.864a12.43,12.43,0,0,1-.622,3.285,3.617,3.617,0,0,1,1.6,1.243,4.821,4.821,0,0,1-1.154,2.308,3.806,3.806,0,0,0-1.509-1.243,15.412,15.412,0,0,1-3.64,3.551,22.507,22.507,0,0,1-4.439,2.663q-.532.266-4.794,1.864a3.8,3.8,0,0,1-.887.266.087.087,0,0,1-.089-.089c0-.089.178-.355.71-.622,2.13-1.332,4.261-2.574,6.392-3.817a29.192,29.192,0,0,0,5.771-4.35m1.065-2.308a3.263,3.263,0,0,0,.089-1.6q-.133-.8-.8-.8a2.045,2.045,0,0,0-.8.266q-.533.266-.532.533c0,.444.71.976,2.042,1.6" transform="translate(-49.479 -231.769)" opacity="0.1" fill="url(#linear-gradient-29)"/>
    <path id="Path_219" data-name="Path 219" d="M456.458,799.279a7.541,7.541,0,0,0-.205-3.694c-.411-1.642-1.026-2.258-1.847-2.258a3.183,3.183,0,0,0-2.258,1.436,3.323,3.323,0,0,0-1.436,2.053c0,1.231,1.847,2.052,5.746,2.463m8.209,0a9.473,9.473,0,0,0-5.541-4.925,18.063,18.063,0,0,1-.616,5.336,40.753,40.753,0,0,0,5.746.821.385.385,0,0,0,.616,0,3.613,3.613,0,0,0-.205-1.231m2.668-2.463c0,.41.205.616.205,1.026a9.471,9.471,0,0,1-1.436,4.72c-.821,1.847-1.642,2.668-2.257,2.668.616,0-1.847-.411-6.977-1.231a29.634,29.634,0,0,1-5.952,7.593,34.96,34.96,0,0,1-7.8,4.72c-.821.41-1.437,1.026-1.437,1.436s.411.616,1.026.821a23.778,23.778,0,0,0,9.645.205c1.847-.205,6.157-1.026,13.134-2.668a5.748,5.748,0,0,1,1.231-.205c0,.205-1.231,1.026-3.9,2.873a29.47,29.47,0,0,1-6.157,2.873,34.335,34.335,0,0,1-11.082,2.258c-3.9,0-5.746-1.437-5.746-3.9a8.346,8.346,0,0,1,3.284-6.772c1.847-1.231,3.694-2.668,5.541-3.9a24.085,24.085,0,0,0,6.156-5.746c-4.1-.821-6.156-2.257-6.156-4.925a12.457,12.457,0,0,1,1.642-5.952c-.821-2.668-.616-4.515.411-5.541a4.052,4.052,0,0,1,2.873-1.231,7.408,7.408,0,0,1,3.9,1.026c4.925,2.668,8.209,6.157,9.85,9.851" transform="translate(-227.287 -389.017)" opacity="0.1" fill="url(#linear-gradient-30)"/>
    <path id="Path_220" data-name="Path 220" d="M407.607,427.539a3.982,3.982,0,0,0-.108-1.949c-.217-.866-.541-1.191-.975-1.191a1.679,1.679,0,0,0-1.191.758,1.754,1.754,0,0,0-.758,1.083c0,.65.975,1.083,3.032,1.3m4.332,0a5,5,0,0,0-2.924-2.6,9.524,9.524,0,0,1-.325,2.816,21.518,21.518,0,0,0,3.032.433.2.2,0,0,0,.325,0,1.906,1.906,0,0,0-.108-.65m1.408-1.3c0,.216.108.325.108.541a5,5,0,0,1-.758,2.491c-.433.975-.866,1.408-1.191,1.408a28.923,28.923,0,0,0-3.682-.65,15.637,15.637,0,0,1-3.141,4.007,18.426,18.426,0,0,1-4.115,2.491c-.433.216-.758.541-.758.758s.216.325.541.433a12.55,12.55,0,0,0,5.09.109c.975-.109,3.249-.541,6.931-1.408a3.023,3.023,0,0,1,.65-.109,12.126,12.126,0,0,1-2.057,1.516,15.544,15.544,0,0,1-3.249,1.516,18.117,18.117,0,0,1-5.848,1.191c-2.057,0-3.032-.758-3.032-2.058a4.4,4.4,0,0,1,1.733-3.574c.975-.65,1.95-1.408,2.924-2.057a12.725,12.725,0,0,0,3.249-3.032c-2.166-.433-3.249-1.191-3.249-2.6a6.571,6.571,0,0,1,.866-3.14c-.433-1.408-.325-2.382.216-2.924a2.138,2.138,0,0,1,1.516-.65,3.906,3.906,0,0,1,2.057.541,11.424,11.424,0,0,1,5.2,5.2" transform="translate(-201.745 -161.354)" opacity="0.1" fill="url(#linear-gradient-31)"/>
    <path id="Path_221" data-name="Path 221" d="M422.312,650.494c-.355-1.154-.266-1.953.178-2.4a1.753,1.753,0,0,1,1.243-.533,3.2,3.2,0,0,1,1.686.444,8.973,8.973,0,0,1,4.261,4.261,3.853,3.853,0,0,1,.089.444,4.1,4.1,0,0,1-.621,2.042c-.355.71-.71,1.065-.976,1.065-.178,0-1.154-.089-3.018-.267a16.006,16.006,0,0,1-3.462,3.462,26.848,26.848,0,0,1-4.528,2.752q-.4.266-4.794,1.864a2.9,2.9,0,0,1-.888.266.087.087,0,0,1-.089-.089c0-.089.266-.355.71-.621l6.392-3.728a38.279,38.279,0,0,0,5.593-4.084c-1.686-.355-2.486-1.154-2.486-2.308a4.525,4.525,0,0,1,.71-2.574m2.663,2.841a5.354,5.354,0,0,0,0-1.687c-.178-.621-.444-.888-.888-.888-.266,0-.532.178-.977.533a1.807,1.807,0,0,0-.621.977c0,.533.8.888,2.486,1.065m3.551,0a4.5,4.5,0,0,0-2.4-2.219,6.2,6.2,0,0,1-.355,2.4c.178,0,1.065.177,2.575.355h.266a1.563,1.563,0,0,0-.089-.532" transform="translate(-209.568 -302.811)" opacity="0.1" fill="url(#linear-gradient-32)"/>
    <path id="Path_222" data-name="Path 222" d="M409.193,845.828c.325-.542.65-.759,1.084-.759a.287.287,0,0,1,.325.325v.216a26.9,26.9,0,0,0-1.192,3.142c2.275,1.733,3.358,3.358,3.142,5.092-.108,1.842-.325,2.925-.758,3.467a4.5,4.5,0,0,1-3.683,2.058c-1.517,0-2.167-.975-2.167-2.708a6.2,6.2,0,0,1,.109-1.3,32.871,32.871,0,0,1,3.142-9.534m2.383,8.775c0-.542-1.083-1.517-3.358-2.817a7.089,7.089,0,0,0-1.084,3.575c0,.65.325,1.083.975,1.083a4.115,4.115,0,0,0,1.95-.65,2.978,2.978,0,0,0,1.517-1.192" transform="translate(-206.173 -425.854)" opacity="0.1" fill="url(#linear-gradient-33)"/>
    <path id="Path_223" data-name="Path 223" d="M247.769,636.271l.271-.271c.135-.135.135-.135.135,0a.254.254,0,0,1,0,.406q-1.015,6.091-3.654,6.09c-1.759,0-2.571-1.488-2.571-4.466a23.762,23.762,0,0,1,3.113-11.5c.541-.947.812-1.489.947-1.489h0a12.166,12.166,0,0,1-.406,1.624c-1.353,4.2-2.03,7.038-2.03,8.8,0,2.165.541,3.384,1.759,3.384.812,0,1.624-.948,2.436-2.572" transform="translate(-104.007 -288.778)" opacity="0.1" fill="url(#linear-gradient-34)"/>
    <path id="Path_224" data-name="Path 224" d="M584.963,231.078l.153.351c.076.176.076.176-.05.126a.254.254,0,0,1-.378-.149q-5.294-3.177-4.327-5.633c.645-1.637,2.328-1.847,5.1-.755a23.76,23.76,0,0,1,9.562,7.113c.683.851,1.087,1.3,1.037,1.427h0a12.206,12.206,0,0,1-1.362-.973c-3.407-2.8-5.8-4.469-7.44-5.114-2.014-.794-3.346-.737-3.793.4-.3.756.286,1.858,1.5,3.209" transform="translate(-314.741 -39.149)" opacity="0.1" fill="url(#linear-gradient-35)"/>
    <path id="Path_225" data-name="Path 225" d="M317.02,333.009l-.271.271c-.135.135-.135.135-.135,0a.254.254,0,0,1,0-.406q1.015-6.091,3.654-6.09c1.759,0,2.572,1.488,2.572,4.466a23.762,23.762,0,0,1-3.113,11.5c-.541.947-.812,1.489-.947,1.489h0a12.169,12.169,0,0,1,.406-1.624c1.353-4.2,2.03-7.038,2.03-8.8,0-2.166-.541-3.384-1.759-3.384-.812,0-1.624.947-2.436,2.572" transform="translate(-150.459 -102.969)" opacity="0.1" fill="url(#linear-gradient-36)"/>
    <path id="Path_226" data-name="Path 226" d="M545.9,743.351c-.469,1.173-.938,1.876-1.173,1.876-.469,0-.7-.938-.234-2.345,0-1.172.234-3.049.234-4.925,0-6.8-3.752-13.367-11.257-20.168-.469-.234-.469-.938,0-1.407l2.111-3.752c0-.469.469-.469.938,0,7.27,5.394,11.022,12.9,11.022,22.279a24.581,24.581,0,0,1-1.641,8.442" transform="translate(-285.401 -343.127)" opacity="0.1" fill="url(#linear-gradient-37)"/>
    <path id="Path_227" data-name="Path 227" d="M757.818,445.1c-.469,1.173-.938,1.876-1.172,1.876-.469,0-.7-.938-.234-2.345,0-1.173.234-3.049.234-4.925,0-6.8-3.752-13.367-11.257-20.169-.469-.234-.469-.938,0-1.407l2.111-3.752c0-.469.469-.469.938,0,7.27,5.394,11.022,12.9,11.022,22.279a24.58,24.58,0,0,1-1.642,8.443" transform="translate(-417.424 -157.318)" opacity="0.1" fill="url(#linear-gradient-38)"/>
    <path id="Path_228" data-name="Path 228" d="M196.243,456.085c-.352.881-.7,1.409-.881,1.409-.352,0-.529-.7-.176-1.762,0-.881.176-2.29.176-3.7,0-5.109-2.819-10.042-8.457-15.151-.352-.176-.352-.7,0-1.057l1.586-2.819c0-.352.353-.352.7,0a19.841,19.841,0,0,1,8.28,16.737,18.467,18.467,0,0,1-1.233,6.342" transform="translate(-69.551 -168.98)" opacity="0.1" fill="url(#linear-gradient-39)"/>
    <path id="Path_229" data-name="Path 229" d="M262.652,737.405c1.569,0,2.426.713,2.426,2.283a6.4,6.4,0,0,1-.713,2.711,21.426,21.426,0,0,1-2.14,3c-1.712,2-2.854,3.424-3.424,4.138a10.116,10.116,0,0,1-1.712,2v-.143a5.95,5.95,0,0,1,.428-1.284,18.652,18.652,0,0,1,3.139-4.851c.856-1,1.712-1.855,2.568-2.854a1.5,1.5,0,0,0-1.57-1.142,3.452,3.452,0,0,0-1.855.571c-7.42,3.71-14.554,5.707-21.4,5.707a21.1,21.1,0,0,1-10.273-2.568c.571,1.427.285,3.139-.428,5.137a3.573,3.573,0,0,1-.571,1.284c-.143,0-.143-.571-.143-1.427a11.568,11.568,0,0,0-.856-4.708c-.143-.143-1-1.57-2.711-4.138.285-1.855.714-2.711,1.285-2.711a5.589,5.589,0,0,1,1.284,1,27.98,27.98,0,0,0,3.139,2,21.1,21.1,0,0,0,10.273,2.569,36.293,36.293,0,0,0,11.13-1.712,44.9,44.9,0,0,0,7.562-3.282,16.566,16.566,0,0,1,4.566-1.569" transform="translate(-92.459 -358.781)" opacity="0.1" fill="url(#linear-gradient-40)"/>
    <path id="Path_230" data-name="Path 230" d="M120.907,507.306c1.182,0,2.954.788,5.12,2.56,2.166,1.575,3.348,3.151,3.545,4.332.2.394-.2,1.182-.788,2.56s-.985,1.969-1.182,1.969L121.7,520.5a12.085,12.085,0,0,0-5.12,2.757,76.613,76.613,0,0,1,4.135,24.418,48.4,48.4,0,0,1-.788,7.286,3.039,3.039,0,0,1-.591,1.378c-.2,0-.2-1.576-.2-4.332a84.667,84.667,0,0,0-2.166-16.738A99.446,99.446,0,0,1,115,524.044c0-3.348.788-5.711,2.757-7.286a20.384,20.384,0,0,1,4.923-2.166,4.1,4.1,0,0,0-2.954-1.378c-.394,0-.984.394-1.772,1.378a5.945,5.945,0,0,1-1.378,1.576c-.2,0-.394-.394-.2-1.182.591-5.12,2.166-7.68,4.529-7.68" transform="translate(-24.919 -215.433)" opacity="0.1" fill="url(#linear-gradient-41)"/>
    <path id="Path_231" data-name="Path 231" d="M323.949,434.651c3.915,2.847,5.694,5.516,5.339,8.364-.178,3.025-.712,4.805-1.246,5.695a7.7,7.7,0,0,1-6.228,3.381c-2.313,0-3.559-1.6-3.559-4.449,0-.534.178-1.246.178-2.135a59.491,59.491,0,0,1,3.559-10.321c1.6-3.737,2.491-6.94,2.491-9.432,0-5.161-2.491-9.965-7.3-14.77a.667.667,0,0,1,0-1.068l1.6-2.848c.178-.355.356-.355.712,0,4.627,3.737,7.118,9.432,7.118,16.55a26.977,26.977,0,0,1-2.669,11.033m3.737,9.609c0-1.068-1.957-2.491-5.694-4.627a13.289,13.289,0,0,0-1.6,5.873c0,1.068.534,1.78,1.424,1.78a6.775,6.775,0,0,0,3.381-1.068,7.556,7.556,0,0,0,2.491-1.957" transform="translate(-150.713 -152.82)" opacity="0.1" fill="url(#linear-gradient-42)"/>
    <path id="Path_232" data-name="Path 232" d="M533.837,353.665a40.785,40.785,0,0,1,2.732-9.1,21.921,21.921,0,0,0,1.639-8.194c0-5.281-2.549-10.2-7.466-15.114a.683.683,0,0,1,0-1.093l1.639-2.914c.182-.364.364-.364.728,0,4.734,3.824,7.284,9.469,7.284,16.935a32.068,32.068,0,0,1-2.367,11.108c-1.639,4.006-2.367,6.738-2.367,8.194,0,3.1.728,4.735,2.367,4.735,1.093,0,2.185-1.275,3.278-3.46l.364-.364c.182-.182.182-.182.182,0v.546q-1.366,8.194-4.917,8.194c-2.185,0-3.46-2.367-3.46-6.738a14.058,14.058,0,0,1,.364-2.731" transform="translate(-283.751 -96.857)" opacity="0.1" fill="url(#linear-gradient-43)"/>
    <path id="Path_233" data-name="Path 233" d="M362.345,201.86c.345-.689.517-1.033.861-1.033V201a11.477,11.477,0,0,1-1.55,3.617,21.16,21.16,0,0,1-7.061,8.1,52.09,52.09,0,0,1-8.784,5.339q-.775.517-9.3,3.617a5.621,5.621,0,0,1-1.723.517.169.169,0,0,1-.172-.172c0-.172.517-.689,1.378-1.206,4.65-2.583,11.368-6.717,19.635-12.4,3.445-2.584,5.684-4.823,6.717-6.545m21.874-2.584a3.745,3.745,0,0,1-.345,1.723q-.517,1.55-1.033,1.55c-.172,0-.689-.517-1.206-1.206a2.38,2.38,0,0,0-1.895-1.033c-1.378,0-2.584,3.272-3.789,9.817a26.708,26.708,0,0,1-1.722,6.028c-.517.861-.861,1.206-1.206,1.206s-.345-.345-.517-1.034c.172-1.205-.517-3.444-1.895-6.717-1.378-3.445-2.239-5-2.928-5-.345,0-.517,0-.689.345,0,.172-.345.345-.861.345a4.743,4.743,0,0,1-2.583-1.378c-1.033-1.033-1.55-1.723-1.206-2.067,1.55-2.928,2.411-4.306,2.756-4.306,1.895,0,3.617,1.033,5.167,3.445a21.158,21.158,0,0,1,3.272,8.956,2.722,2.722,0,0,1,.172.689c0,.172.172.172.172,0a1.007,1.007,0,0,0,.172-.689c.345-2.067,1.206-5.512,2.411-9.99,1.206-3.1,2.756-4.65,4.306-4.65.861,0,1.55.517,2.411,1.55a4.581,4.581,0,0,1,1.033,2.411" transform="translate(-161.737 -21.066)" opacity="0.1" fill="url(#linear-gradient-44)"/>
    <path id="Path_234" data-name="Path 234" d="M620.247,287.223a13.928,13.928,0,0,1-4.57,5.239,33.7,33.7,0,0,1-5.685,3.456q-.5.334-6.019,2.34a3.64,3.64,0,0,1-1.115.334.109.109,0,0,1-.112-.112c0-.111.334-.446.892-.78,3.009-1.783,7.245-4.347,12.707-8.025a13.357,13.357,0,0,0,3.121-2.9,8.483,8.483,0,0,1,1.56-1.561v.112a8.689,8.689,0,0,1-.78,1.895M627.6,274.4a2.421,2.421,0,0,1-.223,1.114q-.334,1-.669,1c-.111,0-.446-.334-.78-.78a1.714,1.714,0,0,0-1.226-.669c-.892,0-1.672,2.118-2.452,6.353a18.719,18.719,0,0,1-1.115,4.013c-.334.446-.557.78-.78.78s-.223-.334-.334-.78c.111-.78-.334-2.229-1.226-4.347-.892-2.229-1.449-3.233-1.895-3.233-.223,0-.334,0-.446.223,0,.112-.223.223-.557.223-.446,0-.892-.334-1.56-.892-.557-.557-.892-1-.892-1.338a5.7,5.7,0,0,1,.78-1.56c.446-.892.78-1.226,1-1.226,1.226,0,2.34.669,3.344,2.229a14.21,14.21,0,0,1,2.118,5.907.845.845,0,0,1,.111.446c0,.112.112.112.112,0s.111-.223.111-.446c.223-1.449.781-3.678,1.561-6.576.78-2.006,1.783-3.009,2.786-3.009.557,0,1,.334,1.56,1a2.965,2.965,0,0,1,.669,1.56" transform="translate(-328.779 -68.741)" opacity="0.1" fill="url(#linear-gradient-45)"/>
    <path id="Path_235" data-name="Path 235" d="M591.234,352.6c1.966,0,3.6.983,5.078,3.276a20.056,20.056,0,0,1,3.112,8.681,1.24,1.24,0,0,1,.164.655h.164a1.24,1.24,0,0,1,.164-.655,68.729,68.729,0,0,1,2.293-9.664c1.146-2.949,2.621-4.423,4.095-4.423.819,0,1.474.492,2.293,1.474a4.355,4.355,0,0,1,.983,2.293,9.438,9.438,0,0,1-.328,1.638q-.491,1.474-.983,1.474c-.164,0-.655-.492-1.147-1.147a2.519,2.519,0,0,0-1.8-.983c-1.31,0-2.621,3.112-3.6,9.336a19.387,19.387,0,0,1-1.8,5.9c-.328.655-.655,1.147-.983,1.147s-.491-.492-.491-1.147a19.036,19.036,0,0,0-1.8-6.388c-1.311-3.276-2.129-4.75-2.785-4.75-.328,0-.491,0-.655.328-.164.164-.328.328-.983.328-.491,0-1.147-.491-2.129-1.31s-1.31-1.474-1.31-1.966a8.369,8.369,0,0,1,1.147-2.293c.655-1.31,1.146-1.8,1.31-1.8" transform="translate(-320.076 -117.726)" opacity="0.1" fill="url(#linear-gradient-46)"/>
    <path id="Path_236" data-name="Path 236" d="M346.641,706.729a3.442,3.442,0,0,1,2.957,1.908,11.678,11.678,0,0,1,1.813,5.056.721.721,0,0,1,.1.381h.1a.721.721,0,0,1,.1-.381,40.037,40.037,0,0,1,1.335-5.628c.668-1.717,1.527-2.576,2.385-2.576.477,0,.859.286,1.336.858a2.536,2.536,0,0,1,.572,1.336,5.492,5.492,0,0,1-.191.954q-.286.858-.572.858c-.1,0-.382-.286-.668-.668a1.467,1.467,0,0,0-1.049-.572c-.763,0-1.527,1.813-2.1,5.438a11.293,11.293,0,0,1-1.049,3.434c-.191.382-.382.668-.572.668s-.286-.286-.286-.668a11.094,11.094,0,0,0-1.05-3.72c-.763-1.908-1.24-2.766-1.622-2.766-.191,0-.286,0-.382.191-.1.1-.191.191-.572.191-.286,0-.668-.286-1.24-.763s-.763-.859-.763-1.145a4.873,4.873,0,0,1,.668-1.335c.382-.763.668-1.049.763-1.049" transform="translate(-168.337 -338.898)" opacity="0.1" fill="url(#linear-gradient-47)"/>
    <path id="Path_237" data-name="Path 237" d="M352.452,446.919c1.786,0,3.273.892,4.612,2.975a18.21,18.21,0,0,1,2.827,7.885,1.122,1.122,0,0,1,.149.595h.149a1.123,1.123,0,0,1,.149-.595A62.453,62.453,0,0,1,362.419,449c1.042-2.678,2.38-4.017,3.72-4.017.744,0,1.339.446,2.083,1.339a3.954,3.954,0,0,1,.893,2.083,8.584,8.584,0,0,1-.3,1.488q-.446,1.339-.893,1.339c-.149,0-.595-.446-1.041-1.042a2.289,2.289,0,0,0-1.637-.892c-1.19,0-2.38,2.826-3.273,8.48a17.627,17.627,0,0,1-1.637,5.356c-.3.595-.6,1.041-.893,1.041s-.446-.446-.446-1.041a17.283,17.283,0,0,0-1.636-5.8c-1.19-2.976-1.934-4.315-2.529-4.315-.3,0-.446,0-.595.3-.149.149-.3.3-.893.3-.446,0-1.041-.446-1.934-1.19s-1.19-1.339-1.19-1.785a7.612,7.612,0,0,1,1.042-2.083c.595-1.19,1.041-1.637,1.19-1.637" transform="translate(-171.458 -176.607)" opacity="0.1" fill="url(#linear-gradient-48)"/>
    <path id="Path_238" data-name="Path 238" d="M252.686,793.374a3.389,3.389,0,0,1,2.911,1.878,11.5,11.5,0,0,1,1.784,4.977.71.71,0,0,1,.094.375h.094a.71.71,0,0,1,.094-.375,39.375,39.375,0,0,1,1.315-5.54c.657-1.69,1.5-2.535,2.347-2.535.47,0,.845.282,1.315.845a2.5,2.5,0,0,1,.564,1.315,5.374,5.374,0,0,1-.188.939q-.282.846-.563.845c-.094,0-.375-.282-.657-.657a1.445,1.445,0,0,0-1.033-.564c-.751,0-1.5,1.784-2.066,5.352a11.13,11.13,0,0,1-1.033,3.38c-.188.375-.376.657-.563.657s-.282-.282-.282-.657a10.916,10.916,0,0,0-1.033-3.662c-.751-1.878-1.221-2.723-1.6-2.723-.188,0-.282,0-.376.188-.094.094-.188.188-.563.188-.282,0-.657-.282-1.221-.751s-.751-.845-.751-1.127a4.8,4.8,0,0,1,.657-1.315c.375-.751.658-1.033.751-1.033" transform="translate(-109.818 -392.888)" opacity="0.1" fill="url(#linear-gradient-49)"/>
    <path id="Path_239" data-name="Path 239" d="M496.65,253.909a3.9,3.9,0,0,1-2.219-.533,2.866,2.866,0,0,0-1.6-.532c-1.243,0-2.752.8-4.35,2.486-.533.532-.8.266-.8-.71a7.139,7.139,0,0,1,2.308-4.794c1.42-1.421,2.486-2.042,3.373-2.042a3.148,3.148,0,0,1,1.421.533,5.108,5.108,0,0,0,2.663.621c2.574,0,3.728-.71,3.285-2.131a41.856,41.856,0,0,1-1.421-4.616,10.543,10.543,0,0,1,.888-2.13c.444-.8.8-1.065.977-.8.621,1.42,1.154,2.752,1.687,4.172a5.615,5.615,0,0,0,3.551,3.2c4.7-5.326,8.078-7.99,10.209-7.99s3.284,1.065,3.284,3.285a7.978,7.978,0,0,1-3.64,6.747c-2.486,1.864-5.948,2.752-10.3,2.752-.888,1.776-1.42,2.663-1.775,2.663-.089,0-.089-.178-.178-.444.089-.533.178-1.421.444-2.575a3.723,3.723,0,0,1-2.042-1.775c-1.065,3.018-2.93,4.616-5.77,4.616m20.684-10.031c0-.888-.8-1.243-2.308-1.243q-2.53,0-6.925,4.261a5.075,5.075,0,0,0,1.154.089,13.079,13.079,0,0,0,5.415-1.332c1.775-.71,2.663-1.332,2.663-1.775" transform="translate(-257.097 -48.057)" opacity="0.1" fill="url(#linear-gradient-50)"/>
    <path id="Path_240" data-name="Path 240" d="M277.262,640.756c0-.362-.241-.723-.963-1.084a3.715,3.715,0,0,0-2.168-.6c-1.084,0-3.01.843-5.539,2.529a32.073,32.073,0,0,0-5.66,4.7,31.3,31.3,0,0,0,9.272-2.77c3.372-1.445,5.058-2.408,5.058-2.77m5.659-3.251a11.072,11.072,0,0,1-1.565,4.094,9.927,9.927,0,0,1-3.01,4.094,39.6,39.6,0,0,1-23.481,7.586,21.285,21.285,0,0,1-6.5-1.686,20.314,20.314,0,0,1-5.178-2.529,9.849,9.849,0,0,0-1.084-.963c-.482-.482-.482-.6-.241-.723.12,0,.843,0,2.047.121a55.5,55.5,0,0,0,13.968-.6,21.979,21.979,0,0,0,4.937-5.058c2.529-7.466,3.853-11.44,3.853-11.921a6.762,6.762,0,0,0-1.084-3.733c-.6-1.084-1.324-1.565-2.047-1.565a5.6,5.6,0,0,0-4.214,2.167,7.057,7.057,0,0,1-1.2.964c-.121,0-.121-.482-.121-1.686a7.379,7.379,0,0,1,2.288-5.419,6.2,6.2,0,0,1,4.455-2.288c3.372,0,5.178,2.408,5.178,7.466,0,3.492-1.566,8.188-4.576,13.969,4.817-4.455,8.67-6.623,11.681-6.623a7.684,7.684,0,0,1,3.372,1.084q2.529,1.445,2.529,3.251" transform="translate(-103.853 -284.616)" opacity="0.1" fill="url(#linear-gradient-51)"/>
    <path id="Path_241" data-name="Path 241" d="M392.588,708.079c2.13,0,3.018.888,2.486,2.663-.533,2.042-1.065,3.018-1.421,3.018-.178,0-.355-.178-.8-.71a2.089,2.089,0,0,0-1.687-.621c-.8,0-2.486.8-5.06,2.485a28.284,28.284,0,0,0-6.037,5.149,2.007,2.007,0,0,0-.444.887c0,.71,1.42,1.065,4.172,1.065a43.565,43.565,0,0,0,6.924-.71,38.532,38.532,0,0,1,4.971-.621c3.64,0,5.948,1.065,6.924,3.285a4.517,4.517,0,0,1,.444,1.953,9.765,9.765,0,0,1-.977,3.995c-.621,1.332-1.154,2.042-1.6,2.219q-13.183,3.995-19.974,3.995A9.123,9.123,0,0,1,374.478,734a7.342,7.342,0,0,1-2.486-3.817c1.6.977,4.261,1.509,8.078,1.509,1.6,0,5.415-.622,11.452-1.776,5.326-1.065,8.611-1.687,9.765-2.131-.533-1.687-2.841-2.486-7.1-2.486a32.441,32.441,0,0,0-5.415.71,40.135,40.135,0,0,1-5.682.621c-4.172,0-6.214-.888-6.214-2.752a7.037,7.037,0,0,1,.977-3.285,28.165,28.165,0,0,1,7.9-9.41c2.752-2.13,4.971-3.107,6.836-3.107" transform="translate(-185.022 -340.511)" opacity="0.1" fill="url(#linear-gradient-52)"/>
    <path id="Path_242" data-name="Path 242" d="M281.031,489.668c.86.646.949,1.274.2,1.828-.834.662-1.345.9-1.488.788-.072-.054-.089-.179-.107-.529a1.052,1.052,0,0,0-.492-.762,6.686,6.686,0,0,0-2.8-.531,14.282,14.282,0,0,0-4,.248,1.014,1.014,0,0,0-.448.224c-.215.287.25.86,1.361,1.695a21.949,21.949,0,0,0,3.01,1.813,19.459,19.459,0,0,1,2.195,1.257c1.469,1.1,2.077,2.233,1.8,3.425a2.283,2.283,0,0,1-.413.923,4.927,4.927,0,0,1-1.605,1.316,2.237,2.237,0,0,1-1.318.411,38.3,38.3,0,0,1-9.272-4.444,4.605,4.605,0,0,1-1.79-2.69,3.707,3.707,0,0,1,.154-2.294,8.173,8.173,0,0,0,2.8,3.058,44.831,44.831,0,0,0,5.16,2.755c2.472,1.185,3.987,1.93,4.587,2.1.3-.842-.393-1.864-2.112-3.156a16.348,16.348,0,0,0-2.4-1.355,20.306,20.306,0,0,1-2.481-1.471c-1.684-1.265-2.239-2.242-1.674-2.995a3.549,3.549,0,0,1,1.39-1.03,14.215,14.215,0,0,1,6.041-1.4,6.019,6.019,0,0,1,3.7.818" transform="translate(-118.837 -203.934)" opacity="0.1" fill="url(#linear-gradient-53)"/>
    <path id="Path_243" data-name="Path 243" d="M173.584,679.612c0,.667-.868,2.269-2.67,4.805a25.937,25.937,0,0,1-5.739,6.14c-1.134.8-5,2.136-11.612,3.871a6.915,6.915,0,0,1-1.735.334,7.859,7.859,0,0,1,1.2-1.068q1.3-.9,7.008-4a57.625,57.625,0,0,0,6.473-3.737c.067-.133.133-.2.133-.334,0-.867-3.27-1.268-9.744-1.268-.067,0-1.335,0-3.8.133-1.134.067-1.735,0-1.735-.267a3.511,3.511,0,0,1,.4-1l2.336-3.938a5.1,5.1,0,0,1,3.737-2.135,33.027,33.027,0,0,1,4.471-.133c7.541,0,11.278.867,11.278,2.6" transform="translate(-47.572 -321.155)" opacity="0.1" fill="url(#linear-gradient-54)"/>
    <path id="Path_244" data-name="Path 244" d="M609.194,803.231c0,.668-.867,2.269-2.669,4.8a25.951,25.951,0,0,1-5.739,6.14c-1.135.8-5.005,2.136-11.612,3.871a6.922,6.922,0,0,1-1.735.334,7.841,7.841,0,0,1,1.2-1.068q1.3-.9,7.007-4a57.713,57.713,0,0,0,6.473-3.737c.067-.134.133-.2.133-.334,0-.868-3.27-1.268-9.743-1.268-.067,0-1.335,0-3.8.133-1.135.067-1.735,0-1.735-.267a3.511,3.511,0,0,1,.4-1l2.336-3.938a5.1,5.1,0,0,1,3.737-2.135,33.042,33.042,0,0,1,4.471-.133c7.541,0,11.278.867,11.278,2.6" transform="translate(-318.951 -398.168)" opacity="0.1" fill="url(#linear-gradient-55)"/>
    <path id="Path_245" data-name="Path 245" d="M238.143,417.622a40.014,40.014,0,0,0,11.541-1.864c1.154-.355,1.775-.444,1.775-.266a5.2,5.2,0,0,1-1.332,1.332,20.352,20.352,0,0,1-13.937,4.882,6.911,6.911,0,0,1-4.35-1.42,4.419,4.419,0,0,1-1.6-3.462c0-3.817,1.6-7.724,4.794-11.807-2.841-.888-4.261-2.308-4.261-4.439,0-1.864,1.154-3.995,3.373-6.569,2.308-2.486,4.084-3.728,5.5-3.728q.533,0,1.065.8a3.127,3.127,0,0,1,.621,1.864,7.243,7.243,0,0,1-1.154,2.13c-.8,1.065-1.154,1.509-1.243,1.243a1.906,1.906,0,0,0-1.953-1.687c-.444,0-1.065.444-1.864,1.243a4.1,4.1,0,0,0-1.065,2.219,4.907,4.907,0,0,0,4.616,2.308c.71,0,1.864-.71,3.374-2.042.887-.8,1.864-1.687,2.752-2.574.355-.178.533,0,.533.8a8.5,8.5,0,0,1-1.864,5.06,32.861,32.861,0,0,0-10.564,11.1,4.363,4.363,0,0,0-.621,2.042c0,1.864,1.953,2.841,5.859,2.841" transform="translate(-96.714 -142.527)" opacity="0.1" fill="url(#linear-gradient-56)"/>
    <path id="Path_246" data-name="Path 246" d="M681.195,327.5a26.823,26.823,0,0,0-1.545-4.528c-.746-1.864-1.332-2.823-1.651-2.823a.52.52,0,0,0-.479.213c-.053.16-.213.267-.586.267a2.624,2.624,0,0,1-1.438-.852c-.586-.532-.852-.959-.852-1.278a4.769,4.769,0,0,1,.746-1.492c.479-.852.8-1.225.905-1.225a4.022,4.022,0,0,1,3.3,2.131,14.9,14.9,0,0,1,2.024,5.646,1.7,1.7,0,0,1,.054.426c.053.054.053.054.106,0a1.435,1.435,0,0,1,.16-.426,51.02,51.02,0,0,1,1.438-6.232c.8-1.971,1.7-2.93,2.663-2.93a1.876,1.876,0,0,1,1.491,1.012,2.48,2.48,0,0,1,.693,1.438,3.424,3.424,0,0,1-.267,1.065c-.159.639-.426.959-.639.959-.106,0-.373-.267-.746-.746a1.465,1.465,0,0,0-1.119-.693c-.852,0-1.7,2.024-2.4,6.125a19.181,19.181,0,0,1-1.119,3.782,6.346,6.346,0,0,1,2.716,1.491,4.44,4.44,0,0,1,1.811,2.29,3.19,3.19,0,0,1-.426,1.385,3.229,3.229,0,0,1-.692,1.119c-1.065.32-2.13.586-3.2.906a6.306,6.306,0,0,0-2.77,1.491,41.773,41.773,0,0,1,2.237,13.263,19.758,19.758,0,0,1-.426,3.888,1.919,1.919,0,0,1-.266.746,6.464,6.464,0,0,1-.16-2.29,45.7,45.7,0,0,0-1.119-9.108,56.773,56.773,0,0,1-1.119-6.072,4.763,4.763,0,0,1,1.492-3.888,9.992,9.992,0,0,1,2.663-1.172,2.2,2.2,0,0,0-1.545-.8c-.213,0-.586.32-1.012.852a3.256,3.256,0,0,1-.745.852c-.107,0-.107-.266-.107-.746.266-2.237.906-3.622,1.918-4.048" transform="translate(-373.57 -95.253)" opacity="0.1" fill="url(#linear-gradient-57)"/>
    <path id="Path_247" data-name="Path 247" d="M208.387,335.5c-.355-.976-1.421-1.42-3.018-1.42q-2.53,0-7.457,4.794a4.5,4.5,0,0,0,1.154.178,14.23,14.23,0,0,0,5.681-1.332,8.815,8.815,0,0,0,3.64-2.219m1.775-1.509c0,2.663-1.332,4.971-3.995,7.013a14.63,14.63,0,0,1-9.055,3.018,10.142,10.142,0,0,1-2.308-.444,8.567,8.567,0,0,0-2.131-.355c-3.64,0-7.19,1.686-10.919,5.149-2.663,2.752-5.326,5.415-8.078,8.078a13.7,13.7,0,0,1-4.883,2.574c-1.953.533-3.107.888-3.373.888a.087.087,0,0,1-.089-.089,9.938,9.938,0,0,1,2.219-1.509c1.332-.8,3.551-2.308,6.48-4.528,1.42-1.42,3.462-3.64,6.125-6.836a43.313,43.313,0,0,1,5.948-5.593,15.577,15.577,0,0,1,6.747-3.107c-.266.089.976.089,3.729.089,1.687-1.6,3.285-3.2,4.971-4.794,2.131-1.953,3.906-2.841,5.326-2.841,2.219,0,3.285,1.065,3.285,3.285" transform="translate(-56.276 -105.414)" opacity="0.1" fill="url(#linear-gradient-58)"/>
    <path id="Path_248" data-name="Path 248" d="M349.758,830.4c-1.316.359-2.093.6-2.273.6a.059.059,0,0,1-.06-.06,6.71,6.71,0,0,1,1.5-1.017,41.788,41.788,0,0,0,4.366-3.05c1.017-.957,2.392-2.512,4.186-4.605a29.115,29.115,0,0,1,3.947-3.768,8.959,8.959,0,0,1,5.263-1.854,4.648,4.648,0,0,1,1.615.3,5.593,5.593,0,0,0,1.794.359,2.666,2.666,0,0,0,2.153-1.017c.478-.718.9-1.376,1.316-2.093.3-.479.6-.718.837-.718q.179,0,.179.359a4.6,4.6,0,0,1-.419,1.555c-.18.359.718.538,2.572.538.179,0,.3-.06.3-.12a4.247,4.247,0,0,0-.3-1.376c-.12-.239,0-.6.3-1.076q.718-1.256.9-1.077a2.7,2.7,0,0,1,.658,1.974,7.92,7.92,0,0,1-.538,2.632,4.41,4.41,0,0,1-1.016,1.854c-.837.538-2.094.418-3.888-.478a6.16,6.16,0,0,1-4.306,2.273,6.833,6.833,0,0,1-1.555-.3,5.773,5.773,0,0,0-1.435-.239c-2.452,0-4.844,1.136-7.356,3.409-1.794,1.735-3.588,3.529-5.442,5.263a9.225,9.225,0,0,1-3.289,1.734" transform="translate(-169.717 -405.41)" opacity="0.1" fill="url(#linear-gradient-59)"/>
    <path id="Path_249" data-name="Path 249" d="M477.624,712.046a8.937,8.937,0,0,1-.64,4.375,8.5,8.5,0,0,1,1.921,1.494,6.879,6.879,0,0,1-1.387,2.667,4.926,4.926,0,0,0-1.707-1.494,21.949,21.949,0,0,1-4.161,4.161,25.576,25.576,0,0,1-5.229,3.094c-.32.213-2.134.854-5.549,2.134a3.138,3.138,0,0,1-.961.32.1.1,0,0,1-.107-.107c0-.107.214-.427.854-.747,2.454-1.494,4.908-2.987,7.363-4.375a31.85,31.85,0,0,0,6.616-5.015,8.6,8.6,0,0,1-2.454-1.708,5,5,0,0,1-1.174,2.028,3.154,3.154,0,0,1-2.561,1.6c-1.174,0-1.707-1.067-1.707-2.987,0-2.668,1.174-5.335,3.735-8.217a20.322,20.322,0,0,1,4.909-4.055,9.253,9.253,0,0,1,4.268-1.6c.96,0,1.494.427,1.494,1.28,0,.213-.107.427-.107.64a11.018,11.018,0,0,1-3.415,6.509m-.213-.747c1.387-1.708,2.028-2.881,2.028-3.628,0-.854-.32-1.281-1.174-1.281a7.338,7.338,0,0,0-3.2,1.067,17.307,17.307,0,0,0-4.161,3.2c-2.028,2.134-2.988,3.948-2.988,5.549,0,.96.32,1.494,1.067,1.494a3.07,3.07,0,0,0,1.921-.747,2.026,2.026,0,0,0,.854-1.6,5.173,5.173,0,0,1,1.814-3.628c1.281-1.067,2.241-1.494,3.095-1.174a1.054,1.054,0,0,1,.747.747m-1.6,4.588a3.686,3.686,0,0,0,.213-1.814c-.213-.64-.427-1.067-.96-1.067a2.458,2.458,0,0,0-.961.32c-.32.32-.534.534-.534.641q0,.8,2.241,1.921" transform="translate(-239.728 -337.731)" opacity="0.1" fill="url(#linear-gradient-60)"/>
    <path id="Path_250" data-name="Path 250" d="M251.833,241.847c.118,1.468-.39,3.3-1.556,5.78a11.505,11.505,0,0,1,2.345,2.313c-.085.717-.938,1.781-2.289,3.366a6.666,6.666,0,0,0-2.058-2.279,29.712,29.712,0,0,1-6.256,4.934,34.616,34.616,0,0,1-7.521,3.33c-.464.236-3,.809-7.8,1.988a4.254,4.254,0,0,1-1.342.278.142.142,0,0,1-.127-.161c.017-.143.355-.54,1.266-.869,3.537-1.618,7.074-3.237,10.594-4.713a43.107,43.107,0,0,0,9.691-5.692,11.648,11.648,0,0,1-3.029-2.685,6.771,6.771,0,0,1-1.9,2.54,4.27,4.27,0,0,1-3.7,1.745c-1.578-.187-2.126-1.706-1.821-4.289.424-3.587,2.426-6.987,6.326-10.453a27.517,27.517,0,0,1,7.244-4.672c2.609-1.146,4.558-1.643,5.993-1.474,1.291.152,1.941.811,1.805,1.959-.034.287-.211.557-.245.844a14.919,14.919,0,0,1-5.625,8.209m-.168-1.038c2.136-2.075,3.184-3.551,3.3-4.556.135-1.148-.227-1.772-1.375-1.908a9.926,9.926,0,0,0-4.473.926,23.452,23.452,0,0,0-6.1,3.643c-3.065,2.548-4.644,4.834-4.9,6.986-.152,1.291.193,2.06,1.2,2.178a4.154,4.154,0,0,0,2.7-.7,2.742,2.742,0,0,0,1.4-2.016,7,7,0,0,1,3.015-4.59c1.891-1.231,3.25-1.653,4.347-1.087a1.428,1.428,0,0,1,.886,1.123m-2.881,5.915a4.989,4.989,0,0,0,.575-2.405c-.185-.895-.4-1.5-1.122-1.587a3.335,3.335,0,0,0-1.342.278c-.481.38-.8.633-.819.776q-.127,1.076,2.708,2.938" transform="translate(-93.591 -43.175)" opacity="0.1" fill="url(#linear-gradient-61)"/>
    <path id="Path_251" data-name="Path 251" d="M577.087,269.358a18.155,18.155,0,0,0-1.739,6.831c0,1.988.5,3.105,1.615,3.105.621,0,1.366-.745,2.112-2.36.124-.124.124-.249.248-.249,0-.124.124,0,.124,0v.373c-.745,3.6-1.739,5.465-3.23,5.465s-2.236-1.366-2.236-3.975a16.892,16.892,0,0,1,.994-5.217c.621-2.112.994-3.23.994-3.23,0-.248-.5-.745-1.491-1.366a24.958,24.958,0,0,1-4.844,4.72,38.354,38.354,0,0,1-6.087,3.726c-.372.248-2.484.994-6.459,2.485a10.139,10.139,0,0,1-1.118.248h-.124c0-.248.248-.5.994-.869l8.571-5.217a33.281,33.281,0,0,0,7.7-5.714c-2.236-1.242-3.354-2.36-3.354-3.726a5.8,5.8,0,0,1,2.112-4.223c1.49-1.242,2.608-1.739,3.6-1.366.745.248,1.242,1.118,1.242,2.484a11.752,11.752,0,0,1-.87,4.348c1.118.621,1.739,1.366,1.739,2.112a3.335,3.335,0,0,1-.5,1.615m-2.609-4.472a3.985,3.985,0,0,0,.248-2.112c-.248-.745-.5-1.118-1.118-1.118a2.859,2.859,0,0,0-1.118.372c-.373.248-.621.5-.621.745,0,.621.869,1.242,2.608,2.112" transform="translate(-299.561 -60.541)" opacity="0.1" fill="url(#linear-gradient-62)"/>
    <path id="Path_252" data-name="Path 252" d="M169.145,343.752a9.275,9.275,0,0,1-1.468,2.774c-5.058,1.795-11.258,4.079-18.6,7.015-2.284,1.142-3.263,2.121-3.263,2.773s1.468,1.468,4.732,2.447c.163.163.326.653.326,1.795s0,1.631-.163,1.795c0,.163-.326.163-.979.163-3.916-.816-5.71-2.121-5.71-4.079a9.866,9.866,0,0,1,1.468-4.405,12.134,12.134,0,0,1,3.426-3.589c.979-.816,4.405-2.121,10.115-4.079,3.1-1.142,6.2-2.121,9.3-3.263.489-.163.815-.326.979-.163a2.854,2.854,0,0,1-.163.816" transform="translate(-42.999 -112.991)" opacity="0.1" fill="url(#linear-gradient-63)"/>
    <g id="Group_19" data-name="Group 19" transform="translate(75 161.5)" opacity="0.1">
      <path id="Path_253" data-name="Path 253" d="M217.7,167.325c70.03,0,127.943,52.861,135.932,120.78a15.9,15.9,0,0,1,6.183,3.046q-.266-2.98-.664-5.93l-1.387-.66a6.353,6.353,0,0,1-3.585-5.357c0-.8,0-1.878,2.73-6.552A142.895,142.895,0,1,0,318.26,405.443c-3.152.234-6.2.411-9.124.524A136.322,136.322,0,0,1,217.7,441.074c-75.474,0-136.875-61.4-136.875-136.875S142.225,167.325,217.7,167.325ZM355.117,329.271c-1.191,1.6-2.458,3.148-3.789,4.634a135.718,135.718,0,0,1-13.625,36.08q3.6-.532,7.265-1.176,2.262-4.445,4.215-9.063a141.132,141.132,0,0,0,9.889-35.967Q357.166,326.668,355.117,329.271Z" transform="translate(-75 -161.5)" fill="url(#linear-gradient-64)"/>
    </g>
  </g>
</svg>
