<svg xmlns="http://www.w3.org/2000/svg" width="281.728" height="75.132" viewBox="0 0 281.728 75.132">
  <g id="Group_75" data-name="Group 75" transform="translate(7301.657 -3482.35)">
    <g id="Group_33" data-name="Group 33" transform="translate(-5 -131)">
      <path id="Path_284" data-name="Path 284" d="M-7270.046,3699q.066-.133,1.795-1.995t3.824-4.089q2.094-2.227,3.989-4.188t2.36-2.427a9.463,9.463,0,0,1,4.654-1.995,4.779,4.779,0,0,1,4.854,1.4,4.407,4.407,0,0,1,.6,5.253,41.56,41.56,0,0,1-3.125,4.987q-5.253,6.981-12.6,8.677t-14.993,2.826a32.017,32.017,0,0,1-4.654,10.838,19.225,19.225,0,0,1-9.242,7.314q-5.585,2.06-9.542.133t-4.488-8.312q-.532-6.383,5.784-17.952.4-.8.8-.6t0,1.4q-.8,1.73-1.995,4.089a24.353,24.353,0,0,0-1.829,4.721,8.986,8.986,0,0,0-.133,4.455,4.835,4.835,0,0,0,3.158,3.225,19.468,19.468,0,0,0,10.672-.8,25.055,25.055,0,0,0,8.012-4.787,20.811,20.811,0,0,0-.465-5.12q-.533-2.326-1.2-4.521l3.591-8.312q1.263,2.793,1.861,4.355a2.793,2.793,0,0,0,1.928,1.9,8.906,8.906,0,0,0,3.757,0Q-7270.512,3699.07-7270.046,3699Zm15.625-5.851a3.635,3.635,0,0,0-2.261-1.562,3.577,3.577,0,0,0-2.992.3,18.479,18.479,0,0,0-4.156,3.058q-1.83,1.8-3.69,3.657,3.524-.664,6.815-1.5a31.579,31.579,0,0,0,6.15-2.227Q-7253.69,3694.55-7254.421,3693.152Z" transform="translate(10 -50.614)"/>
      <path id="Path_285" data-name="Path 285" d="M-7168.518,3746.5a42.7,42.7,0,0,1-1.928,4.721,2.543,2.543,0,0,0,1.263.266h.333a8.018,8.018,0,0,0,1.662-.133v-.066h.066l.133-.066q2.858-3.257,5.851-6.449t6.184-6.184a9.9,9.9,0,0,1,4.654-2.061,7.54,7.54,0,0,1,1.33-.133,4.289,4.289,0,0,1,3.458,1.6,4.569,4.569,0,0,1,1.263,2.992,5.071,5.071,0,0,1-.6,2.26,28.967,28.967,0,0,1-3.125,4.987,22.8,22.8,0,0,1-8.045,6.749,38.154,38.154,0,0,1-9.907,3.357,39.14,39.14,0,0,1-6.383.8h-.266q-2.393,0-2.394-1.33a1.177,1.177,0,0,1,.133-.532,44.756,44.756,0,0,1-5.053,1.53,50.054,50.054,0,0,1-7.513,1.33q-1.4.134-2.793.133a24.507,24.507,0,0,1-4.521-.4q-3.39-.6-4.388-3.191a6.811,6.811,0,0,1-.466-2.859,16.34,16.34,0,0,1,2.128-7.314,71.649,71.649,0,0,1,4.721-8.311.839.839,0,0,1,.332-.2h.133q.133,0,.133.2a1.1,1.1,0,0,1-.066.266q-2.528,5.054-2.527,8.045v.466a3.879,3.879,0,0,0,2.427,3.657,13.931,13.931,0,0,0,5.286,1.064h.665a31.941,31.941,0,0,0,5.386-.465q2.992-.531,4.721-1a20.129,20.129,0,0,0,4.721-1.862,5.731,5.731,0,0,0,2.66-2.793.745.745,0,0,1,.266-.266q.066,0,.133.4A2.635,2.635,0,0,1-7168.518,3746.5Zm17.221-1.064a3.757,3.757,0,0,0-2.26-1.6,3.174,3.174,0,0,0-1.264-.133,4.232,4.232,0,0,0-1.795.4,17.944,17.944,0,0,0-4.156,3.092q-1.83,1.829-3.624,3.69,3.524-.664,6.815-1.5a31.611,31.611,0,0,0,6.15-2.227.688.688,0,0,0,.4-.665A1.87,1.87,0,0,0-7151.3,3745.434Z" transform="translate(-66.529 -87.935)"/>
      <path id="Path_286" data-name="Path 286" d="M-6987.776,3719.2q-3.191.6-6.383,1.164t-6.383,1.163l3.989-7.912q6.914-1.262,12.766-2.394Z" transform="translate(-208.774 -69.948)"/>
      <path id="Path_287" data-name="Path 287" d="M-7106.744,3804.1q-4.255-.6-4.92-3.59a19.574,19.574,0,0,1-.266-2.261,13.832,13.832,0,0,1,.731-4.255,31.657,31.657,0,0,1,2.992-6.915q1.928-3.324,2.992-4.787a1.033,1.033,0,0,1,.266-.2.53.53,0,0,1,.2.067c.088,0,.133.066.133.2a1.13,1.13,0,0,1-.066.266q-2.461,4.854-2.46,7.713a4.026,4.026,0,0,0,.8,2.593q2.127,2.792,6.915,2.859h.665a38.943,38.943,0,0,0,9.641-1.33q5.519-1.4,8.511-2.194a56.122,56.122,0,0,1,8.511-13.763q2.725-3.192,5.119-3.192a3.75,3.75,0,0,1,1.8.466q2.128,1.132,2.127,4.189a13.888,13.888,0,0,1-.532,3.524,35.68,35.68,0,0,1-4.255,8.211,19.224,19.224,0,0,1-6.715,6.017,32.775,32.775,0,0,1-6.682,2.527q-4.423,1.263-9.309,2.261t-9.342,1.463q-2.659.266-4.587.266A17.034,17.034,0,0,1-7106.744,3804.1Zm35.04-20.678a4.914,4.914,0,0,0-2.493,1.762q-.9,1.231-1.762,2.427a1.771,1.771,0,0,0-.4,1.064,1.393,1.393,0,0,0,.2.731,2.8,2.8,0,0,0,1.264,1.4,11.389,11.389,0,0,0,4.654-1.4,1.749,1.749,0,0,0,1.063-1.6,4.788,4.788,0,0,0-.332-1.529A4.839,4.839,0,0,0-7071.7,3783.417Z" transform="translate(-129.167 -115.747)"/>
      <path id="Path_288" data-name="Path 288" d="M-6961.705,3740.545a16.968,16.968,0,0,1-8.843,11.436,31.09,31.09,0,0,1-10.9,3.292,49.125,49.125,0,0,1-11.038.366,5.628,5.628,0,0,1-2.626-.9,2.654,2.654,0,0,1-1.23-2.228,78.065,78.065,0,0,1,2.727-8.777q.6,2.194,3.657,2.826a24.014,24.014,0,0,0,6.915.3,69.505,69.505,0,0,0,8.677-1.164,41.064,41.064,0,0,0,8.345-2.493q0-2.593-.167-6.616t-.366-8.311a36.261,36.261,0,0,0-.432-5.12,19.335,19.335,0,0,1-.366-3.424l4.987-8.045,1.462,21.476A22.618,22.618,0,0,1-6961.705,3740.545Z" transform="translate(-211.773 -70.28)"/>
      <path id="Path_289" data-name="Path 289" d="M-6831.357,3681.016l4.92-7.779,1.928,28.258-4.92,7.779Z" transform="translate(-329.687 -42.8)"/>
      <path id="Path_290" data-name="Path 290" d="M-6674.418,3686.782a33.221,33.221,0,0,1-2.261,3.956q-1.264,1.895-2.593,3.624a.577.577,0,0,1-.465.266q-.267,0-.532-.6-1.4-3.456-3.125-3.457h-.2a5.611,5.611,0,0,0-3.491,2.128,25.093,25.093,0,0,0-3.092,4.455,34.645,34.645,0,0,1-1.994,3.324l-.067-2.859.067-.133q.864-1.663,2.56-4.554a56.788,56.788,0,0,1,3.823-5.685,19.942,19.942,0,0,1,4.322-4.322,3.417,3.417,0,0,1,1.862-.6,4.334,4.334,0,0,1,2.859,1.33A14.775,14.775,0,0,1-6674.418,3686.782Z" transform="translate(-431.113 -49.297)"/>
      <path id="Path_291" data-name="Path 291" d="M-6697.919,3742.859q-2.128,4.388-8.079,8.045a43.185,43.185,0,0,1-12.6,5.252,32.493,32.493,0,0,1-7.513.931,26.035,26.035,0,0,1-4.987-.466,9.627,9.627,0,0,1-7.779-6.317,10.08,10.08,0,0,1-.665-3.657,14.062,14.062,0,0,1,1.33-5.718,68.853,68.853,0,0,1,4.721-8.91,1.092,1.092,0,0,1,.864-.6,1.13,1.13,0,0,1,.332.066.566.566,0,0,1,.4.6,2.014,2.014,0,0,1-.2.731q-2.727,5.121-2.726,8.378a9.093,9.093,0,0,0,.066,1.13,6.757,6.757,0,0,0,3.591,5.12,14.225,14.225,0,0,0,7.114,1.463h.4a40.977,40.977,0,0,0,9.375-1.263,45.041,45.041,0,0,0,8.91-3.125l4.188-2.061v-.133a13.481,13.481,0,0,0-.665-3.524q-.732-2.394-1.4-4.389l5.12-7.58,1.6,4.92a11.94,11.94,0,0,1,.532,3.524A17.75,17.75,0,0,1-6697.919,3742.859Z" transform="translate(-397.306 -81.105)"/>
      <path id="Path_292" data-name="Path 292" d="M-6544.892,3797.675a10.3,10.3,0,0,0-1.961,1.962q-.9,1.164-1.7,2.427-2.128,3.192-4.92,3.657a12.041,12.041,0,0,1-1.33.067,15.544,15.544,0,0,1-4.654-.8q-1.064-.331-5.253-2.094a23.574,23.574,0,0,1-4.986-2.493.542.542,0,0,1-.2-.333q0-.332.665-.532a54.51,54.51,0,0,1,9.907-1.529q5.186-.331,10.106-1.13a6.82,6.82,0,0,0,3.258-1.6,1.275,1.275,0,0,1,.931-.4h.2a1.1,1.1,0,0,1,.865,1.13,4.278,4.278,0,0,1-.066.665A1.63,1.63,0,0,1-6544.892,3797.675Z" transform="translate(-526.551 -129.738)"/>
      <path id="Path_293" data-name="Path 293" d="M-6472.878,3750.82q.6-1.729,1.829-4.655a30.652,30.652,0,0,1,2.958-5.452,15.635,15.635,0,0,1,3.79-3.989,4.379,4.379,0,0,1,2.46-.8,4.735,4.735,0,0,1,2.128.532,7.323,7.323,0,0,1,3.059,3.025,21.836,21.836,0,0,1,1.861,4.554,2.84,2.84,0,0,0,2.128,1,3.5,3.5,0,0,0,1.662-.465l-4.255,9.176q-4.788,1.463-9.309,2.527t-9.774,2.46a15.66,15.66,0,0,0-.565,1.829,1.806,1.806,0,0,1-1.164,1.429h-.2a.353.353,0,0,1-.4-.4v-.266a9.686,9.686,0,0,1,.233-1q.165-.6.3-1.13-3.126.665-5.319,1.063a17.469,17.469,0,0,1-2.726.2q-1.264,0-2.727-.133-4.522-.464-4.455-4.388a9.4,9.4,0,0,1,.133-1.529,19.309,19.309,0,0,1,2.992-8.112c.133-.177.221-.266.266-.266v.266q-.067.533-.133,1a4.37,4.37,0,0,0,2.127,3.723,10.521,10.521,0,0,0,4.322.931,17.058,17.058,0,0,0,2.527-.2Q-6474.939,3751.152-6472.878,3750.82Zm11.436-2.792a8.728,8.728,0,0,0-2.46-3.391,3.125,3.125,0,0,0-1.928-.8,2.94,2.94,0,0,0-1.928.8,7.742,7.742,0,0,0-2.095,2.792q-.7,1.6-1.363,3.258l9.375-1.862a.519.519,0,0,0,.465-.465A1.12,1.12,0,0,0-6461.442,3748.027Z" transform="translate(-582.674 -87.603)"/>
      <path id="Path_294" data-name="Path 294" d="M-6310.409,3616.342a2.428,2.428,0,0,1-1.43,1.33,3.815,3.815,0,0,0-1.762,1.462,3.182,3.182,0,0,0,1.6.931,7.271,7.271,0,0,1,1.795.731,1.8,1.8,0,0,1,.865,1.53,3.27,3.27,0,0,1-.266,1.2,6.817,6.817,0,0,1-2.593,3.059,7.3,7.3,0,0,1-3.225,1.4q-1.7.265-3.491.6,1.53-.665,3.092-1.363t3.025-1.5c.31-.178.465-.355.465-.532,0-.045-.045-.111-.133-.2q-.6-.333-1.264-.632t-1.263-.631a1.868,1.868,0,0,1-1.2-1.8,5.67,5.67,0,0,1,1.4-3.125,27.07,27.07,0,0,1,4.056-4.521,9.532,9.532,0,0,1,1.729-.931Z" transform="translate(-705.916)"/>
      <path id="Path_295" data-name="Path 295" d="M-6308.9,3681.016l4.92-7.779,1.928,28.258-4.92,7.779Z" transform="translate(-713.08 -42.8)"/>
    </g>
  </g>
</svg>
