<svg xmlns="http://www.w3.org/2000/svg" xmlns:xlink="http://www.w3.org/1999/xlink" width="64.961" height="53.889" viewBox="0 0 64.961 53.889">
  <defs>
    <linearGradient id="linear-gradient" x1="0.883" y1="-0.125" x2="0.42" y2="0.63" gradientUnits="objectBoundingBox">
      <stop offset="0" stop-color="#04070c"/>
      <stop offset="0.134" stop-color="#070a0f"/>
      <stop offset="0.267" stop-color="#13161b"/>
      <stop offset="0.401" stop-color="#272a2e"/>
      <stop offset="0.534" stop-color="#444649"/>
      <stop offset="0.667" stop-color="#68696c"/>
      <stop offset="0.801" stop-color="#949597"/>
      <stop offset="0.932" stop-color="#c8c8c9"/>
      <stop offset="1" stop-color="#e6e6e6"/>
    </linearGradient>
    <linearGradient id="linear-gradient-2" x1="0.944" y1="-0.017" x2="0.576" y2="0.38" xlink:href="#linear-gradient"/>
    <linearGradient id="linear-gradient-3" x1="-0.92" y1="-0.028" x2="0.837" y2="0.624" xlink:href="#linear-gradient"/>
    <linearGradient id="linear-gradient-4" x1="-0.21" y1="-0.058" x2="0.654" y2="0.633" xlink:href="#linear-gradient"/>
    <linearGradient id="linear-gradient-5" x1="0.12" y1="0.026" x2="0.461" y2="0.625" xlink:href="#linear-gradient"/>
    <linearGradient id="linear-gradient-6" x1="0.555" y1="0.422" x2="0.505" y2="0.488" xlink:href="#linear-gradient"/>
    <linearGradient id="linear-gradient-7" x1="0.864" y1="-0.228" x2="0.566" y2="0.373" xlink:href="#linear-gradient"/>
    <linearGradient id="linear-gradient-8" x1="0.676" y1="-0.145" x2="0.531" y2="0.385" xlink:href="#linear-gradient"/>
    <linearGradient id="linear-gradient-9" x1="0.602" y1="0.428" x2="0.518" y2="0.487" xlink:href="#linear-gradient"/>
    <linearGradient id="linear-gradient-10" x1="0.982" y1="0.05" x2="0.602" y2="0.395" xlink:href="#linear-gradient"/>
  </defs>
  <g id="Group_27" data-name="Group 27" transform="translate(0 0)">
    <g id="Group_26" data-name="Group 26" transform="translate(0)">
      <g id="Group_25" data-name="Group 25" transform="translate(0 0)">
        <path id="Path_254" data-name="Path 254" d="M276.582,374.817l-.012-.011.012.012h0S276.582,374.817,276.582,374.817Zm-.1-.085a0,0,0,0,0,0,0,0,0,0,0,0,0,0,.031.031,0,0,0,.009.005A.014.014,0,0,0,276.482,374.732Zm.1.085-.012-.011.012.012h0S276.582,374.817,276.582,374.817Zm-.1-.085a0,0,0,0,0,0,0,0,0,0,0,0,0,0,.031.031,0,0,0,.009.005A.014.014,0,0,0,276.482,374.732Zm.1.085-.012-.011.012.012h0S276.582,374.817,276.582,374.817Zm-.1-.085a0,0,0,0,0,0,0,0,0,0,0,0,0,0,.031.031,0,0,0,.009.005A.014.014,0,0,0,276.482,374.732Zm.1.085-.012-.011.012.012h0S276.582,374.817,276.582,374.817Zm-.1-.085a0,0,0,0,0,0,0,0,0,0,0,0,0,0,.031.031,0,0,0,.009.005A.014.014,0,0,0,276.482,374.732Zm.742,1.6v0a.078.078,0,0,0,.008-.03A.087.087,0,0,1,277.224,376.336Zm-.029.079,0,.011a.159.159,0,0,0,.02-.046A.106.106,0,0,1,277.195,376.415Zm-.613-1.6-.012-.011.012.012h0S276.582,374.817,276.582,374.817Zm-.1-.085a0,0,0,0,0,0,0,0,0,0,0,0,0,0,.031.031,0,0,0,.009.005A.014.014,0,0,0,276.482,374.732Zm.742,1.6v0a.078.078,0,0,0,.008-.03A.087.087,0,0,1,277.224,376.336Zm-.029.079,0,.011a.159.159,0,0,0,.02-.046A.106.106,0,0,1,277.195,376.415Zm-.613-1.6-.012-.011.012.012h0S276.582,374.817,276.582,374.817Zm-.1-.085a0,0,0,0,0,0,0,0,0,0,0,0,0,0,.031.031,0,0,0,.009.005A.014.014,0,0,0,276.482,374.732Zm.742,1.6v0a.078.078,0,0,0,.008-.03A.087.087,0,0,1,277.224,376.336Zm-.029.079,0,.011a.159.159,0,0,0,.02-.046A.106.106,0,0,1,277.195,376.415Zm-.613-1.6-.012-.011.012.012h0S276.582,374.817,276.582,374.817Zm-.1-.085a0,0,0,0,0,0,0,0,0,0,0,0,0,0,.031.031,0,0,0,.009.005A.014.014,0,0,0,276.482,374.732Zm.742,1.6v0a.078.078,0,0,0,.008-.03A.087.087,0,0,1,277.224,376.336Zm-.029.079,0,.011a.159.159,0,0,0,.02-.046A.106.106,0,0,1,277.195,376.415Zm-.613-1.6-.012-.011.012.012h0S276.582,374.817,276.582,374.817Zm-.1-.085a0,0,0,0,0,0,0,0,0,0,0,0,0,0,.031.031,0,0,0,.009.005A.014.014,0,0,0,276.482,374.732Zm.742,1.608a.078.078,0,0,0,.008-.03.087.087,0,0,1-.008.026Zm-.033.085a.159.159,0,0,0,.02-.046.106.106,0,0,1-.016.036Zm-.608-1.607h0s0,0,0,0l-.012-.011.012.012Zm-.07-.061h0Zm-.032-.026a0,0,0,0,0,0,0,0,0,0,0,0,0,0,.031.031,0,0,0,.009.005A.014.014,0,0,0,276.482,374.732Zm10.67,17.519-.093.043-.017.008-.039.018q-.144.069-.28.126h0c-.051.024-.1.045-.152.064l-.022.009h0l-.053.021-.072.03-.188.072c-.062.024-.124.046-.183.066l-.116.038c-.037.013-.074.025-.109.036-.055.017-.108.034-.159.049l-.009,0a0,0,0,0,0,0,0c-.016.005-.032.008-.046.012l-.043.012c-.114.03-.222.054-.326.072l-.1.016-.058.011c-.022,0-.042.007-.062.008s-.054.007-.08.008l-.076.007c-.024,0-.045,0-.066,0h-.063a.143.143,0,0,1-.047,0h-.014c-.032,0-.063,0-.092,0a.207.207,0,0,1-.05,0,.284.284,0,0,1-.05-.005l-.034-.005a.083.083,0,0,1-.025,0h-.013l-.039-.007c-.021,0-.042-.008-.062-.013a.5.5,0,0,1-.059-.016.393.393,0,0,1-.066-.022.628.628,0,0,1-.075-.029c-.025-.011-.049-.024-.071-.036l-.067-.038c-.021-.013-.041-.026-.062-.042a.855.855,0,0,1-.109-.1l-.009-.011a.322.322,0,0,1-.039-.045c-.02-.025-.038-.051-.057-.078a.25.25,0,0,1-.026-.042h0c-.013-.022-.026-.045-.038-.068a.06.06,0,0,1-.007-.012c-.008-.016-.013-.03-.02-.045s-.012-.029-.018-.043-.017-.045-.025-.068l0-.007a.069.069,0,0,1-.007-.018v0c-.009-.029-.017-.061-.025-.092l-.008-.035a.358.358,0,0,0-.009-.037c0-.015-.005-.028-.007-.042a.418.418,0,0,1-.007-.042c0-.013,0-.025-.005-.037s0-.024-.005-.037a.057.057,0,0,1,0-.016l-.008-.087c0-.02,0-.041,0-.061,0-.039,0-.079,0-.12s0-.1,0-.15a.126.126,0,0,1,0-.021c0-.043.005-.088.009-.133l0-.046c0-.024.005-.047.008-.072l.008-.062c.005-.045.012-.091.02-.137q.02-.12.043-.245t.051-.229c.011-.046.022-.091.034-.137s.024-.092.037-.138q.028-.1.059-.205t.063-.205c.014-.045.029-.089.045-.134.084-.251.176-.494.267-.721.038-.1.078-.189.114-.279.129-.3.249-.56.335-.74.014-.032.029-.059.041-.084.021-.043.039-.079.055-.109l.017-.033c.009-.02.017-.036.022-.045a.055.055,0,0,0,.008-.014s0,0,0,0c-.333.091-.667.179-1.006.266h0q-1.174.3-2.4.571-3.6.8-6.99,1.207a32.336,32.336,0,0,1-4.266.36,8.647,8.647,0,0,0-.873-.05,6.459,6.459,0,0,1-2.606-.609,4.02,4.02,0,0,1-.721-.459h0c-.037-.029-.074-.059-.109-.091a.06.06,0,0,1-.009-.009.691.691,0,0,1-.058-.051c-.047-.041-.095-.084-.139-.13s-.063-.063-.093-.1a.524.524,0,0,1-.038-.041c-.037-.039-.071-.08-.105-.121s-.081-.1-.121-.152-.076-.105-.113-.159a3.844,3.844,0,0,1-.2-.341c-.026-.047-.051-.093-.074-.141a.313.313,0,0,1-.025-.053s0,0,0,0a.879.879,0,0,1-.042-.1,1.57,1.57,0,0,1-.066-.183.228.228,0,0,1-.016-.045,0,0,0,0,0,0,0s0,0,0,0l-.02-.072c-.007-.025-.012-.05-.017-.075s-.008-.029-.012-.045a.909.909,0,0,1-.022-.12.015.015,0,0,1,0-.014s0-.008,0-.013-.008-.042-.011-.064c-.011-.06-.018-.122-.025-.185-.013-.137-.021-.28-.021-.43,0-.1,0-.212.012-.324v0c0-.03,0-.059.007-.089s0-.059.007-.091h0c.256-.051.512-.108.769-.17l.131-.03c.313-.075.63-.157.949-.242q1.979-.54,3.059-.849c.159-.058.318-.117.476-.179.275-.105.546-.213.814-.326l.3-.128.122-.053.4-.178c.112-.051.224-.1.334-.156.072-.033.143-.067.214-.1.107-.05.213-.1.32-.155.033-.017.066-.034.1-.05s.068-.033.1-.051l.1-.051.143-.072a.016.016,0,0,0,.008,0l.008,0c.238-.124.472-.248.706-.377l.105-.06c.13-.07.255-.141.381-.216.032-.016.062-.036.091-.051l.028-.018c.042-.024.084-.047.125-.072l.066-.038h0c.053-.03.107-.063.16-.1q.314-.189.623-.388a17.471,17.471,0,0,0,2.13-1.6s0,0,0,0q.316-.278.615-.569a16.24,16.24,0,0,0,1.7-1.942,22.464,22.464,0,0,0,2.417-3.856,3.977,3.977,0,0,0,.412-1.7,3.362,3.362,0,0,0-.924-2.366,3.318,3.318,0,0,0-2.673-1.232,6.157,6.157,0,0,0-1.08.1,7.636,7.636,0,0,0-3.6,1.593q-2.468,2.316-4.777,4.781c-.711.755-1.414,1.523-2.1,2.295q-1.213,1.355-2.376,2.743a26.956,26.956,0,0,1-3.186.463l-.051-.053c.719-1.61,1.215-2.829,1.49-3.648a2.125,2.125,0,0,0,.051-.619c0-.168-.02-.255-.051-.255-.068,0-.138.051-.2.153a5.316,5.316,0,0,1-2.212,2.521q-1.862,1.04-8.989,1.678l.047-.085-.927-13.52c0-.335-.016-.654-.043-.951q-.245-2.505-1.859-3.161a2.364,2.364,0,0,0-.977-.205,3.5,3.5,0,0,0-1.607.438,8.134,8.134,0,0,0-1.836,1.361,15.72,15.72,0,0,0-2.133,2.647,37.823,37.823,0,0,0-2.623,4.4,20.353,20.353,0,0,0-1.721,4.521,4.9,4.9,0,0,0-.2,1.336,3.173,3.173,0,0,0,.028.442,2.227,2.227,0,0,0,.693,1.408,4.753,4.753,0,0,0,3.288,1.441,3.707,3.707,0,0,0,.45-.026c.078-.008.153-.016.23-.029a4.354,4.354,0,0,0,.655-.151,8.107,8.107,0,0,0,3.9-2.33l.214-.239.437,6.309.158,2.33a1.127,1.127,0,0,0,.011.133c.032.279.158.889.7.853.016,0,.032,0,.047,0,.965-.113,2.057-.28,3.274-.489q.629-.111,1.31-.238a27.291,27.291,0,0,0,5.009-1.337,2.366,2.366,0,0,0-.051.462c0,.481.342.754,1.028.822a8.014,8.014,0,0,0,.978.054,11.634,11.634,0,0,0,1.212-.067c.05-.005.1-.009.153-.016.289-.03.585-.074.894-.125h.016c-.049.11-.1.221-.141.331s-.091.222-.134.333c-.017.042-.034.084-.05.126l-.079.2c-.055.139-.108.28-.159.421q-.089.245-.17.489c-.025.072-.049.146-.072.218-.03.091-.058.182-.087.272-.035.11-.068.22-.1.33-.024.074-.046.146-.067.218q-.1.323-.179.643c-.017.068-.034.137-.05.2-.028.118-.053.237-.075.354-.016.076-.03.153-.043.227s-.029.17-.042.254q-.057.377-.083.743c0,.037-.005.074-.008.11-.012.18-.017.359-.017.535.008.132.017.26.028.388,0,.059.009.116.013.175s.014.137.022.2v0c.009.083.018.166.029.247.03.25.07.493.113.731.006.032.014.063.022.095q.558,2.231,3.782,2.681c.1.016.209.03.314.042.045.005.091.012.138.016.095.012.191.024.288.033s.182.018.276.026c.058.007.117.01.175.016l.18.012h0c.067.007.133.011.2.014l.2.012h.046c.06,0,.125.007.185.008l.225.01h.028c.091,0,.18.007.274.008h.005c.071,0,.143,0,.212,0q.215,0,.434,0c1.063-.036,2.212-.1,3.447-.208a46.49,46.49,0,0,0,7.659-1.389q.3-.081.6-.164l.2-.058c.176-.05.352-.1.529-.157l.238-.07c.121-.037.242-.078.364-.114l.363-.117c.13-.039.255-.081.383-.125l.071-.024.387-.131c.084-.032.174-.063.259-.092l.3-.109c.075-.026.146-.054.22-.082.028-.008.055-.02.083-.03s.055-.021.083-.032c.187-.068.37-.138.551-.209l.088-.038h0l.02-.008c.2-.078.4-.16.6-.242l.345-.142.093-.041a.232.232,0,0,0,.039-.02c.074-.029.151-.063.226-.1l.222-.1c.154-.068.308-.137.458-.206l.454-.212c.02-.011.043-.02.066-.03l.055-.028c.241-.116.476-.231.7-.352Zm-18.684-14.261,1.252-1.273a13.5,13.5,0,0,1,2.046-1.7q.324-.221.66-.422s0,0,0,0h.007s0,0,0,0c.147-.088.295-.172.443-.254h0c.017-.009.032-.02.049-.028a3.283,3.283,0,0,1,.7-.234c.064-.014.13-.028.2-.037a3.278,3.278,0,0,1,.5-.038c.085,0,.171,0,.258.012l.034,0a3.106,3.106,0,0,1,.337.051c.116.022.231.051.351.087l.061.02c.053.016.1.033.153.05s.07.024.1.037l.025.009q.075.028.146.059c.018.008.038.016.057.025l.082.038.017.008a2.69,2.69,0,0,1,.3.166c.034.021.067.043.1.066a0,0,0,0,0,0,0h0l.022.016s0,0,.005,0,0,0,0,0,0,0,0,0,0,0,0,0,0,0,0,0,0,0,.007,0a0,0,0,0,1,0,0l.009.007s0,0,0,0,0,0,.007,0l.028.021.012.008h0l.021.017.014.012a.031.031,0,0,0,.009.005s0,0,0,0h0s0,0,0,0h0s0,0,0,0h0s0,0,.005,0,0,0,0,0,.005,0,.007,0v0h0l.009.008s0,0,0,0l.007.007s0,0,0,0l0,0a.068.068,0,0,1,.018.016l.016.014.012.012h0l.005,0,.005.005s0,0,0,0,0,0,0,0a.081.081,0,0,1,.02.018h.007s0,0,0,0a0,0,0,0,0,0,0h0v0s0,0,.005,0a.049.049,0,0,1,.012.012l.02.02s0,0,0,0,0,0,0,0a.05.05,0,0,1,.014.015.048.048,0,0,1,.012.012.023.023,0,0,0,.008.008s0,0,0,0h0s0,0,0,0h0a0,0,0,0,1,0,0c.017.017.033.034.049.053l0,.005a.035.035,0,0,0,.007.008c.018.022.037.045.054.067l.05.067,0,.007.032.045c.008.01.013.02.02.03h0c.017.025.034.054.05.083l.009.017q.018.034.032.063c.011.021.02.041.029.06a0,0,0,0,0,0,0c.02.041.035.08.051.118h0c.016.039.032.075.045.112s.024.066.034.1c0,0,0,.005,0,.008.011.034.02.067.028.1s.01.045.014.067a.028.028,0,0,1,0,.011c0,.013.005.026.007.039s0,.007,0,.009a.359.359,0,0,1,.008.05c0,.029,0,.057,0,.084a.509.509,0,0,1,0,.063.015.015,0,0,1,0,.011,0,0,0,0,1,0,0,.048.048,0,0,1,0,.014.019.019,0,0,1,0,.012.232.232,0,0,1-.008.043,0,0,0,0,1,0,.005,0,0,0,0,1,0,0s0,0,0,0a.087.087,0,0,1-.008.026v0s0,0,0,0,0,0,0,0a.11.11,0,0,1-.012.033.106.106,0,0,1-.016.036l0,.011a.076.076,0,0,1-.011.021.017.017,0,0,1-.005.009.109.109,0,0,1-.013.021s0,0,0,0a.2.2,0,0,1-.032.045.339.339,0,0,1-.053.054,0,0,0,0,1,0,0,.458.458,0,0,1-.062.047.548.548,0,0,1-.072.042c-.112.054-.224.108-.337.16s-.224.1-.337.154-.205.091-.309.135c-.059.026-.12.051-.18.076s-.118.051-.179.075q-.181.075-.363.146c-.124.049-.247.1-.372.142q-.523.2-1.061.368-.245.079-.493.154l-.255.075-.264.075c-.095.028-.191.054-.287.078s-.21.057-.317.083l-.421.1-.317.079q-.511.124-1.03.243c-.218.05-.437.1-.656.147l-.384.084h0q-1.211.266-2.46.5C267.432,379.033,267.949,378.513,268.468,377.989Zm-21.907-4.664a5,5,0,0,1-1.593.258,5.371,5.371,0,0,1-1.493-.206.178.178,0,0,0-.025-.008,3.238,3.238,0,0,1-2.029-1.533,1.405,1.405,0,0,1-.258-.719,1.608,1.608,0,0,1,.309-.719,9.222,9.222,0,0,1,1.54-1.492,1.939,1.939,0,0,1,1.337-.513,2.7,2.7,0,0,1,.873.157q1.079.353,1.286,2a11.5,11.5,0,0,1,.155,1.746C246.63,372.674,246.6,373.017,246.562,373.325Zm29.92,1.407a0,0,0,0,0,0,0,0,0,0,0,0,0,0,.031.031,0,0,0,.009.005A.014.014,0,0,0,276.482,374.732Zm.1.085-.012-.011.012.012h0S276.582,374.817,276.582,374.817Zm.613,1.6,0,.011a.159.159,0,0,0,.02-.046A.106.106,0,0,1,277.195,376.415Zm.029-.079v0a.078.078,0,0,0,.008-.03A.087.087,0,0,1,277.224,376.336Zm-.742-1.6a0,0,0,0,0,0,0,0,0,0,0,0,0,0,.031.031,0,0,0,.009.005A.014.014,0,0,0,276.482,374.732Zm.1.085-.012-.011.012.012h0S276.582,374.817,276.582,374.817Zm.613,1.6,0,.011a.159.159,0,0,0,.02-.046A.106.106,0,0,1,277.195,376.415Zm.029-.079v0a.078.078,0,0,0,.008-.03A.087.087,0,0,1,277.224,376.336Zm-.742-1.6a0,0,0,0,0,0,0,0,0,0,0,0,0,0,.031.031,0,0,0,.009.005A.014.014,0,0,0,276.482,374.732Zm.1.085-.012-.011.012.012h0S276.582,374.817,276.582,374.817Zm.613,1.6,0,.011a.159.159,0,0,0,.02-.046A.106.106,0,0,1,277.195,376.415Zm.029-.079v0a.078.078,0,0,0,.008-.03A.087.087,0,0,1,277.224,376.336Zm-.742-1.6a0,0,0,0,0,0,0,0,0,0,0,0,0,0,.031.031,0,0,0,.009.005A.014.014,0,0,0,276.482,374.732Zm.1.085-.012-.011.012.012h0S276.582,374.817,276.582,374.817Zm.613,1.6,0,.011a.159.159,0,0,0,.02-.046A.106.106,0,0,1,277.195,376.415Zm.029-.079v0a.078.078,0,0,0,.008-.03A.087.087,0,0,1,277.224,376.336Zm-.742-1.6a0,0,0,0,0,0,0,0,0,0,0,0,0,0,.031.031,0,0,0,.009.005A.014.014,0,0,0,276.482,374.732Zm.1.085-.012-.011.012.012h0S276.582,374.817,276.582,374.817Zm-.1-.085a0,0,0,0,0,0,0,0,0,0,0,0,0,0,.031.031,0,0,0,.009.005A.014.014,0,0,0,276.482,374.732Zm.1.085-.012-.011.012.012h0S276.582,374.817,276.582,374.817Zm-.1-.085a0,0,0,0,0,0,0,0,0,0,0,0,0,0,.031.031,0,0,0,.009.005A.014.014,0,0,0,276.482,374.732Zm.1.085-.012-.011.012.012h0S276.582,374.817,276.582,374.817Zm-.1-.085a0,0,0,0,0,0,0,0,0,0,0,0,0,0,.031.031,0,0,0,.009.005A.014.014,0,0,0,276.482,374.732Zm.1.085-.012-.011.012.012h0S276.582,374.817,276.582,374.817Zm8.133,12.859h0Zm-8.233-12.945a0,0,0,0,0,0,0,0,0,0,0,0,0,0,.031.031,0,0,0,.009.005A.014.014,0,0,0,276.482,374.732Zm.1.085-.012-.011.012.012h0S276.582,374.817,276.582,374.817Z" transform="translate(-233.525 -351.409)" fill="#e6e6e6"/>
        <g id="Group_24" data-name="Group 24">
          <g id="Group_23" data-name="Group 23">
            <g id="Group_20" data-name="Group 20">
              <path id="Path_255" data-name="Path 255" d="M285.561,254.189a63.468,63.468,0,0,0-4.216,6c-.128.128-.254.128-.509,0l-3.368-1.6-.826-.391-.124-.059-.213-.1c.859-1.26,1.723-2.433,2.58-3.506l.037-.043.026-.054a.981.981,0,0,0,.092-.262h0a.819.819,0,0,0,.014-.158.787.787,0,0,0-.152-.459v0a2.007,2.007,0,0,0-.529-.466l-.009-.007c-.121-.075-.238-.15-.355-.221,0,0,0,0,0,0q.053-.075.107-.146c.01-.014.021-.029.033-.043.024-.033.049-.066.072-.1a.039.039,0,0,1,.009-.013c.8-1.076,1.262-1.564,1.449-1.564a3.842,3.842,0,0,1,1.254.285,23.842,23.842,0,0,1,4.24,2.267C285.561,253.8,285.689,253.932,285.561,254.189Z" transform="translate(-268.234 -250.996)" fill="#e6e6e6"/>
              <path id="Path_256" data-name="Path 256" d="M285.561,254.189a63.468,63.468,0,0,0-4.216,6c-.128.128-.254.128-.509,0l-3.368-1.6-.826-.391-.124-.059-.213-.1c.859-1.26,1.723-2.433,2.58-3.506l.037-.043.026-.054a.981.981,0,0,0,.092-.262h0a.819.819,0,0,0,.014-.158.787.787,0,0,0-.152-.459v0a2.007,2.007,0,0,0-.529-.466l-.009-.007c-.121-.075-.238-.15-.355-.221,0,0,0,0,0,0q.053-.075.107-.146c.01-.014.021-.029.033-.043.024-.033.049-.066.072-.1a.039.039,0,0,1,.009-.013c.8-1.076,1.262-1.564,1.449-1.564a3.842,3.842,0,0,1,1.254.285,23.842,23.842,0,0,1,4.24,2.267C285.561,253.8,285.689,253.932,285.561,254.189Z" transform="translate(-268.234 -250.996)" fill="#e6e6e6"/>
              <path id="Path_257" data-name="Path 257" d="M293.642,276.811l-.1-.059.1.06.026.018A.13.13,0,0,0,293.642,276.811Z" transform="translate(-283.805 -274.259)" fill="#e6e6e6" opacity="0.25"/>
              <path id="Path_258" data-name="Path 258" d="M203.166,254.141c-.006.016-.014.032-.022.047l-.122.155-.2.252c-.815,1.039-1.594,2.113-2.334,3.2-.089.13-.178.262-.266.393l-.1.15c-.033.049-.067.1-.1.149-.376.566-.743,1.134-1.1,1.7-.129.128-.255.128-.512,0l-1.554-.738-.593-.281-2.961-1.406a.689.689,0,0,1-.384-.51,14.824,14.824,0,0,1,1.917-3.323c1.4-2.044,2.17-2.936,2.425-2.936a4.62,4.62,0,0,1,1.615.426c.268.11.56.243.878.4q.278.138.584.3.659.349,1.439.821h0l.15.091.06.037.387.239c.063.037.125.076.188.117l.1.061.1.059a.131.131,0,0,1,.026.02s0,0,0,0l.025.016.136.1c.025.021.05.04.074.061a.742.742,0,0,1,.072.068c.01.012.021.024.029.034s.017.024.025.034.013.025.02.037A.282.282,0,0,1,203.166,254.141Z" transform="translate(-192.925 -250.996)" fill="#e6e6e6"/>
              <path id="Path_259" data-name="Path 259" d="M203.166,254.141c-.006.016-.014.032-.022.047l-.122.155-.2.252c-.815,1.039-1.594,2.113-2.334,3.2-.089.13-.178.262-.266.393l-.1.15c-.033.049-.067.1-.1.149-.376.566-.743,1.134-1.1,1.7-.129.128-.255.128-.512,0l-1.554-.738-.593-.281-2.961-1.406a.689.689,0,0,1-.384-.51,14.824,14.824,0,0,1,1.917-3.323c1.4-2.044,2.17-2.936,2.425-2.936a4.62,4.62,0,0,1,1.615.426c.268.11.56.243.878.4q.278.138.584.3.659.349,1.439.821h0l.15.091.06.037.387.239c.063.037.125.076.188.117l.1.061.1.061.026.018s0,0,0,0l.025.016.136.1c.025.021.05.04.074.061a.742.742,0,0,1,.072.068c.01.012.021.024.029.034s.017.024.025.034.013.025.02.037A.282.282,0,0,1,203.166,254.141Z" transform="translate(-192.925 -250.996)" fill="#e6e6e6"/>
            </g>
            <g id="Group_21" data-name="Group 21" transform="translate(47.586 7.555)">
              <path id="Path_260" data-name="Path 260" d="M777.13,332.232q-.773.965-1.5,1.969c-.131.18-.26.36-.389.54-.058.083-.117.164-.175.247-.754,1.069-1.47,2.157-2.151,3.245-.129.129-.256.129-.51,0l-4.192-1.992-.124-.058-.216-.1c.86-1.26,1.723-2.433,2.583-3.5l.035-.046.026-.053a.928.928,0,0,0,.108-.421c0-.473-.442-.768-.679-.926l-.012-.005c-.118-.079-.235-.151-.352-.224h0l.138-.189.08-.109.112-.149c.117-.158.229-.3.331-.431l.074-.093c.488-.61.792-.892.936-.892.894,0,2.683.767,5.493,2.552C777.13,331.848,777.257,331.976,777.13,332.232Z" transform="translate(-759.802 -329.038)" fill="#e6e6e6"/>
              <path id="Path_261" data-name="Path 261" d="M777.13,332.232q-.773.965-1.5,1.969c-.131.18-.26.36-.389.54-.058.083-.117.164-.175.247-.754,1.069-1.47,2.157-2.151,3.245-.129.129-.256.129-.51,0l-4.192-1.992-.124-.058-.216-.1c.86-1.26,1.723-2.433,2.583-3.5l.035-.046.026-.053a.928.928,0,0,0,.108-.421c0-.473-.442-.768-.679-.926l-.012-.005c-.118-.079-.235-.151-.352-.224h0l.138-.189.08-.109.112-.149c.117-.158.229-.3.331-.431l.074-.093c.488-.61.792-.892.936-.892.894,0,2.683.767,5.493,2.552C777.13,331.848,777.257,331.976,777.13,332.232Z" transform="translate(-759.802 -329.038)" fill="#e6e6e6"/>
              <path id="Path_262" data-name="Path 262" d="M694.759,332.14a.45.45,0,0,1-.037.089q-.523.657-1.028,1.331c-.56.75-1.1,1.512-1.625,2.282-.091.132-.179.263-.267.394h0c-.067.1-.131.2-.2.295q-.566.85-1.1,1.7c-.128.128-.254.128-.509,0l-5.11-2.428a.683.683,0,0,1-.384-.509,14.824,14.824,0,0,1,1.916-3.322c1.406-2.043,2.172-2.938,2.428-2.938a4.62,4.62,0,0,1,1.614.426,23.4,23.4,0,0,1,3.055,1.616c.145.088.293.179.445.274.1.06.2.126.306.191l.075.047C694.674,331.815,694.815,331.942,694.759,332.14Z" transform="translate(-684.504 -329.038)" fill="#e6e6e6"/>
              <path id="Path_263" data-name="Path 263" d="M694.759,332.14a.45.45,0,0,1-.037.089q-.523.657-1.028,1.331c-.56.75-1.1,1.512-1.625,2.282-.091.132-.179.263-.267.394h0c-.067.1-.131.2-.2.295q-.566.85-1.1,1.7c-.128.128-.254.128-.509,0l-5.11-2.428a.683.683,0,0,1-.384-.509,14.824,14.824,0,0,1,1.916-3.322c1.406-2.043,2.172-2.938,2.428-2.938a4.62,4.62,0,0,1,1.614.426,23.4,23.4,0,0,1,3.055,1.616c.145.088.293.179.445.274.1.06.2.126.306.191l.075.047C694.674,331.815,694.815,331.942,694.759,332.14Z" transform="translate(-684.504 -329.038)" fill="#e6e6e6"/>
            </g>
            <g id="Group_22" data-name="Group 22" transform="translate(51.951 20.016)">
              <path id="Path_264" data-name="Path 264" d="M738.741,461.205c-.039-.078-.08-.157-.125-.234-.024-.043-.047-.087-.072-.13s-.065-.112-.1-.164a.11.11,0,0,0-.014-.028c-.059-.1-.118-.2-.18-.289-.032-.049-.062-.1-.093-.139s-.055-.082-.084-.122c-.1-.143-.2-.281-.31-.414-.043-.054-.084-.105-.13-.159a.163.163,0,0,0-.016-.017l-.066-.078c-.041-.047-.083-.093-.125-.141-.089-.1-.177-.192-.271-.284-.01-.005-.016-.016-.026-.025-.122-.12-.247-.231-.379-.343h0l-.107-.089c-.036-.028-.071-.058-.107-.083s-.051-.042-.078-.062-.054-.038-.079-.059c-.051-.039-.105-.078-.16-.117a1.994,1.994,0,0,0-1.184-.462,2.114,2.114,0,0,0-1.645,1.076,19.388,19.388,0,0,0-1.8,3.113q-.773,1.671-1.642,3.212a3.612,3.612,0,0,0-.363,1.644v.156a1.487,1.487,0,0,0,.771,1.387,2.975,2.975,0,0,0,1.49.413,3.531,3.531,0,0,0,1.028-.157,5.888,5.888,0,0,0,2.108-1.13.164.164,0,0,1,.155-.1.418.418,0,0,1,.047.012.01.01,0,0,1,.007,0,.252.252,0,0,1,.049.021s0,0,0,0a.368.368,0,0,1,.042.026,0,0,0,0,1,0,0,.212.212,0,0,1,.042.036s.008,0,.008.007a.481.481,0,0,1,.051.051.253.253,0,0,1,.032.033c.007.009.012.015.018.022a.453.453,0,0,0,.03.04.526.526,0,0,0,.032.043c.009.016.021.032.032.049.02.033.041.068.066.107s.049.087.072.137c.014.025.028.054.042.083.028.058.058.12.086.184.013.034.029.068.043.1s.028.07.041.108c.06.145.12.3.179.477l.368,1.1.25.748a3.974,3.974,0,0,1,.117,1.365c0,.018,0,.036,0,.054s0,.037-.005.055v.022c0,.032-.007.066-.012.1a.937.937,0,0,1-.012.1c0,.037-.008.072-.014.108-.008.054-.017.11-.026.166,0,.005,0,.011,0,.017-.009.047-.018.1-.03.146a.215.215,0,0,1-.008.038c-.009.049-.021.1-.034.147s-.03.12-.049.182c-.007.02-.013.039-.018.06s-.013.042-.02.063-.017.057-.026.085-.02.057-.03.087c-.02.058-.041.117-.065.178-.016.037-.029.075-.045.112-.029.07-.058.141-.091.212-.014.033-.03.067-.046.1-.028.058-.057.117-.087.176-.092.179-.2.36-.314.544l-.082.125c0,.005-.007.009-.009.014a.027.027,0,0,1-.008.013c-.02.03-.042.06-.064.092s-.058.082-.089.122c-.008.01-.017.021-.025.033s0,0,0,.007-.009.012-.013.018c-.026.037-.054.072-.083.11s-.042.054-.065.08h0c-.021.026-.042.054-.064.08-.046.054-.092.109-.139.163-.06.072-.125.143-.192.214-.022.024-.046.049-.07.072l-.055.059-.058.059q-.124.128-.26.252h0v0l-.08.074a.063.063,0,0,0-.017.016h0l-.064.058c-.032.029-.063.058-.1.085a.019.019,0,0,1-.005.005l-.046.041q-.045.039-.095.079c-.063.053-.129.107-.195.159-.033.028-.067.055-.1.082.1-.072.192-.145.288-.217,0,0,0,0,.005-.005.074-.055.147-.113.218-.172.037-.028.074-.058.109-.088l0,0,.107-.084c.118-.1.235-.2.35-.3.026-.022.051-.045.078-.07s.062-.055.091-.083.08-.074.117-.109c.072-.066.141-.133.21-.2s.161-.162.239-.243.147-.157.218-.234a13.025,13.025,0,0,0,1.556-2.133,17.357,17.357,0,0,0,1.837-4.654,13.349,13.349,0,0,0,.36-3.034A8.577,8.577,0,0,0,738.741,461.205Z" transform="translate(-729.591 -457.764)" fill="#e6e6e6"/>
            </g>
          </g>
          <path id="Path_265" data-name="Path 265" d="M578.274,743.474v.054l.047-.075A.309.309,0,0,0,578.274,743.474Zm10.144-5.878-.339.122q-1.6.588-3.088,1.119c-1,.358-1.937.7-2.827,1.04-.5.191-.945.362-1.333.514-.3.114-.567.22-.8.31l-.054.055-1.657,2.7q1.876-.915,4.128-1.783c.4-.153.814-.308,1.235-.46q1.594-.576,3.147-1.131,1.387-.493,2.742-.973l1.547-2.454Q589.835,737.08,588.418,737.6Z" transform="translate(-540.971 -689.639)" fill="#e6e6e6"/>
        </g>
        <path id="Path_266" data-name="Path 266" d="M718.08,593.459c0,.035,0,.072-.008.109,0,.008,0,.014,0,.022,0,.032-.006.066-.011.1s-.006.065-.012.1-.008.072-.014.108a5.272,5.272,0,0,1-.151.7l-.037.123c-.017.057-.037.114-.057.173s-.042.117-.065.177c-.015.037-.029.075-.045.112a6.268,6.268,0,0,1-.537,1.032c-.032.051-.066.1-.1.152-.055.082-.114.165-.177.248q-.049.067-.1.134c-.042.055-.085.109-.129.163s-.091.109-.139.163c-.08.1-.168.191-.26.286-.037.04-.075.08-.114.119-.083.085-.169.169-.26.253l0,0c-.052.049-.108.1-.163.148s-.1.088-.148.131c-.123.106-.254.212-.39.319a19.021,19.021,0,0,1-2.5,1.534l-.112.054c-.037.018-.074.035-.111.052-.111.052-.217.1-.32.145q-.076.035-.152.065l-.148.062c-.171.068-.333.128-.485.177-.092.031-.183.059-.27.083l-.011,0-.089.025a4.067,4.067,0,0,1-.427.089l-.058.009-.062.008q-.081.009-.157.014a1.252,1.252,0,0,1-.128.006.251.251,0,0,1-.048,0h-.014a.874.874,0,0,1-.092,0,.289.289,0,0,1-.051,0,.467.467,0,0,1-.049-.006c-.02,0-.039,0-.059-.008l-.054-.009a.772.772,0,0,1-.12-.029.459.459,0,0,1-.066-.022c-.026-.009-.051-.018-.076-.029s-.048-.023-.071-.035-.045-.025-.066-.039a.544.544,0,0,1-.062-.042.837.837,0,0,1-.109-.1.6.6,0,0,1-.049-.055c-.02-.025-.038-.051-.057-.077s-.018-.029-.026-.043-.031-.054-.045-.082-.026-.059-.039-.088a.8.8,0,0,1-.032-.092.005.005,0,0,1,0,0c-.009-.029-.017-.06-.025-.093s-.011-.048-.015-.072-.011-.055-.015-.085l-.009-.072a.056.056,0,0,1,0-.017c0-.028-.006-.057-.008-.086s0-.04,0-.06a10.771,10.771,0,0,1,1.244-4.059l.017,0q1.725-.469,3.337-1.007c.159-.052.314-.106.465-.159v0c.163-.057.323-.114.479-.172l.179-.068c.111-.043.22-.085.328-.128l.017-.008c.055-.021.112-.045.166-.068l.132-.055c.065-.026.129-.054.193-.082q.633-.273,1.153-.557l.128-.071a7.945,7.945,0,0,0,.933-.6c.052-.04.1-.078.152-.119s.118-.1.174-.148A4.028,4.028,0,0,1,718.08,593.459Z" transform="translate(-658.919 -559.074)" fill="#e6e6e6"/>
        <path id="Path_267" data-name="Path 267" d="M750.572,656.489A14.167,14.167,0,0,1,748.109,658a.423.423,0,0,1-.038.018A19.017,19.017,0,0,0,750.572,656.489Z" transform="translate(-694.331 -617.236)" fill="url(#linear-gradient)"/>
        <path id="Path_268" data-name="Path 268" d="M718.08,593.459c0,.035,0,.072-.008.109,0,.008,0,.014,0,.022,0,.032-.006.066-.011.1s-.006.065-.012.1-.008.072-.014.108a5.272,5.272,0,0,1-.151.7l-.037.123c-.017.057-.037.114-.057.173s-.042.117-.065.177c-.015.037-.029.075-.045.112a6.268,6.268,0,0,1-.537,1.032c-.032.051-.066.1-.1.152-.055.082-.114.165-.177.248q-.049.067-.1.134c-.042.055-.085.109-.129.163s-.091.109-.139.163c-.08.1-.168.191-.26.286-.037.04-.075.08-.114.119-.083.085-.169.169-.26.253l0,0c-.052.049-.108.1-.163.148s-.1.088-.148.131c-.123.106-.254.212-.39.319a19.021,19.021,0,0,1-2.5,1.534l-.112.054c-.037.018-.074.035-.111.052-.111.052-.217.1-.32.145q-.076.035-.152.065l-.148.062c-.171.068-.333.128-.485.177-.092.031-.183.059-.27.083l-.011,0-.089.025a4.067,4.067,0,0,1-.427.089l-.058.009-.062.008q-.081.009-.157.014a1.252,1.252,0,0,1-.128.006.251.251,0,0,1-.048,0h-.014a.874.874,0,0,1-.092,0,.289.289,0,0,1-.051,0,.467.467,0,0,1-.049-.006c-.02,0-.039,0-.059-.008l-.054-.009a.772.772,0,0,1-.12-.029.459.459,0,0,1-.066-.022c-.026-.009-.051-.018-.076-.029s-.048-.023-.071-.035-.045-.025-.066-.039a.544.544,0,0,1-.062-.042.837.837,0,0,1-.109-.1.6.6,0,0,1-.049-.055c-.02-.025-.038-.051-.057-.077s-.018-.029-.026-.043-.031-.054-.045-.082-.026-.059-.039-.088a.8.8,0,0,1-.032-.092.005.005,0,0,1,0,0c-.009-.029-.017-.06-.025-.093s-.011-.048-.015-.072-.011-.055-.015-.085l-.009-.072a.056.056,0,0,1,0-.017c0-.028-.006-.057-.008-.086s0-.04,0-.06a10.771,10.771,0,0,1,1.244-4.059l.017,0q1.725-.469,3.337-1.007c.159-.052.314-.106.465-.159v0c.163-.057.323-.114.479-.172l.179-.068c.111-.043.22-.085.328-.128l.017-.008c.055-.021.112-.045.166-.068l.132-.055c.065-.026.129-.054.193-.082q.633-.273,1.153-.557l.128-.071a7.945,7.945,0,0,0,.933-.6c.052-.04.1-.078.152-.119s.118-.1.174-.148A4.028,4.028,0,0,1,718.08,593.459Z" transform="translate(-658.919 -559.074)" opacity="0.75" fill="url(#linear-gradient-2)"/>
        <path id="Path_269" data-name="Path 269" d="M521.337,615.047c0-.022-.007-.045-.009-.07,0,.021.005.041.009.06s0,.01,0,.016A.053.053,0,0,0,521.337,615.047Z" transform="translate(-489.538 -579.743)" opacity="0.75" fill="url(#linear-gradient-3)"/>
        <path id="Path_270" data-name="Path 270" d="M522,618.431c0-.005,0-.011,0-.017,0,.012.007.024.011.035C522,618.444,522,618.438,522,618.431Z" transform="translate(-490.139 -582.847)" opacity="0.75" fill="url(#linear-gradient-4)"/>
        <path id="Path_271" data-name="Path 271" d="M481.179,608.683h0c-.592,3.841-2.689,4.424-4.4,4.207-.138-.017-.275-.041-.408-.067-.01-.081-.02-.164-.029-.247v0c-.008-.067-.016-.135-.022-.2s-.009-.116-.013-.175c-.011-.128-.02-.256-.028-.388,0-.176.005-.355.017-.535,0-.037,0-.074.008-.11q.026-.367.083-.743c.013-.084.028-.17.042-.254s.028-.151.043-.227c.022-.117.047-.235.075-.354.016-.067.033-.135.05-.2.053-.213.112-.427.179-.643.022-.072.045-.146.068-.218.033-.111.066-.22.1-.33.029-.091.057-.182.087-.272.024-.072.047-.146.072-.218q.081-.245.17-.489c.051-.141.1-.281.159-.421l.079-.2c.016-.042.032-.084.049-.126.043-.112.088-.222.135-.333s.092-.221.141-.331h0l2.015-.352h0c0,.032-.005.06-.008.091s-.005.059-.007.089v0c-.008.112-.012.221-.012.323,0,.15.008.293.021.43.007.063.014.125.025.185,0,.022.007.045.011.064s0,.009,0,.013a.015.015,0,0,0,0,.014.9.9,0,0,0,.022.12.347.347,0,0,0,.012.045c.005.025.01.05.017.075s.015.047.021.071v0a0,0,0,0,1,0,0c.005.016.009.03.016.045a1.566,1.566,0,0,0,.066.183.889.889,0,0,0,.042.1s0,0,0,0a.493.493,0,0,0,.025.053c.022.047.047.093.074.141.063.118.131.231.2.341.037.054.075.106.113.159s.079.1.121.152.068.082.105.121a.527.527,0,0,0,.038.041c.03.033.062.066.093.1s.092.089.139.13a.5.5,0,0,0,.058.051.062.062,0,0,0,.009.009C481.105,608.624,481.142,608.654,481.179,608.683Z" transform="translate(-448.852 -571.129)" opacity="0.75" fill="url(#linear-gradient-5)"/>
        <path id="Path_272" data-name="Path 272" d="M637.726,492.823l-.006,0h0Z" transform="translate(-594.663 -469.409)" fill="url(#linear-gradient-6)"/>
        <path id="Path_273" data-name="Path 273" d="M594.833,490.41l-.009,0" transform="translate(-555.919 -467.234)" fill="url(#linear-gradient-7)"/>
        <path id="Path_274" data-name="Path 274" d="M618.037,484.6a3.689,3.689,0,0,0-.687-.139,3.424,3.424,0,0,1,1.231.337A4.252,4.252,0,0,0,618.037,484.6Z" transform="translate(-576.265 -461.86)" fill="url(#linear-gradient-8)"/>
        <path id="Path_275" data-name="Path 275" d="M640.362,495.681c-.032-.052-.068-.1-.1-.149C640.294,495.58,640.329,495.629,640.362,495.681Z" transform="translate(-596.954 -471.86)" fill="url(#linear-gradient-9)"/>
        <path id="Path_276" data-name="Path 276" d="M569.894,504.767q-.08.05-.16.1l0,0q-.43.244-.8.457-.35.192-.706.376a.077.077,0,0,1-.017.008q-.839.434-1.714.815c-.14.061-.28.122-.422.181-.657-.532-2.15-2.179-.306-5.109q.519-.119,1.03-.244l.317-.078.421-.105a24.543,24.543,0,0,0,4.754-1.72.532.532,0,0,0,.308-.515,2,2,0,0,0-.256-.823C573.369,499.911,572.025,503.418,569.894,504.767Z" transform="translate(-528.875 -474.187)" opacity="0.5" fill="url(#linear-gradient-10)"/>
        <path id="Path_277" data-name="Path 277" d="M446.465,337.845q-.048.8-.165,2.008a11.05,11.05,0,0,1-.466,2.31,3.886,3.886,0,0,1-1,1.705,1.4,1.4,0,0,1-1.027.421,2.525,2.525,0,0,1-.794-.14,2.7,2.7,0,0,1-.817-.654,4.162,4.162,0,0,1-.491-.747,1.9,1.9,0,0,1-.326.84,3,3,0,0,1-.678.724,4.275,4.275,0,0,1-.765.466l-.081.038-.018.009a2.989,2.989,0,0,1-.887.258,1.891,1.891,0,0,1-1.565-.678,2.7,2.7,0,0,1-.489-1.423v-.373a6.142,6.142,0,0,1,.14-1.307c.108-.482.213-.905.32-1.272l.006-.02c0-.018.011-.037.017-.055a.068.068,0,0,1,.006-.017l.043-.123.041-.111.059-.169.014-.04a4.4,4.4,0,0,1,.194-.434c.125-.248.28-.373.468-.373v.046a2.731,2.731,0,0,1-.047.373,4.689,4.689,0,0,0-.14.794,5.094,5.094,0,0,0-.046.7v.233a1.435,1.435,0,0,0,.233.817,1.238,1.238,0,0,0,.747.491h.347a2.8,2.8,0,0,0,.462-.049,5.376,5.376,0,0,0,.546-.137,1.321,1.321,0,0,0,.677-.445,2.461,2.461,0,0,0,.382-.59v0c.024-.053.049-.107.069-.161.006-.014.011-.026.015-.04.11-.3.21-.6.3-.911a2.858,2.858,0,0,0,.14-.794l.7-.7v.047a.2.2,0,0,1-.023.093.2.2,0,0,0-.023.094v.559a4.679,4.679,0,0,0,.046.654,1.4,1.4,0,0,0,.468.981,1.515,1.515,0,0,0,1.027.606h.093a1.133,1.133,0,0,0,.841-.491,3.424,3.424,0,0,0,.513-1.1,4.72,4.72,0,0,0,.093-.934v-.186Z" transform="translate(-413.275 -329.438)" fill="#e6e6e6"/>
      </g>
    </g>
  </g>
</svg>
