<svg xmlns="http://www.w3.org/2000/svg" xmlns:xlink="http://www.w3.org/1999/xlink" width="146.232" height="121.307" viewBox="0 0 146.232 121.307">
  <defs>
    <linearGradient id="linear-gradient" x1="0.925" y1="0.5" x2="0.293" y2="0.5" gradientUnits="objectBoundingBox">
      <stop offset="0"/>
      <stop offset="1" stop-color="#0c0e13"/>
    </linearGradient>
    <linearGradient id="linear-gradient-2" x1="0.005" y1="0.252" x2="0.835" y2="0.794" xlink:href="#linear-gradient"/>
    <linearGradient id="linear-gradient-3" x1="0.281" y1="0.253" x2="0.758" y2="0.687" gradientUnits="objectBoundingBox">
      <stop offset="0" stop-color="#0c0e13" stop-opacity="0"/>
      <stop offset="1"/>
    </linearGradient>
  </defs>
  <g id="Group_81" data-name="Group 81" transform="translate(-267.916 -225.318)">
    <g id="Group_66" data-name="Group 66" transform="translate(267.916 225.318)">
      <g id="Group_65" data-name="Group 65">
        <path id="Path_462" data-name="Path 462" d="M391.5,343.938v0h0v0Zm-.026-.026.026.026v0Zm-.2-.168s0,0,0,0a0,0,0,0,0,0,0,.05.05,0,0,0,.022.011A.066.066,0,0,0,391.274,343.744Zm18.533,29.139v0h0v0ZM391.5,343.938v0h0v0Zm-.026-.026.026.026v0Zm-.2-.168s0,0,0,0a0,0,0,0,0,0,0,.05.05,0,0,0,.022.011A.066.066,0,0,0,391.274,343.744Zm.224.194v0h0v0Zm-.026-.026.026.026v0Zm-.2-.168s0,0,0,0a0,0,0,0,0,0,0,.05.05,0,0,0,.022.011A.066.066,0,0,0,391.274,343.744Zm.224.194v0h0v0Zm-.026-.026.026.026v0Zm-.2-.168s0,0,0,0a0,0,0,0,0,0,0,.05.05,0,0,0,.022.011A.066.066,0,0,0,391.274,343.744Zm.224.194v0h0v0Zm-.026-.026.026.026v0Zm-.2-.168s0,0,0,0a0,0,0,0,0,0,0,.05.05,0,0,0,.022.011A.066.066,0,0,0,391.274,343.744Zm1.669,3.611v.009s0,0,0,0a.043.043,0,0,0,.007-.022s0,0,0,0A.07.07,0,0,1,392.943,347.355Zm-.065.179c0,.009-.007.015-.009.024a.2.2,0,0,0,.026-.052.031.031,0,0,0,0-.013A.443.443,0,0,1,392.878,347.533Zm-1.379-3.6v0h0v0Zm-.026-.026.026.026v0Zm-.2-.168s0,0,0,0a0,0,0,0,0,0,0,.05.05,0,0,0,.022.011A.066.066,0,0,0,391.274,343.744Zm1.669,3.611v.009s0,0,0,0a.043.043,0,0,0,.007-.022s0,0,0,0A.07.07,0,0,1,392.943,347.355Zm-.065.179c0,.009-.007.015-.009.024a.2.2,0,0,0,.026-.052.031.031,0,0,0,0-.013A.443.443,0,0,1,392.878,347.533Zm-1.379-3.6v0h0v0Zm-.026-.026.026.026v0Zm-.2-.168s0,0,0,0a0,0,0,0,0,0,0,.05.05,0,0,0,.022.011A.066.066,0,0,0,391.274,343.744Zm1.669,3.611v.009s0,0,0,0a.043.043,0,0,0,.007-.022s0,0,0,0A.07.07,0,0,1,392.943,347.355Zm-.065.179c0,.009-.007.015-.009.024a.2.2,0,0,0,.026-.052.031.031,0,0,0,0-.013A.443.443,0,0,1,392.878,347.533Zm-1.379-3.6v0h0v0Zm-.026-.026.026.026v0Zm-.2-.168s0,0,0,0a0,0,0,0,0,0,0,.05.05,0,0,0,.022.011A.066.066,0,0,0,391.274,343.744Zm1.669,3.611v.009s0,0,0,0a.043.043,0,0,0,.007-.022s0,0,0,0A.07.07,0,0,1,392.943,347.355Zm-.065.179c0,.009-.007.015-.009.024a.2.2,0,0,0,.026-.052.031.031,0,0,0,0-.013A.443.443,0,0,1,392.878,347.533Zm-1.379-3.6v0h0v0Zm-.026-.026.026.026v0Zm-.2-.168s0,0,0,0a0,0,0,0,0,0,0,.05.05,0,0,0,.022.011A.066.066,0,0,0,391.274,343.744Zm.224.194v0h0v0Zm-33.909,31.47c-.052.166-.1.329-.15.492.05-.163.1-.329.152-.492.074-.249.148-.495.227-.743C357.738,374.913,357.664,375.159,357.589,375.408Zm33.909-31.47v0h0v0Zm11.113-11.811a7.473,7.473,0,0,0-6.019-2.772,13.874,13.874,0,0,0-2.43.229q-5.442,1.15-8.106,3.587-5.553,5.21-10.754,10.762c-1.6,1.7-3.181,3.428-4.724,5.164q-2.732,3.053-5.35,6.175a60.311,60.311,0,0,1-7.171,1.042l-.116-.117c1.619-3.624,2.735-6.367,3.353-8.211a4.834,4.834,0,0,0,.116-1.395c0-.379-.046-.575-.116-.575-.155,0-.311.116-.46.344a11.965,11.965,0,0,1-4.979,5.674q-4.191,2.34-20.235,3.776l.107-.192-2.088-30.433c0-.756-.035-1.471-.1-2.14q-.549-5.642-4.184-7.117a5.319,5.319,0,0,0-2.2-.462,7.892,7.892,0,0,0-3.617.985,18.327,18.327,0,0,0-4.132,3.064,35.451,35.451,0,0,0-4.8,5.96,85.15,85.15,0,0,0-5.905,9.9,45.822,45.822,0,0,0-3.875,10.176,11.037,11.037,0,0,0-.457,3.007,7.289,7.289,0,0,0,.061,1,5.014,5.014,0,0,0,1.56,3.168,10.7,10.7,0,0,0,7.4,3.245,8.372,8.372,0,0,0,1.013-.059c.174-.017.342-.035.517-.065a9.72,9.72,0,0,0,1.475-.34,18.245,18.245,0,0,0,8.773-5.245l.484-.538.983,14.2.355,5.247a2.524,2.524,0,0,0,.024.3c.07.628.355,2,1.587,1.92a.936.936,0,0,0,.107-.009c2.173-.255,4.628-.63,7.37-1.1q1.419-.248,2.948-.536a61.557,61.557,0,0,0,11.277-3.009,5.2,5.2,0,0,0-.116,1.037c0,1.085.769,1.7,2.314,1.85a17.7,17.7,0,0,0,2.2.122,26.271,26.271,0,0,0,2.728-.15c.113-.013.229-.022.345-.035.649-.07,1.316-.168,2.011-.283h.037v0l4.535-.793h0c.578-.116,1.153-.242,1.732-.381l.3-.067q1.056-.255,2.136-.545c2.97-.813,5.267-1.445,6.886-1.913.36-.131.717-.264,1.072-.4.619-.235,1.227-.479,1.831-.734-1.48-1.2-4.838-4.905-.688-11.5-.49.111-.983.225-1.477.331-.286.065-.573.126-.863.19h0q-2.726.6-5.537,1.124c1.157-1.155,2.321-2.327,3.489-3.5q1.4-1.422,2.82-2.866a30.293,30.293,0,0,1,4.6-3.833q.729-.5,1.486-.95s.007,0,.007,0v0s0,0,.009,0,0,0,.006,0a.008.008,0,0,0,.007,0q.5-.3,1-.571h0a1.1,1.1,0,0,1,.109-.063,7.362,7.362,0,0,1,1.567-.527c.144-.033.292-.061.44-.083a7.34,7.34,0,0,1,1.116-.085c.192,0,.386.009.58.026.024,0,.052.007.076.007l.028,0h0c.05.006.1.011.155.02a8.008,8.008,0,0,1,.963.181c.131.033.264.068.4.107l.137.046q.212.062.412.137c.059.02.118.039.172.061a.456.456,0,0,1,.046.017c.113.041.222.085.329.133l.063.026.026.013a.252.252,0,0,1,.037.017c.059.026.118.057.183.085a.21.21,0,0,0,.039.017,5.812,5.812,0,0,1,.671.375c.078.046.153.1.227.148,0,0,0,0,0,0v0c.015.013.033.024.05.037s.009,0,.013.009h0s.006,0,.006,0,0,0,0,0a.008.008,0,0,1,.007,0c.006,0,.009,0,.015.009s0,0,0,0a.066.066,0,0,1,.022.015s0,0,0,0,.009,0,.015.009c.022.015.041.033.063.048a.211.211,0,0,0,.026.018v0h0v0a.576.576,0,0,1,.048.039l.033.026a.05.05,0,0,0,.022.011s0,0,0,.006h0v0h0v0s.007,0,.007,0l0,0c.007,0,.009.006.011.011a.018.018,0,0,1,.011.009.018.018,0,0,1,.013.009v0h0l.02.02s0,0,0,0l.013.013s0,0,0,0a.014.014,0,0,0,0,.006.169.169,0,0,1,.041.035.457.457,0,0,0,.037.033l.026.026v0h0a.008.008,0,0,1,0,0s0,0,.006.006h0l.011.011s0,0,0,0a.015.015,0,0,0,0,.009.209.209,0,0,1,.046.041h0v0h0v0s0,0,.007,0v0l0,0s0,0,.007,0a.011.011,0,0,0,0,.007h0v0h.006v.006s.009,0,.011.009a.143.143,0,0,1,.026.026l.046.046s.009.006.009.009l0,0a.155.155,0,0,1,.033.033.15.15,0,0,1,.026.026.076.076,0,0,0,.017.02s0,0,0,0l.006,0s0,0,0,0l.007,0a.009.009,0,0,1,0,.006,1.425,1.425,0,0,1,.109.118s.006.009.009.011l.015.02c.041.05.083.1.122.15l.057.076c.017.024.037.048.057.074a.11.11,0,0,0,.009.015c.024.033.046.065.07.1s.031.046.046.067v0c.037.057.076.12.111.185.006.013.015.029.022.039s.026.05.037.074c-.011-.024-.022-.05-.035-.074,2.308,4.057-.717,11.955-5.515,14.99.471-.284.939-.573,1.4-.874a39.275,39.275,0,0,0,4.8-3.6s0,0,0,0q.713-.624,1.386-1.281a36.678,36.678,0,0,0,3.829-4.371,50.556,50.556,0,0,0,5.439-8.679,8.949,8.949,0,0,0,.928-3.82A7.572,7.572,0,0,0,402.611,332.127Zm-78.691,8.448a11.243,11.243,0,0,1-3.585.582,12.074,12.074,0,0,1-3.36-.466c-.017,0-.037-.013-.057-.018a7.289,7.289,0,0,1-4.567-3.452,3.155,3.155,0,0,1-.58-1.619,3.622,3.622,0,0,1,.695-1.619,20.882,20.882,0,0,1,3.467-3.36,4.363,4.363,0,0,1,3.011-1.155,6.089,6.089,0,0,1,1.965.353c1.619.53,2.582,2.038,2.894,4.509a25.784,25.784,0,0,1,.349,3.931C324.075,339.111,324,339.884,323.921,340.575Zm69.031,6.757a.07.07,0,0,1-.009.022v.009s0,0,0,0a.043.043,0,0,0,.007-.022S392.954,347.335,392.951,347.333Zm-.028.1a.106.106,0,0,1-.011.024.14.14,0,0,1-.013.039.443.443,0,0,1-.022.042c0,.009-.007.015-.009.024a.126.126,0,0,1-.011.024c.013-.024.026-.05.037-.076A.458.458,0,0,0,392.923,347.428Zm-.083.185a.259.259,0,0,0,.018-.033.191.191,0,0,0-.013.022S392.843,347.609,392.84,347.614Zm-.039.061c-.006.013-.013.024-.02.035l.046-.072c-.009.013-.015.024-.024.035S392.8,347.675,392.8,347.675Zm-3.181,1.641c.092-.037.183-.074.273-.116l-.2.085Zm-.658.27c.135-.052.27-.109.405-.166l-.081.033C389.177,349.5,389.068,349.542,388.962,349.586Zm-4.073,11.662c.033-.02.067-.037.1-.057.292-.157.573-.318.858-.486.07-.037.14-.081.2-.116.024-.015.041-.026.063-.041.093-.055.189-.107.281-.163.05-.031.1-.057.148-.085l0,0s0,0-.006,0Q385.655,360.8,384.889,361.248Zm-2.316,1.225c.078-.039.155-.078.231-.116l.322-.163c.009,0,.013,0,.017-.009s-.011,0-.017.006C382.943,362.288,382.758,362.381,382.573,362.473Zm-2.31-10.165.4-.1.676-.17c-.227.057-.453.113-.678.168Zm-.1,11.323.083-.039c-.176.081-.353.161-.529.238C379.866,363.763,380.014,363.7,380.162,363.63Zm-1.17.519.275-.12c-.2.089-.408.177-.612.264Zm36.425,18.969h0l-.124.061c-.033.017-.068.033-.1.048l-.124.059-.022.009q-.186.088-.366.17c-.081.039-.161.074-.24.107-.037.017-.074.033-.111.048h0c-.115.055-.229.1-.344.146-.017.006-.035.015-.05.022v0c-.041.015-.081.033-.118.048-.057.022-.111.044-.166.067-.336.133-.658.255-.963.355l-.131.041c-.041.015-.083.028-.124.041-.164.055-.325.1-.479.148,0,0-.011,0-.013,0a.008.008,0,0,0-.006,0s0,0,0,0l-.052.013-.05.013-.1.026-.113.031q-.262.065-.5.111c-.052.011-.1.017-.155.028l-.192.028-.063.013a.543.543,0,0,1-.059.009.012.012,0,0,1-.009,0,1.091,1.091,0,0,1-.137.017c-.122.015-.24.024-.355.033l-.1.007-.05,0c-.024,0-.048,0-.07,0s-.048,0-.072,0a.3.3,0,0,1-.107,0h-.03l-.109,0-.1-.007a.494.494,0,0,1-.113-.009.771.771,0,0,1-.111-.013c-.039,0-.074-.009-.113-.015a.063.063,0,0,1-.02,0,.018.018,0,0,0-.015,0l-.015,0-.044-.006a.094.094,0,0,0-.024,0,.085.085,0,0,0-.022,0l-.076-.018-.063-.013-.024-.006c-.035-.007-.072-.018-.109-.029a1.2,1.2,0,0,1-.148-.05,1.643,1.643,0,0,1-.168-.066l0,0a1.148,1.148,0,0,1-.135-.067.11.11,0,0,1-.024-.011l-.026-.015-.061-.035c-.022-.011-.041-.022-.063-.035s-.046-.03-.07-.046-.044-.033-.067-.05a1.8,1.8,0,0,1-.246-.222,1.249,1.249,0,0,1-.111-.124c-.044-.057-.085-.116-.126-.174l-.017-.024a.085.085,0,0,1-.015-.024.5.5,0,0,1-.026-.046v0c-.018-.028-.035-.059-.052-.089s-.028-.052-.041-.078c0,0,0,0,0-.006a.009.009,0,0,1,0-.007c-.009-.017-.017-.035-.024-.05s-.015-.035-.022-.05c-.013-.032-.026-.065-.041-.1-.017-.048-.035-.094-.054-.144l-.007-.026a.124.124,0,0,1-.015-.039v-.006c-.011-.033-.02-.066-.031-.1s-.017-.07-.026-.107-.017-.081-.026-.122a.289.289,0,0,0-.011-.041.71.71,0,0,1-.015-.094.387.387,0,0,1-.009-.05.159.159,0,0,1-.007-.046.235.235,0,0,0-.006-.041c0-.029-.006-.055-.011-.081a.109.109,0,0,0,0-.026.05.05,0,0,1,0-.017v-.015a.07.07,0,0,1,0-.022c-.006-.061-.013-.126-.017-.194,0-.044-.006-.09-.006-.135-.009-.2-.007-.414,0-.63v-.011a.034.034,0,0,1,0-.013c0-.05,0-.1.006-.148s.009-.1.013-.153c0-.03.006-.067.009-.1.011-.109.024-.218.039-.327.006-.046.011-.092.02-.14v0a.028.028,0,0,1,0-.013l.02-.128c.007-.044.013-.089.022-.135s.015-.092.024-.137c.039-.216.083-.434.133-.651.013-.046.024-.094.035-.142s.024-.1.037-.155.026-.1.039-.153l.039-.157c.015-.05.028-.1.044-.155s.031-.113.046-.172c.006-.02.011-.039.017-.059.022-.076.046-.155.07-.231.009-.035.02-.067.03-.1.015-.056.033-.113.05-.168.026-.083.052-.165.078-.246s.052-.163.081-.244c.009-.02.015-.042.022-.061.041-.122.083-.242.124-.362l0,0c.048-.139.1-.277.15-.412s.1-.27.152-.4.1-.261.15-.388a0,0,0,0,1,0,0c.065-.161.131-.32.194-.475.006-.015.013-.031.02-.044.013-.037.028-.072.044-.109a.1.1,0,0,1,.011-.022c.017-.044.035-.087.055-.129.36-.837.682-1.5.863-1.863.011-.022.02-.041.031-.061l.013-.026c.007-.013.015-.026.02-.037s.013-.024.02-.037a.149.149,0,0,1,.015-.03c0-.011.009-.02.013-.029s.015-.03.022-.041a.178.178,0,0,0,.017-.033h0c-.75.2-1.5.4-2.266.6h0q-2.641.68-5.4,1.286-8.1,1.8-15.737,2.717a72.69,72.69,0,0,1-9.6.811,19.206,19.206,0,0,0-1.965-.113,14.483,14.483,0,0,1-5.866-1.371,8.932,8.932,0,0,1-1.623-1.033v0h0v0c-1.332,8.647-6.054,9.958-9.9,9.47-.31-.039-.617-.091-.917-.15.07.562.157,1.109.255,1.645.015.072.032.142.05.214q1.258,5.021,8.514,6.036c.233.035.471.068.708.094.1.013.2.026.31.035.213.028.429.055.649.074.2.02.408.041.621.061.131.013.264.022.395.035l.405.026h.007c.15.015.3.024.449.033l.46.026a.8.8,0,0,0,.1,0c.137,0,.281.013.418.017.165.009.333.017.505.024a.563.563,0,0,0,.063,0c.2.006.405.015.615.017h.013c.159.006.322.006.475.009.323.007.65.009.978.009q3.586-.118,7.758-.467a104.684,104.684,0,0,0,17.241-3.127q.683-.183,1.357-.37l.453-.129c.4-.113.793-.229,1.19-.353.178-.05.355-.1.536-.157.272-.083.545-.174.819-.257s.549-.174.817-.264c.294-.089.575-.183.863-.281l.159-.055c.29-.1.58-.194.87-.3.189-.07.392-.142.584-.207.227-.078.458-.166.684-.244.168-.061.327-.122.495-.185.061-.017.124-.044.185-.067s.124-.048.187-.07c.421-.155.83-.312,1.24-.471.066-.031.133-.057.2-.087h0l.046-.017c.455-.174.9-.362,1.347-.545.264-.107.517-.214.776-.32.074-.033.137-.059.209-.092a.488.488,0,0,0,.089-.044c.166-.066.34-.142.508-.216l.5-.22c.346-.153.693-.307,1.031-.464s.678-.316,1.02-.477c.046-.024.1-.044.148-.067l.124-.063c.543-.259,1.072-.521,1.588-.793C415.5,383.076,415.459,383.1,415.418,383.117Zm-23.92-39.18v0h0v0Zm-.224-.194s0,0,0,0a0,0,0,0,0,0,0,.05.05,0,0,0,.022.011A.066.066,0,0,0,391.274,343.744Zm.07.059v0h0Zm.155.135v0h0v0Zm-.026-.026.026.026v0Zm1.405,3.622c0,.009-.007.015-.009.024a.2.2,0,0,0,.026-.052.031.031,0,0,0,0-.013A.443.443,0,0,1,392.878,347.533Zm.065-.179v.009s0,0,0,0a.043.043,0,0,0,.007-.022s0,0,0,0A.07.07,0,0,1,392.943,347.355Zm-1.669-3.611s0,0,0,0a0,0,0,0,0,0,0,.05.05,0,0,0,.022.011A.066.066,0,0,0,391.274,343.744Zm.224.194v0h0v0Zm-.026-.026.026.026v0Zm1.405,3.622c0,.009-.007.015-.009.024a.2.2,0,0,0,.026-.052.031.031,0,0,0,0-.013A.443.443,0,0,1,392.878,347.533Zm.065-.179v.009s0,0,0,0a.043.043,0,0,0,.007-.022s0,0,0,0A.07.07,0,0,1,392.943,347.355Zm-1.669-3.611s0,0,0,0a0,0,0,0,0,0,0,.05.05,0,0,0,.022.011A.066.066,0,0,0,391.274,343.744Zm.224.194v0h0v0Zm-.026-.026.026.026v0Zm1.405,3.622c0,.009-.007.015-.009.024a.2.2,0,0,0,.026-.052.031.031,0,0,0,0-.013A.443.443,0,0,1,392.878,347.533Zm.065-.179v.009s0,0,0,0a.043.043,0,0,0,.007-.022s0,0,0,0A.07.07,0,0,1,392.943,347.355Zm-1.669-3.611s0,0,0,0a0,0,0,0,0,0,0,.05.05,0,0,0,.022.011A.066.066,0,0,0,391.274,343.744Zm.224.194v0h0v0Zm-.026-.026.026.026v0Zm1.405,3.622c0,.009-.007.015-.009.024a.2.2,0,0,0,.026-.052.031.031,0,0,0,0-.013A.443.443,0,0,1,392.878,347.533Zm.065-.179v.009s0,0,0,0a.043.043,0,0,0,.007-.022s0,0,0,0A.07.07,0,0,1,392.943,347.355Zm-1.669-3.611s0,0,0,0a0,0,0,0,0,0,0,.05.05,0,0,0,.022.011A.066.066,0,0,0,391.274,343.744Zm.224.194v0h0v0Zm-.026-.026.026.026v0Zm1.405,3.622c0,.009-.007.015-.009.024a.2.2,0,0,0,.026-.052.031.031,0,0,0,0-.013A.443.443,0,0,1,392.878,347.533Zm.065-.179v.009s0,0,0,0a.043.043,0,0,0,.007-.022s0,0,0,0A.07.07,0,0,1,392.943,347.355Zm-1.669-3.611s0,0,0,0a0,0,0,0,0,0,0,.05.05,0,0,0,.022.011A.066.066,0,0,0,391.274,343.744Zm.224.194v0h0v0Zm-.026-.026.026.026v0Zm-.2-.168s0,0,0,0a0,0,0,0,0,0,0,.05.05,0,0,0,.022.011A.066.066,0,0,0,391.274,343.744Zm.224.194v0h0v0Zm-.026-.026.026.026v0Zm-.2-.168s0,0,0,0a0,0,0,0,0,0,0,.05.05,0,0,0,.022.011A.066.066,0,0,0,391.274,343.744Zm.224.194v0h0v0Zm-.026-.026.026.026v0Zm-.2-.168s0,0,0,0a0,0,0,0,0,0,0,.05.05,0,0,0,.022.011A.066.066,0,0,0,391.274,343.744Zm.224.194v0h0v0Zm-.026-.026.026.026v0Z" transform="translate(-294.574 -291.242)" fill="#0c0e13"/>
        <g id="Group_64" data-name="Group 64">
          <g id="Group_63" data-name="Group 63">
            <g id="Group_60" data-name="Group 60">
              <path id="Path_463" data-name="Path 463" d="M356.363,232.505a142.823,142.823,0,0,0-9.49,13.51c-.287.287-.571.287-1.146,0l-7.581-3.6-1.859-.879-.278-.133-.479-.228c1.933-2.836,3.878-5.476,5.808-7.892l.083-.1.059-.121a2.2,2.2,0,0,0,.207-.589l.006,0a1.847,1.847,0,0,0,.033-.355,1.773,1.773,0,0,0-.343-1.033v-.006a4.524,4.524,0,0,0-1.19-1.048l-.021-.015c-.272-.169-.536-.338-.8-.5a0,0,0,0,0,0,0q.12-.169.24-.329c.024-.032.048-.065.074-.1.053-.074.109-.148.163-.219a.091.091,0,0,1,.021-.03c1.791-2.422,2.842-3.52,3.262-3.52a8.648,8.648,0,0,1,2.824.643,53.652,53.652,0,0,1,9.544,5.1C356.363,231.641,356.65,231.928,356.363,232.505Z" transform="translate(-317.36 -225.318)" fill="#0c0e13"/>
              <path id="Path_464" data-name="Path 464" d="M356.363,232.505a142.823,142.823,0,0,0-9.49,13.51c-.287.287-.571.287-1.146,0l-7.581-3.6-1.859-.879-.278-.133-.479-.228c1.933-2.836,3.878-5.476,5.808-7.892l.083-.1.059-.121a2.2,2.2,0,0,0,.207-.589l.006,0a1.847,1.847,0,0,0,.033-.355,1.773,1.773,0,0,0-.343-1.033v-.006a4.524,4.524,0,0,0-1.19-1.048l-.021-.015c-.272-.169-.536-.338-.8-.5a0,0,0,0,0,0,0q.12-.169.24-.329c.024-.032.048-.065.074-.1.053-.074.109-.148.163-.219a.091.091,0,0,1,.021-.03c1.791-2.422,2.842-3.52,3.262-3.52a8.648,8.648,0,0,1,2.824.643,53.652,53.652,0,0,1,9.544,5.1C356.363,231.641,356.65,231.928,356.363,232.505Z" transform="translate(-317.36 -225.318)" fill="#0c0e13"/>
              <path id="Path_465" data-name="Path 465" d="M349.727,246.336c-.071-.044-.148-.089-.219-.133.074.045.145.089.219.136l.059.041A.28.28,0,0,0,349.727,246.336Z" transform="translate(-327.582 -240.591)" fill="#0c0e13" opacity="0.25"/>
              <path id="Path_466" data-name="Path 466" d="M290.97,232.4c-.015.035-.033.071-.05.107l-.275.349c-.151.19-.3.379-.45.569-1.835,2.338-3.587,4.757-5.254,7.208-.2.293-.4.589-.6.885l-.222.338c-.074.109-.151.225-.222.334-.847,1.273-1.673,2.552-2.466,3.827-.29.287-.574.287-1.151,0l-3.5-1.66-1.335-.634-6.666-3.164a1.551,1.551,0,0,1-.864-1.149c0-.583,1.442-3.167,4.316-7.48,3.158-4.6,4.884-6.61,5.458-6.61a10.4,10.4,0,0,1,3.635.959c.6.249,1.261.548,1.977.9q.626.311,1.314.678,1.483.786,3.238,1.847h0l.338.2c.044.027.089.053.136.083.284.175.574.355.87.539.142.083.281.172.423.264l.216.136c.071.045.148.089.219.133a.282.282,0,0,1,.059.044s0,0,0,0c.021.012.038.024.056.036l.3.216c.056.047.113.089.166.136a1.732,1.732,0,0,1,.163.154c.024.027.047.053.065.077s.038.053.056.077.03.056.045.083A.637.637,0,0,1,290.97,232.4Z" transform="translate(-267.916 -225.318)" fill="#0c0e13"/>
              <path id="Path_467" data-name="Path 467" d="M290.97,232.4c-.015.035-.033.071-.05.107l-.275.349c-.151.19-.3.379-.45.569-1.835,2.338-3.587,4.757-5.254,7.208-.2.293-.4.589-.6.885l-.222.338c-.074.109-.151.225-.222.334-.847,1.273-1.673,2.552-2.466,3.827-.29.287-.574.287-1.151,0l-3.5-1.66-1.335-.634-6.666-3.164a1.551,1.551,0,0,1-.864-1.149c0-.583,1.442-3.167,4.316-7.48,3.158-4.6,4.884-6.61,5.458-6.61a10.4,10.4,0,0,1,3.635.959c.6.249,1.261.548,1.977.9q.626.311,1.314.678,1.483.786,3.238,1.847h0l.338.2c.044.027.089.053.136.083.284.175.574.355.87.539.142.083.281.172.423.264l.216.136c.074.045.145.089.219.136l.059.041s0,0,0,0c.021.012.038.024.056.036l.3.216c.056.047.113.089.166.136a1.732,1.732,0,0,1,.163.154c.024.027.047.053.065.077s.038.053.056.077.03.056.045.083A.637.637,0,0,1,290.97,232.4Z" transform="translate(-267.916 -225.318)" fill="#0c0e13"/>
            </g>
            <g id="Group_61" data-name="Group 61" transform="translate(107.119 17.006)">
              <path id="Path_468" data-name="Path 468" d="M754.974,295.792q-1.74,2.171-3.377,4.431c-.3.406-.586.811-.876,1.217-.13.187-.263.37-.394.557-1.7,2.407-3.309,4.855-4.843,7.306-.29.29-.577.29-1.149,0l-9.437-4.485-.278-.13-.485-.231c1.936-2.836,3.878-5.476,5.814-7.889l.08-.1.059-.118a2.087,2.087,0,0,0,.243-.947c0-1.066-.995-1.729-1.527-2.084l-.027-.012c-.267-.178-.53-.34-.793-.5v0q.16-.222.311-.426c.062-.083.121-.166.181-.246.086-.115.169-.225.252-.334.263-.355.515-.678.746-.971l.166-.21c1.1-1.373,1.782-2.007,2.108-2.007,2.013,0,6.039,1.726,12.365,5.746C754.974,294.928,755.261,295.215,754.974,295.792Z" transform="translate(-715.969 -288.602)" fill="#0c0e13"/>
              <path id="Path_469" data-name="Path 469" d="M754.974,295.792q-1.74,2.171-3.377,4.431c-.3.406-.586.811-.876,1.217-.13.187-.263.37-.394.557-1.7,2.407-3.309,4.855-4.843,7.306-.29.29-.577.29-1.149,0l-9.437-4.485-.278-.13-.485-.231c1.936-2.836,3.878-5.476,5.814-7.889l.08-.1.059-.118a2.087,2.087,0,0,0,.243-.947c0-1.066-.995-1.729-1.527-2.084l-.027-.012c-.267-.178-.53-.34-.793-.5v0q.16-.222.311-.426c.062-.083.121-.166.181-.246.086-.115.169-.225.252-.334.263-.355.515-.678.746-.971l.166-.21c1.1-1.373,1.782-2.007,2.108-2.007,2.013,0,6.039,1.726,12.365,5.746C754.974,294.928,755.261,295.215,754.974,295.792Z" transform="translate(-715.969 -288.602)" fill="#0c0e13"/>
              <path id="Path_470" data-name="Path 470" d="M689.616,295.585a1.008,1.008,0,0,1-.083.2q-1.177,1.479-2.315,3c-1.261,1.687-2.484,3.4-3.659,5.136-.2.3-.4.592-.6.888v0c-.151.222-.3.441-.441.663q-1.274,1.914-2.472,3.83c-.287.287-.571.287-1.146,0l-11.5-5.464a1.538,1.538,0,0,1-.864-1.146c0-.58,1.439-3.164,4.313-7.477,3.164-4.6,4.89-6.613,5.465-6.613a10.4,10.4,0,0,1,3.632.959,52.7,52.7,0,0,1,6.876,3.638c.325.2.66.4,1,.616.225.136.456.284.69.429.054.036.11.071.169.107C689.427,294.854,689.743,295.138,689.616,295.585Z" transform="translate(-666.533 -288.602)" fill="#0c0e13"/>
              <path id="Path_471" data-name="Path 471" d="M689.616,295.585a1.008,1.008,0,0,1-.083.2q-1.177,1.479-2.315,3c-1.261,1.687-2.484,3.4-3.659,5.136-.2.3-.4.592-.6.888v0c-.151.222-.3.441-.441.663q-1.274,1.914-2.472,3.83c-.287.287-.571.287-1.146,0l-11.5-5.464a1.538,1.538,0,0,1-.864-1.146c0-.58,1.439-3.164,4.313-7.477,3.164-4.6,4.89-6.613,5.465-6.613a10.4,10.4,0,0,1,3.632.959,52.7,52.7,0,0,1,6.876,3.638c.325.2.66.4,1,.616.225.136.456.284.69.429.054.036.11.071.169.107C689.427,294.854,689.743,295.138,689.616,295.585Z" transform="translate(-666.533 -288.602)" fill="#0c0e13"/>
            </g>
            <g id="Group_62" data-name="Group 62" transform="translate(116.943 45.055)">
              <path id="Path_472" data-name="Path 472" d="M723.689,400.728c-.089-.174-.181-.351-.281-.525q-.078-.147-.163-.294c-.067-.124-.144-.25-.218-.37a.23.23,0,0,0-.032-.061c-.133-.225-.266-.445-.405-.652-.072-.109-.14-.216-.211-.314s-.124-.183-.19-.274c-.218-.322-.455-.634-.7-.933-.1-.122-.19-.238-.294-.36-.008-.011-.024-.026-.035-.037l-.148-.174c-.092-.107-.185-.212-.281-.318-.2-.218-.4-.432-.61-.639-.024-.013-.035-.037-.059-.057-.274-.27-.555-.521-.852-.774v0l-.24-.2c-.081-.063-.161-.131-.24-.187-.059-.043-.116-.094-.174-.139s-.122-.085-.179-.133c-.116-.089-.238-.174-.362-.264a4.479,4.479,0,0,0-2.663-1.039q-1.958,0-3.7,2.423a43.6,43.6,0,0,0-4.042,7.006q-1.742,3.762-3.7,7.232a8.123,8.123,0,0,0-.817,3.7v.351a3.35,3.35,0,0,0,1.735,3.125,6.707,6.707,0,0,0,3.354.928,7.907,7.907,0,0,0,2.316-.353,13.238,13.238,0,0,0,4.744-2.541.37.37,0,0,1,.349-.235c.03.007.072.015.107.026a.024.024,0,0,1,.015.006.6.6,0,0,1,.109.048c.007,0,.007.007.009.007a.77.77,0,0,1,.1.059,0,0,0,0,1,0,0,.533.533,0,0,1,.1.081c.009.006.017.006.017.015a.981.981,0,0,1,.116.116.386.386,0,0,1,.07.074c.015.02.028.033.044.05a.682.682,0,0,0,.067.087.791.791,0,0,0,.07.1c.022.037.048.072.072.111.043.074.092.153.148.24s.109.194.163.307c.033.056.061.122.094.185.063.131.131.27.192.416.031.076.065.152.1.227s.063.157.092.244c.137.325.27.68.4,1.074l.828,2.48.564,1.682s.013.044.035.126c.007.024.013.05.02.078s.015.063.024.1c.022.1.048.227.074.375.017.1.033.2.048.322.007.039.011.078.015.12,0,.022.006.046.009.072,0,.044.011.09.013.137,0,.024.006.048.009.074.025.278.04.591.04.936,0,.115,0,.234-.006.356,0,0,0,0,0,0,0,.122-.011.246-.02.375,0,.041,0,.081,0,.122l-.013.124v.05c-.009.072-.015.148-.026.225,0,.037-.006.072-.011.109s-.009.076-.015.113-.009.091-.015.137-.011.07-.017.1c-.018.122-.039.25-.059.375-.013.066-.026.133-.039.2s-.022.111-.035.168c0,.006,0,.013,0,.02-.028.131-.059.264-.094.4s-.068.268-.109.407c-.013.046-.028.092-.041.137s-.03.094-.044.142c-.009.033-.02.063-.03.1-.02.063-.042.126-.063.192-.011.033-.024.068-.035.1-.022.066-.046.131-.068.2s-.05.133-.076.2c-.017.041-.033.083-.05.127s-.035.085-.052.126c-.03.079-.063.157-.1.238s-.067.159-.1.238-.065.144-.1.218c-.159.338-.34.684-.543,1.033-.113.2-.235.4-.364.6-.028.046-.059.092-.092.139s-.074.116-.113.174a.075.075,0,0,1-.017.03c-.044.068-.094.135-.146.207-.017.022-.032.046-.048.067q-.069.1-.15.2a.256.256,0,0,1-.031.041.24.24,0,0,0-.028.037s0,.006,0,.006a.017.017,0,0,1,0,.009c-.008.015-.02.026-.028.041-.024.033-.046.063-.072.094-.037.05-.076.1-.116.155s-.074.1-.113.142l-.033.039v0c0,.007-.009.011-.011.015-.044.055-.087.111-.133.166l-.157.183c-.052.063-.1.124-.159.185l-.011.013c-.066.076-.131.153-.2.227s-.142.157-.214.235c-.026.028-.055.056-.085.087l-.078.083c-.041.044-.085.087-.126.133s-.085.089-.129.133c-.187.192-.381.381-.586.569h0v0c-.061.059-.124.116-.19.172a.116.116,0,0,1-.017.017l-.011.013h0l-.144.129-.107.1-.109.1-.118.1c-.068.061-.137.12-.211.179s-.144.12-.216.179c-.135.111-.272.22-.412.329a.448.448,0,0,1-.037.03c.22-.159.431-.323.647-.486,0,0,.009-.009.011-.011.166-.124.331-.255.492-.388.083-.063.166-.131.246-.2a.017.017,0,0,0,0-.006c.081-.061.161-.124.24-.19.268-.227.529-.449.789-.68.059-.05.116-.1.174-.157s.139-.124.2-.187c.1-.083.181-.166.264-.246.163-.146.318-.3.475-.451.183-.181.36-.364.538-.549s.331-.351.49-.528a29.293,29.293,0,0,0,3.5-4.8,39.115,39.115,0,0,0,4.134-10.475,30.09,30.09,0,0,0,.811-6.829A19.3,19.3,0,0,0,723.689,400.728Z" transform="translate(-703.092 -392.981)" fill="#0c0e13"/>
            </g>
          </g>
          <path id="Path_473" data-name="Path 473" d="M580.392,634.489v.122l.106-.169A.683.683,0,0,0,580.392,634.489Zm22.834-13.232q-.377.133-.764.275-3.592,1.323-6.95,2.519c-2.244.805-4.36,1.581-6.365,2.341-1.125.429-2.128.814-3,1.157-.672.257-1.276.494-1.8.7l-.121.124-3.73,6.068q4.223-2.06,9.292-4.014c.906-.343,1.832-.693,2.779-1.036q3.588-1.3,7.084-2.546,3.121-1.11,6.172-2.19l3.481-5.524Q606.416,620.1,603.226,621.257Z" transform="translate(-496.421 -513.304)" fill="#0c0e13"/>
        </g>
        <path id="Path_474" data-name="Path 474" d="M686.321,560.318c0-.057,0-.113.009-.172,0,.05-.006.1-.006.148A.049.049,0,0,0,686.321,560.318Z" transform="translate(-573.884 -470.169)" fill="#0c0e13"/>
        <path id="Path_475" data-name="Path 475" d="M686.355,559.452c.007-.083.013-.17.022-.255,0,.035-.007.072-.009.1C686.364,559.35,686.36,559.4,686.355,559.452Z" transform="translate(-573.909 -469.475)" fill="#0c0e13"/>
        <path id="Path_476" data-name="Path 476" d="M686.475,565a.159.159,0,0,0,.007.046.318.318,0,0,1-.009-.046c0-.015,0-.029,0-.041A.23.23,0,0,1,686.475,565Z" transform="translate(-573.993 -473.686)" fill="#0c0e13"/>
        <path id="Path_477" data-name="Path 477" d="M686.67,555.913c-.015.092-.033.181-.046.273s-.031.192-.041.283C686.6,556.286,686.635,556.1,686.67,555.913Z" transform="translate(-574.076 -467.073)" fill="#0c0e13"/>
        <path id="Path_478" data-name="Path 478" d="M686.842,566.82c.011.035.02.067.031.1v.006a.008.008,0,0,1,0-.006C686.862,566.887,686.851,566.855,686.842,566.82Z" transform="translate(-574.266 -475.049)" fill="#0c0e13"/>
        <path id="Path_479" data-name="Path 479" d="M687.091,567.6c.015.033.029.066.041.1-.015-.032-.03-.065-.044-.1s-.035-.094-.052-.144C687.057,567.51,687.074,567.556,687.091,567.6Z" transform="translate(-574.408 -475.517)" fill="#0c0e13"/>
        <path id="Path_480" data-name="Path 480" d="M687.5,568.6s0,.009.006.013a.043.043,0,0,1-.009-.013c-.009-.017-.015-.035-.022-.05C687.482,568.562,687.49,568.58,687.5,568.6Z" transform="translate(-574.728 -476.312)" fill="#0c0e13"/>
        <path id="Path_481" data-name="Path 481" d="M687.4,552.682c.022-.1.046-.2.072-.3-.013.052-.026.1-.037.154S687.415,552.636,687.4,552.682Z" transform="translate(-574.675 -464.494)" fill="#0c0e13"/>
        <path id="Path_482" data-name="Path 482" d="M687.742,569.074c.018.03.035.061.052.089v0s0,0,0,0C687.775,569.135,687.757,569.1,687.742,569.074Z" transform="translate(-574.924 -476.698)" fill="#0c0e13"/>
        <path id="Path_483" data-name="Path 483" d="M687.669,551.544c.024-.1.05-.2.078-.31l-.039.157C687.7,551.443,687.682,551.493,687.669,551.544Z" transform="translate(-574.87 -463.652)" fill="#0c0e13"/>
        <path id="Path_484" data-name="Path 484" d="M688,550.19c-.015.052-.028.1-.044.154.028-.109.059-.218.089-.327C688.035,550.077,688.02,550.134,688,550.19Z" transform="translate(-575.084 -462.762)" fill="#0c0e13"/>
        <path id="Path_485" data-name="Path 485" d="M688.067,569.641c.041.059.083.118.126.174-.044-.055-.087-.113-.128-.172l-.031-.05A.35.35,0,0,0,688.067,569.641Z" transform="translate(-575.137 -477.077)" fill="#0c0e13"/>
        <path id="Path_486" data-name="Path 486" d="M693.208,573.218a.578.578,0,0,0,.087.019l-.063-.013Z" transform="translate(-578.921 -479.728)" fill="#0c0e13"/>
        <path id="Path_487" data-name="Path 487" d="M694.179,573.408a.062.062,0,0,0,.02,0l-.02,0-.031-.006A.07.07,0,0,1,694.179,573.408Z" transform="translate(-579.608 -479.864)" fill="#0c0e13"/>
        <path id="Path_488" data-name="Path 488" d="M696.329,529.623a1.126,1.126,0,0,1,.055-.1.144.144,0,0,0-.015.03C696.355,529.573,696.344,529.6,696.329,529.623Z" transform="translate(-581.203 -447.772)" fill="#0c0e13"/>
        <path id="Path_489" data-name="Path 489" d="M696.677,529.138h0a.174.174,0,0,1-.017.032Z" transform="translate(-581.447 -447.493)" fill="#0c0e13"/>
        <path id="Path_490" data-name="Path 490" d="M697.148,573.586c.039,0,.078,0,.12,0l-.05,0C697.194,573.586,697.17,573.586,697.148,573.586Z" transform="translate(-581.802 -479.994)" fill="#0c0e13"/>
        <path id="Path_491" data-name="Path 491" d="M699.938,573.2l.191-.029c-.063.011-.128.024-.189.034-.043.006-.085.013-.124.017C699.851,573.22,699.9,573.212,699.938,573.2Z" transform="translate(-583.753 -479.696)" fill="#0c0e13"/>
        <path id="Path_492" data-name="Path 492" d="M700.98,573.1c.052-.009.1-.017.156-.027-.039.009-.078.015-.118.022Z" transform="translate(-584.604 -479.621)" fill="#0c0e13"/>
        <path id="Path_493" data-name="Path 493" d="M703.644,572.412l.05-.013-.15.041c-.037.011-.074.02-.111.028l.113-.031C703.579,572.429,703.607,572.421,703.644,572.412Z" transform="translate(-586.398 -479.129)" fill="#0c0e13"/>
        <path id="Path_494" data-name="Path 494" d="M706.6,571.5l.131-.041-.128.044c-.044.015-.085.028-.126.039C706.515,571.528,706.557,571.515,706.6,571.5Z" transform="translate(-588.622 -478.441)" fill="#0c0e13"/>
        <path id="Path_495" data-name="Path 495" d="M712.591,569.074h0l0,0c-.115.052-.229.1-.344.144C712.363,569.176,712.476,569.128,712.591,569.074Z" transform="translate(-592.844 -476.698)" fill="#0c0e13"/>
        <path id="Path_496" data-name="Path 496" d="M739.169,553.12c.14-.109.277-.218.412-.329-.074.061-.148.12-.222.179S739.234,553.072,739.169,553.12Z" transform="translate(-612.531 -464.79)" fill="#0c0e13"/>
        <path id="Path_497" data-name="Path 497" d="M744.894,549.11h0l0,0Z" transform="translate(-616.717 -462.098)" fill="#0c0e13"/>
        <path id="Path_498" data-name="Path 498" d="M747.7,545.779l.078-.083c-.024.028-.05.055-.076.083-.041.046-.085.089-.128.133C747.611,545.866,747.655,545.822,747.7,545.779Z" transform="translate(-618.674 -459.602)" fill="#0c0e13"/>
        <path id="Path_499" data-name="Path 499" d="M751.932,541.445l.033-.039c-.011.015-.022.028-.033.041Z" transform="translate(-621.864 -456.465)" fill="#0c0e13"/>
        <path id="Path_500" data-name="Path 500" d="M753.3,539.643a.238.238,0,0,1,.028-.037.415.415,0,0,1-.026.037s0,0-.007.007S753.3,539.645,753.3,539.643Z" transform="translate(-622.86 -455.148)" fill="#0c0e13"/>
        <path id="Path_501" data-name="Path 501" d="M755.389,534.77c.128-.2.25-.4.364-.6-.113.2-.233.4-.362.6-.031.046-.061.094-.094.139C755.33,534.862,755.36,534.816,755.389,534.77Z" transform="translate(-624.325 -451.175)" fill="#0c0e13"/>
        <path id="Path_502" data-name="Path 502" d="M759.871,527.407c.017-.041.035-.083.052-.126-.018.044-.033.085-.05.126-.032.078-.065.157-.1.238C759.808,527.564,759.841,527.486,759.871,527.407Z" transform="translate(-627.598 -446.135)" fill="#0c0e13"/>
        <path id="Path_503" data-name="Path 503" d="M760.871,525.053c.011-.033.024-.067.035-.1-.011.033-.022.066-.033.1-.022.065-.046.131-.07.2C760.825,525.184,760.849,525.119,760.871,525.053Z" transform="translate(-628.351 -444.433)" fill="#0c0e13"/>
        <path id="Path_504" data-name="Path 504" d="M761.45,523.5c.013-.048.026-.1.043-.142-.015.046-.028.091-.041.139-.011.033-.02.065-.032.1C761.431,523.561,761.442,523.53,761.45,523.5Z" transform="translate(-628.802 -443.265)" fill="#0c0e13"/>
        <path id="Path_505" data-name="Path 505" d="M762.605,519.315c.013-.057.024-.113.035-.168-.011.063-.024.125-.037.188C762.6,519.328,762.605,519.321,762.605,519.315Z" transform="translate(-629.667 -440.187)" fill="#0c0e13"/>
        <path id="Path_506" data-name="Path 506" d="M762.88,503.41c-.026-.148-.052-.272-.074-.375C762.83,503.137,762.854,503.262,762.88,503.41Z" transform="translate(-629.816 -428.405)" fill="#0c0e13"/>
        <path id="Path_507" data-name="Path 507" d="M762.946,516.731c.007-.035.013-.07.017-.1,0,.035-.009.07-.015.1-.02.122-.039.248-.061.375C762.907,516.981,762.928,516.853,762.946,516.731Z" transform="translate(-629.875 -438.344)" fill="#0c0e13"/>
        <path id="Path_508" data-name="Path 508" d="M763.3,514.677c.011-.076.017-.153.026-.225-.007.072-.015.148-.024.225,0,.037-.009.072-.013.109C763.289,514.748,763.294,514.714,763.3,514.677Z" transform="translate(-630.166 -436.754)" fill="#0c0e13"/>
        <path id="Path_509" data-name="Path 509" d="M763.422,513.928l.013-.124c0,.041-.006.083-.011.124,0,.018,0,.033,0,.05Z" transform="translate(-630.266 -436.28)" fill="#0c0e13"/>
        <path id="Path_510" data-name="Path 510" d="M763.475,512.33c.009-.129.015-.253.02-.375,0,.122-.009.248-.018.375,0,.039,0,.081-.006.122C763.473,512.41,763.475,512.371,763.475,512.33Z" transform="translate(-630.302 -434.928)" fill="#0c0e13"/>
        <path id="Path_511" data-name="Path 511" d="M763.471,508.066c0-.345-.016-.658-.04-.936C763.455,507.406,763.471,507.72,763.471,508.066Z" transform="translate(-630.273 -431.4)" fill="#0c0e13"/>
        <path id="Path_512" data-name="Path 512" d="M763.566,510.614c0,.115,0,.234-.006.356C763.564,510.848,763.566,510.729,763.566,510.614Z" transform="translate(-630.367 -433.947)" fill="#0c0e13"/>
        <path id="Path_513" data-name="Path 513" d="M723.706,554.137a31.842,31.842,0,0,1-5.541,3.408.56.56,0,0,1-.087.041A43.026,43.026,0,0,0,723.706,554.137Z" transform="translate(-597.107 -465.775)" fill="#0c0e13"/>
        <path id="Path_514" data-name="Path 514" d="M707.052,504.6s0,0,0,0c0,.122-.011.246-.02.375,0,.041,0,.081,0,.122l-.013.124v.05c-.009.072-.015.148-.026.225,0,.037-.006.072-.011.109s-.009.076-.015.113-.009.091-.015.137-.011.07-.017.1c-.018.122-.039.25-.059.375-.013.066-.026.133-.039.2s-.022.111-.035.168c0,.006,0,.013,0,.02-.028.131-.059.264-.094.4s-.07.27-.109.407a1.361,1.361,0,0,0-.041.137c-.017.046-.03.094-.043.142s-.02.063-.03.1c-.02.063-.042.126-.063.192-.011.033-.024.068-.035.1-.022.066-.046.131-.068.2s-.05.133-.076.2c-.017.041-.033.083-.05.127s-.035.085-.052.126c-.03.078-.063.157-.1.238s-.068.159-.1.238-.068.146-.1.218c-.159.338-.34.684-.543,1.033-.113.2-.235.4-.364.6-.029.046-.059.092-.092.139s-.074.116-.113.174c-.007.009-.013.02-.02.028l-.144.209c-.017.022-.033.046-.048.067-.048.067-.1.135-.15.2a.26.26,0,0,1-.031.041.24.24,0,0,0-.028.037s0,.006,0,.006a.016.016,0,0,1,0,.009c-.033.046-.065.089-.1.135s-.078.1-.118.152l-.111.144-.033.039v0c0,.007-.009.011-.011.015-.046.057-.089.111-.135.166s-.1.122-.155.183-.1.124-.159.185l-.011.013c-.066.076-.131.153-.2.227s-.142.157-.214.235c-.026.028-.055.056-.085.087l-.078.083c-.041.044-.085.087-.126.133s-.085.089-.129.133c-.187.192-.381.381-.586.569h0v0c-.061.059-.124.116-.19.172a.141.141,0,0,0-.017.017.073.073,0,0,1-.015.013l-.144.129-.107.1-.109.1-.118.1c-.07.059-.139.12-.211.179s-.144.12-.216.179-.148.12-.222.179-.124.1-.189.151a.466.466,0,0,1-.037.03,0,0,0,0,0,0,0,43.024,43.024,0,0,1-5.629,3.45c-.043.02-.085.041-.126.063h0l-.124.059c-.035.018-.07.035-.1.05l-.124.059-.022.009q-.186.088-.366.17c-.081.037-.161.072-.24.107-.037.017-.074.033-.111.048h0c-.115.055-.229.1-.344.146-.018.007-.035.015-.05.022l-.118.05c-.057.022-.111.044-.165.068-.336.133-.658.255-.963.355l-.131.041c-.041.015-.083.028-.124.041-.164.055-.325.1-.479.148,0,0-.011,0-.013,0a.008.008,0,0,0-.006,0h0a.525.525,0,0,1-.052.015l-.05.013-.1.026-.113.031q-.262.065-.5.111c-.039.009-.078.015-.118.022-.076.013-.155.024-.229.035-.041.009-.087.017-.122.022a.012.012,0,0,1-.009,0,1.083,1.083,0,0,1-.137.017c-.122.015-.24.024-.355.033l-.1.006-.05,0c-.024,0-.048,0-.07,0s-.048,0-.072,0a.448.448,0,0,1-.107,0H689l-.109,0-.1-.009a.674.674,0,0,1-.113-.006c-.039,0-.076-.006-.111-.013s-.074-.008-.113-.015a.061.061,0,0,1-.02,0,.072.072,0,0,0-.031,0l-.043-.007a.323.323,0,0,0-.046-.009c-.026,0-.05-.009-.076-.015l-.063-.013-.024-.006c-.037-.009-.072-.02-.107-.031a1.232,1.232,0,0,1-.15-.048c-.059-.022-.111-.041-.168-.066l0,0a1.139,1.139,0,0,1-.135-.068.111.111,0,0,1-.024-.011l-.026-.015c-.039-.024-.083-.046-.122-.072-.024-.013-.048-.028-.072-.044s-.044-.033-.067-.05a1.791,1.791,0,0,1-.246-.222,1.256,1.256,0,0,1-.111-.124c-.044-.057-.085-.115-.126-.174a.341.341,0,0,1-.033-.048.513.513,0,0,1-.026-.046v0c-.017-.028-.035-.059-.052-.089s-.028-.052-.041-.078c0,0-.007-.009-.007-.013s-.017-.035-.024-.05-.015-.035-.022-.05c-.013-.032-.026-.065-.041-.1-.017-.048-.035-.094-.054-.144l-.007-.026a.241.241,0,0,1-.013-.037l0,0v-.006c-.011-.033-.02-.066-.031-.1s-.017-.07-.026-.107-.017-.081-.026-.122a.282.282,0,0,1-.009-.041c-.006-.03-.013-.061-.018-.094a.409.409,0,0,1-.009-.05.159.159,0,0,1-.007-.046.235.235,0,0,0-.006-.041c0-.029-.006-.055-.011-.081a.266.266,0,0,0,0-.041.023.023,0,0,1,0-.017.069.069,0,0,1,0-.022c-.006-.061-.013-.126-.017-.194,0-.044-.006-.089-.006-.135-.009-.2-.007-.414,0-.63a.048.048,0,0,1,0-.024c0-.05,0-.1.006-.148s.009-.1.013-.153c0-.03.006-.067.009-.1q.016-.163.039-.327c.011-.092.026-.187.041-.283s.03-.181.046-.273c.039-.216.083-.434.133-.651.013-.046.024-.094.035-.142s.024-.1.037-.155.026-.1.039-.153l.039-.157c.015-.05.028-.1.044-.154s.031-.113.046-.172c.006-.02.011-.039.017-.059.022-.076.046-.155.07-.231.009-.035.02-.067.03-.1.015-.056.033-.113.05-.168.026-.083.052-.166.078-.246s.052-.163.081-.244c.009-.02.015-.042.022-.061.041-.122.083-.242.124-.362l0,0c.048-.139.1-.277.151-.412s.1-.27.152-.4.1-.261.15-.388a0,0,0,0,1,0,0c.065-.161.131-.32.194-.475.006-.015.013-.031.02-.044.037-.089.072-.174.109-.259.359-.837.682-1.5.863-1.863.011-.022.02-.041.031-.061l.013-.026c.015-.026.026-.05.039-.074a.143.143,0,0,1,.015-.03c0-.011.009-.02.013-.029s.015-.03.022-.041a.173.173,0,0,0,.017-.033v0h0l.037-.011q3.883-1.056,7.511-2.266c.357-.118.708-.24,1.046-.357v0c.368-.129.73-.255,1.079-.388.135-.052.27-.1.4-.152.249-.1.495-.19.739-.288a.379.379,0,0,1,.037-.017c.124-.048.253-.1.375-.152l.3-.124c.146-.059.29-.122.433-.183.948-.41,1.815-.83,2.6-1.255.1-.052.192-.1.288-.159a17.962,17.962,0,0,0,2.1-1.358c.117-.089.233-.177.344-.266.135-.111.266-.222.39-.333,0,0,.013.044.035.126.007.024.013.05.02.078s.015.063.024.1c.022.1.048.227.074.375.018.1.033.2.048.322,0,.039.011.078.015.12,0,.022.007.046.009.072,0,.044.009.089.013.137,0,.024.006.048.009.074A10.858,10.858,0,0,1,707.052,504.6Z" transform="translate(-573.859 -427.581)" fill="#0c0e13"/>
        <path id="Path_515" data-name="Path 515" d="M707.052,504.6s0,0,0,0c0,.122-.011.246-.02.375,0,.041,0,.081,0,.122l-.013.124v.05c-.009.072-.015.148-.026.225,0,.037-.006.072-.011.109s-.009.076-.015.113-.009.091-.015.137-.011.07-.017.1c-.018.122-.039.25-.059.375-.013.066-.026.133-.039.2s-.022.111-.035.168c0,.006,0,.013,0,.02-.028.131-.059.264-.094.4s-.07.27-.109.407a1.361,1.361,0,0,0-.041.137c-.017.046-.03.094-.043.142s-.02.063-.03.1c-.02.063-.042.126-.063.192-.011.033-.024.068-.035.1-.022.066-.046.131-.068.2s-.05.133-.076.2c-.017.041-.033.083-.05.127s-.035.085-.052.126c-.03.078-.063.157-.1.238s-.068.159-.1.238-.068.146-.1.218c-.159.338-.34.684-.543,1.033-.113.2-.235.4-.364.6-.029.046-.059.092-.092.139s-.074.116-.113.174c-.007.009-.013.02-.02.028l-.144.209c-.017.022-.033.046-.048.067-.048.067-.1.135-.15.2a.26.26,0,0,1-.031.041.24.24,0,0,0-.028.037s0,.006,0,.006a.016.016,0,0,1,0,.009c-.033.046-.065.089-.1.135s-.078.1-.118.152l-.111.144-.033.039v0c0,.007-.009.011-.011.015-.046.057-.089.111-.135.166s-.1.122-.155.183-.1.124-.159.185l-.011.013c-.066.076-.131.153-.2.227s-.142.157-.214.235c-.026.028-.055.056-.085.087l-.078.083c-.041.044-.085.087-.126.133s-.085.089-.129.133c-.187.192-.381.381-.586.569h0v0c-.061.059-.124.116-.19.172a.141.141,0,0,0-.017.017.073.073,0,0,1-.015.013l-.144.129-.107.1-.109.1-.118.1c-.07.059-.139.12-.211.179s-.144.12-.216.179-.148.12-.222.179-.124.1-.189.151a.466.466,0,0,1-.037.03,0,0,0,0,0,0,0,43.024,43.024,0,0,1-5.629,3.45c-.043.02-.085.041-.126.063h0l-.124.059c-.035.018-.07.035-.1.05l-.124.059-.022.009q-.186.088-.366.17c-.081.037-.161.072-.24.107-.037.017-.074.033-.111.048h0c-.115.055-.229.1-.344.146-.018.007-.035.015-.05.022l-.118.05c-.057.022-.111.044-.165.068-.336.133-.658.255-.963.355l-.131.041c-.041.015-.083.028-.124.041-.164.055-.325.1-.479.148,0,0-.011,0-.013,0a.008.008,0,0,0-.006,0h0a.525.525,0,0,1-.052.015l-.05.013-.1.026-.113.031q-.262.065-.5.111c-.039.009-.078.015-.118.022-.076.013-.155.024-.229.035-.041.009-.087.017-.122.022a.012.012,0,0,1-.009,0,1.083,1.083,0,0,1-.137.017c-.122.015-.24.024-.355.033l-.1.006-.05,0c-.024,0-.048,0-.07,0s-.048,0-.072,0a.448.448,0,0,1-.107,0H689l-.109,0-.1-.009a.674.674,0,0,1-.113-.006c-.039,0-.076-.006-.111-.013s-.074-.008-.113-.015a.061.061,0,0,1-.02,0,.072.072,0,0,0-.031,0l-.043-.007a.323.323,0,0,0-.046-.009c-.026,0-.05-.009-.076-.015l-.063-.013-.024-.006c-.037-.009-.072-.02-.107-.031a1.232,1.232,0,0,1-.15-.048c-.059-.022-.111-.041-.168-.066l0,0a1.139,1.139,0,0,1-.135-.068.111.111,0,0,1-.024-.011l-.026-.015c-.039-.024-.083-.046-.122-.072-.024-.013-.048-.028-.072-.044s-.044-.033-.067-.05a1.791,1.791,0,0,1-.246-.222,1.256,1.256,0,0,1-.111-.124c-.044-.057-.085-.115-.126-.174a.341.341,0,0,1-.033-.048.513.513,0,0,1-.026-.046v0c-.017-.028-.035-.059-.052-.089s-.028-.052-.041-.078c0,0-.007-.009-.007-.013s-.017-.035-.024-.05-.015-.035-.022-.05c-.013-.032-.026-.065-.041-.1-.017-.048-.035-.094-.054-.144l-.007-.026a.241.241,0,0,1-.013-.037l0,0v-.006c-.011-.033-.02-.066-.031-.1s-.017-.07-.026-.107-.017-.081-.026-.122a.282.282,0,0,1-.009-.041c-.006-.03-.013-.061-.018-.094a.409.409,0,0,1-.009-.05.159.159,0,0,1-.007-.046.235.235,0,0,0-.006-.041c0-.029-.006-.055-.011-.081a.266.266,0,0,0,0-.041.023.023,0,0,1,0-.017.069.069,0,0,1,0-.022c-.006-.061-.013-.126-.017-.194,0-.044-.006-.089-.006-.135-.009-.2-.007-.414,0-.63a.048.048,0,0,1,0-.024c0-.05,0-.1.006-.148s.009-.1.013-.153c0-.03.006-.067.009-.1q.016-.163.039-.327c.011-.092.026-.187.041-.283s.03-.181.046-.273c.039-.216.083-.434.133-.651.013-.046.024-.094.035-.142s.024-.1.037-.155.026-.1.039-.153l.039-.157c.015-.05.028-.1.044-.154s.031-.113.046-.172c.006-.02.011-.039.017-.059.022-.076.046-.155.07-.231.009-.035.02-.067.03-.1.015-.056.033-.113.05-.168.026-.083.052-.166.078-.246s.052-.163.081-.244c.009-.02.015-.042.022-.061.041-.122.083-.242.124-.362l0,0c.048-.139.1-.277.151-.412s.1-.27.152-.4.1-.261.15-.388a0,0,0,0,1,0,0c.065-.161.131-.32.194-.475.006-.015.013-.031.02-.044.037-.089.072-.174.109-.259.359-.837.682-1.5.863-1.863.011-.022.02-.041.031-.061l.013-.026c.015-.026.026-.05.039-.074a.143.143,0,0,1,.015-.03c0-.011.009-.02.013-.029s.015-.03.022-.041a.173.173,0,0,0,.017-.033v0h0l.037-.011q3.883-1.056,7.511-2.266c.357-.118.708-.24,1.046-.357v0c.368-.129.73-.255,1.079-.388.135-.052.27-.1.4-.152.249-.1.495-.19.739-.288a.379.379,0,0,1,.037-.017c.124-.048.253-.1.375-.152l.3-.124c.146-.059.29-.122.433-.183.948-.41,1.815-.83,2.6-1.255.1-.052.192-.1.288-.159a17.962,17.962,0,0,0,2.1-1.358c.117-.089.233-.177.344-.266.135-.111.266-.222.39-.333,0,0,.013.044.035.126.007.024.013.05.02.078s.015.063.024.1c.022.1.048.227.074.375.018.1.033.2.048.322,0,.039.011.078.015.12,0,.022.007.046.009.072,0,.044.009.089.013.137,0,.024.006.048.009.074A10.858,10.858,0,0,1,707.052,504.6Z" transform="translate(-573.859 -427.581)" opacity="0.75" fill="url(#linear-gradient)"/>
        <path id="Path_516" data-name="Path 516" d="M686.321,560.318c0-.057,0-.113.009-.172,0,.05-.006.1-.006.148A.049.049,0,0,0,686.321,560.318Z" transform="translate(-573.884 -470.169)" fill="#0c0e13" opacity="0.75"/>
        <path id="Path_517" data-name="Path 517" d="M686.355,559.452c.007-.083.013-.17.022-.255,0,.035-.007.072-.009.1C686.364,559.35,686.36,559.4,686.355,559.452Z" transform="translate(-573.909 -469.475)" fill="#0c0e13" opacity="0.75"/>
        <path id="Path_518" data-name="Path 518" d="M686.475,565a.159.159,0,0,0,.007.046.318.318,0,0,1-.009-.046c0-.015,0-.029,0-.041A.23.23,0,0,1,686.475,565Z" transform="translate(-573.993 -473.686)" fill="#0c0e13" opacity="0.75"/>
        <path id="Path_519" data-name="Path 519" d="M686.67,555.913c-.015.092-.033.181-.046.273s-.031.192-.041.283C686.6,556.286,686.635,556.1,686.67,555.913Z" transform="translate(-574.076 -467.073)" fill="#0c0e13" opacity="0.75"/>
        <path id="Path_520" data-name="Path 520" d="M686.842,566.82c.011.035.02.067.031.1v.006a.008.008,0,0,1,0-.006C686.862,566.887,686.851,566.855,686.842,566.82Z" transform="translate(-574.266 -475.049)" fill="#0c0e13" opacity="0.75"/>
        <path id="Path_521" data-name="Path 521" d="M687.091,567.6c.015.033.029.066.041.1-.015-.032-.03-.065-.044-.1s-.035-.094-.052-.144C687.057,567.51,687.074,567.556,687.091,567.6Z" transform="translate(-574.408 -475.517)" fill="#0c0e13" opacity="0.75"/>
        <path id="Path_522" data-name="Path 522" d="M687.5,568.6s0,.009.006.013a.043.043,0,0,1-.009-.013c-.009-.017-.015-.035-.022-.05C687.482,568.562,687.49,568.58,687.5,568.6Z" transform="translate(-574.728 -476.312)" fill="#0c0e13" opacity="0.75"/>
        <path id="Path_523" data-name="Path 523" d="M687.4,552.682c.022-.1.046-.2.072-.3-.013.052-.026.1-.037.154S687.415,552.636,687.4,552.682Z" transform="translate(-574.675 -464.494)" fill="#0c0e13" opacity="0.75"/>
        <path id="Path_524" data-name="Path 524" d="M687.742,569.074c.018.03.035.061.052.089v0s0,0,0,0C687.775,569.135,687.757,569.1,687.742,569.074Z" transform="translate(-574.924 -476.698)" fill="#0c0e13" opacity="0.75"/>
        <path id="Path_525" data-name="Path 525" d="M687.669,551.544c.024-.1.05-.2.078-.31l-.039.157C687.7,551.443,687.682,551.493,687.669,551.544Z" transform="translate(-574.87 -463.652)" fill="#0c0e13" opacity="0.75"/>
        <path id="Path_526" data-name="Path 526" d="M688,550.19c-.015.052-.028.1-.044.154.028-.109.059-.218.089-.327C688.035,550.077,688.02,550.134,688,550.19Z" transform="translate(-575.084 -462.762)" fill="#0c0e13" opacity="0.75"/>
        <path id="Path_527" data-name="Path 527" d="M688.067,569.641c.041.059.083.118.126.174-.044-.055-.087-.113-.128-.172l-.031-.05A.35.35,0,0,0,688.067,569.641Z" transform="translate(-575.137 -477.077)" fill="#0c0e13" opacity="0.75"/>
        <path id="Path_528" data-name="Path 528" d="M693.208,573.218a.578.578,0,0,0,.087.019l-.063-.013Z" transform="translate(-578.921 -479.728)" fill="#0c0e13" opacity="0.75"/>
        <path id="Path_529" data-name="Path 529" d="M694.179,573.408a.062.062,0,0,0,.02,0l-.02,0-.031-.006A.07.07,0,0,1,694.179,573.408Z" transform="translate(-579.608 -479.864)" fill="#0c0e13" opacity="0.75"/>
        <path id="Path_530" data-name="Path 530" d="M696.329,529.623a1.126,1.126,0,0,1,.055-.1.144.144,0,0,0-.015.03C696.355,529.573,696.344,529.6,696.329,529.623Z" transform="translate(-581.203 -447.772)" fill="#0c0e13" opacity="0.75"/>
        <path id="Path_531" data-name="Path 531" d="M696.677,529.138h0a.174.174,0,0,1-.017.032Z" transform="translate(-581.447 -447.493)" fill="#0c0e13" opacity="0.75"/>
        <path id="Path_532" data-name="Path 532" d="M697.148,573.586c.039,0,.078,0,.12,0l-.05,0C697.194,573.586,697.17,573.586,697.148,573.586Z" transform="translate(-581.802 -479.994)" fill="#0c0e13" opacity="0.75"/>
        <path id="Path_533" data-name="Path 533" d="M699.938,573.2l.191-.029c-.063.011-.128.024-.189.034-.043.006-.085.013-.124.017C699.851,573.22,699.9,573.212,699.938,573.2Z" transform="translate(-583.753 -479.696)" fill="#0c0e13" opacity="0.75"/>
        <path id="Path_534" data-name="Path 534" d="M700.98,573.1c.052-.009.1-.017.156-.027-.039.009-.078.015-.118.022Z" transform="translate(-584.604 -479.621)" fill="#0c0e13" opacity="0.75"/>
        <path id="Path_535" data-name="Path 535" d="M703.644,572.412l.05-.013-.15.041c-.037.011-.074.02-.111.028l.113-.031C703.579,572.429,703.607,572.421,703.644,572.412Z" transform="translate(-586.398 -479.129)" fill="#0c0e13" opacity="0.75"/>
        <path id="Path_536" data-name="Path 536" d="M706.6,571.5l.131-.041-.128.044c-.044.015-.085.028-.126.039C706.515,571.528,706.557,571.515,706.6,571.5Z" transform="translate(-588.622 -478.441)" fill="#0c0e13" opacity="0.75"/>
        <path id="Path_537" data-name="Path 537" d="M712.591,569.074h0l0,0c-.115.052-.229.1-.344.144C712.363,569.176,712.476,569.128,712.591,569.074Z" transform="translate(-592.844 -476.698)" fill="#0c0e13" opacity="0.75"/>
        <path id="Path_538" data-name="Path 538" d="M739.169,553.12c.14-.109.277-.218.412-.329-.074.061-.148.12-.222.179S739.234,553.072,739.169,553.12Z" transform="translate(-612.531 -464.79)" fill="#0c0e13" opacity="0.75"/>
        <path id="Path_539" data-name="Path 539" d="M744.894,549.11h0l0,0Z" transform="translate(-616.717 -462.098)" fill="#0c0e13" opacity="0.75"/>
        <path id="Path_540" data-name="Path 540" d="M747.7,545.779l.078-.083c-.024.028-.05.055-.076.083-.041.046-.085.089-.128.133C747.611,545.866,747.655,545.822,747.7,545.779Z" transform="translate(-618.674 -459.602)" fill="#0c0e13" opacity="0.75"/>
        <path id="Path_541" data-name="Path 541" d="M751.932,541.445l.033-.039c-.011.015-.022.028-.033.041Z" transform="translate(-621.864 -456.465)" fill="#0c0e13" opacity="0.75"/>
        <path id="Path_542" data-name="Path 542" d="M753.3,539.643a.238.238,0,0,1,.028-.037.415.415,0,0,1-.026.037s0,0-.007.007S753.3,539.645,753.3,539.643Z" transform="translate(-622.86 -455.148)" fill="#0c0e13" opacity="0.75"/>
        <path id="Path_543" data-name="Path 543" d="M755.389,534.77c.128-.2.25-.4.364-.6-.113.2-.233.4-.362.6-.031.046-.061.094-.094.139C755.33,534.862,755.36,534.816,755.389,534.77Z" transform="translate(-624.325 -451.175)" fill="#0c0e13" opacity="0.75"/>
        <path id="Path_544" data-name="Path 544" d="M759.871,527.407c.017-.041.035-.083.052-.126-.018.044-.033.085-.05.126-.032.078-.065.157-.1.238C759.808,527.564,759.841,527.486,759.871,527.407Z" transform="translate(-627.598 -446.135)" fill="#0c0e13" opacity="0.75"/>
        <path id="Path_545" data-name="Path 545" d="M760.871,525.053c.011-.033.024-.067.035-.1-.011.033-.022.066-.033.1-.022.065-.046.131-.07.2C760.825,525.184,760.849,525.119,760.871,525.053Z" transform="translate(-628.351 -444.433)" fill="#0c0e13" opacity="0.75"/>
        <path id="Path_546" data-name="Path 546" d="M761.45,523.5c.013-.048.026-.1.043-.142-.015.046-.028.091-.041.139-.011.033-.02.065-.032.1C761.431,523.561,761.442,523.53,761.45,523.5Z" transform="translate(-628.802 -443.265)" fill="#0c0e13" opacity="0.75"/>
        <path id="Path_547" data-name="Path 547" d="M762.605,519.315c.013-.057.024-.113.035-.168-.011.063-.024.125-.037.188C762.6,519.328,762.605,519.321,762.605,519.315Z" transform="translate(-629.667 -440.187)" fill="#0c0e13" opacity="0.75"/>
        <path id="Path_548" data-name="Path 548" d="M762.88,503.41c-.026-.148-.052-.272-.074-.375C762.83,503.137,762.854,503.262,762.88,503.41Z" transform="translate(-629.816 -428.405)" fill="#0c0e13" opacity="0.75"/>
        <path id="Path_549" data-name="Path 549" d="M762.946,516.731c.007-.035.013-.07.017-.1,0,.035-.009.07-.015.1-.02.122-.039.248-.061.375C762.907,516.981,762.928,516.853,762.946,516.731Z" transform="translate(-629.875 -438.344)" fill="#0c0e13" opacity="0.75"/>
        <path id="Path_550" data-name="Path 550" d="M763.3,514.677c.011-.076.017-.153.026-.225-.007.072-.015.148-.024.225,0,.037-.009.072-.013.109C763.289,514.748,763.294,514.714,763.3,514.677Z" transform="translate(-630.166 -436.754)" fill="#0c0e13" opacity="0.75"/>
        <path id="Path_551" data-name="Path 551" d="M763.422,513.928l.013-.124c0,.041-.006.083-.011.124,0,.018,0,.033,0,.05Z" transform="translate(-630.266 -436.28)" fill="#0c0e13" opacity="0.75"/>
        <path id="Path_552" data-name="Path 552" d="M763.475,512.33c.009-.129.015-.253.02-.375,0,.122-.009.248-.018.375,0,.039,0,.081-.006.122C763.473,512.41,763.475,512.371,763.475,512.33Z" transform="translate(-630.302 -434.928)" fill="#0c0e13" opacity="0.75"/>
        <path id="Path_553" data-name="Path 553" d="M763.471,508.066c0-.345-.016-.658-.04-.936C763.455,507.406,763.471,507.72,763.471,508.066Z" transform="translate(-630.273 -431.4)" fill="#0c0e13" opacity="0.75"/>
        <path id="Path_554" data-name="Path 554" d="M763.566,510.614c0,.115,0,.234-.006.356C763.564,510.848,763.566,510.729,763.566,510.614Z" transform="translate(-630.367 -433.947)" fill="#0c0e13" opacity="0.75"/>
        <path id="Path_555" data-name="Path 555" d="M534.236,520.623c-.009-.05-.015-.1-.021-.157.006.048.012.092.021.136,0,.012,0,.024,0,.035A.134.134,0,0,0,534.236,520.623Z" transform="translate(-462.653 -441.152)" fill="#0c0e13" opacity="0.75"/>
        <path id="Path_556" data-name="Path 556" d="M534.764,523.292c0-.012-.006-.024-.009-.039.009.027.015.053.024.08C534.773,523.321,534.77,523.306,534.764,523.292Z" transform="translate(-463.048 -443.19)" fill="#0c0e13" opacity="0.75"/>
        <path id="Path_557" data-name="Path 557" d="M508.71,520.033v0c-1.332,8.646-6.054,9.958-9.9,9.47-.31-.039-.617-.091-.917-.15-.024-.185-.044-.371-.065-.558v0c-.017-.153-.035-.3-.05-.46-.009-.133-.02-.262-.028-.395-.024-.285-.046-.578-.063-.871,0-.4.013-.8.039-1.205.006-.083.009-.166.017-.248.039-.551.1-1.107.187-1.674.028-.19.061-.381.094-.571.03-.17.063-.34.1-.512.05-.264.107-.529.168-.8.037-.15.074-.3.113-.458.117-.479.25-.963.4-1.447.05-.163.1-.329.152-.492.074-.249.148-.495.227-.743.063-.2.126-.407.194-.612.055-.163.107-.329.164-.493q.183-.549.381-1.1c.115-.316.235-.634.36-.948.059-.153.117-.307.176-.458.022-.061.046-.12.07-.181.015-.033.028-.07.043-.1.1-.249.2-.5.3-.748s.207-.5.318-.747v0l4.535-.793c-.007.072-.013.137-.015.2s-.011.133-.015.2v.009c-.017.253-.026.5-.026.728,0,.338.017.66.048.97.013.142.033.281.055.416.006.05.015.1.024.146a.166.166,0,0,1,.006.028.036.036,0,0,0,.009.033,2.246,2.246,0,0,0,.05.27c.009.035.015.07.026.1.013.057.024.113.039.168s.03.111.046.163c0,0,0,0,0,0a.007.007,0,0,1,0,0,.418.418,0,0,0,.037.1,3.657,3.657,0,0,0,.146.412c.029.074.061.146.1.216,0,0,0,0,0,.006.015.039.037.081.057.12.05.1.107.209.166.316.07.133.144.264.222.39q.056.1.118.19c.039.063.078.126.12.187.083.12.168.24.255.357s.177.231.272.344c.076.092.152.183.235.272.026.028.055.061.087.092.067.074.137.148.209.218.1.1.207.2.314.294a1.078,1.078,0,0,0,.131.116.2.2,0,0,0,.02.02C508.544,519.9,508.627,519.968,508.71,520.033Z" transform="translate(-435.941 -435.497)" fill="#0c0e13"/>
        <path id="Path_558" data-name="Path 558" d="M508.71,520.033v0c-1.332,8.646-6.054,9.958-9.9,9.47-.31-.039-.617-.091-.917-.15-.024-.185-.044-.371-.065-.558v0c-.017-.153-.035-.3-.05-.46-.009-.133-.02-.262-.028-.395-.024-.285-.046-.578-.063-.871,0-.4.013-.8.039-1.205.006-.083.009-.166.017-.248.039-.551.1-1.107.187-1.674.028-.19.061-.381.094-.571.03-.17.063-.34.1-.512.05-.264.107-.529.168-.8.037-.15.074-.3.113-.458.117-.479.25-.963.4-1.447.05-.163.1-.329.152-.492.074-.249.148-.495.227-.743.063-.2.126-.407.194-.612.055-.163.107-.329.164-.493q.183-.549.381-1.1c.115-.316.235-.634.36-.948.059-.153.117-.307.176-.458.022-.061.046-.12.07-.181.015-.033.028-.07.043-.1.1-.249.2-.5.3-.748s.207-.5.318-.747v0l4.535-.793c-.007.072-.013.137-.015.2s-.011.133-.015.2v.009c-.017.253-.026.5-.026.728,0,.338.017.66.048.97.013.142.033.281.055.416.006.05.015.1.024.146a.166.166,0,0,1,.006.028.036.036,0,0,0,.009.033,2.246,2.246,0,0,0,.05.27c.009.035.015.07.026.1.013.057.024.113.039.168s.03.111.046.163c0,0,0,0,0,0a.007.007,0,0,1,0,0,.418.418,0,0,0,.037.1,3.657,3.657,0,0,0,.146.412c.029.074.061.146.1.216,0,0,0,0,0,.006.015.039.037.081.057.12.05.1.107.209.166.316.07.133.144.264.222.39q.056.1.118.19c.039.063.078.126.12.187.083.12.168.24.255.357s.177.231.272.344c.076.092.152.183.235.272.026.028.055.061.087.092.067.074.137.148.209.218.1.1.207.2.314.294a1.078,1.078,0,0,0,.131.116.2.2,0,0,0,.02.02C508.544,519.9,508.627,519.968,508.71,520.033Z" transform="translate(-435.941 -435.497)" opacity="0.75" fill="url(#linear-gradient-2)"/>
        <path id="Path_559" data-name="Path 559" d="M508.307,519.222c.1-.251.2-.5.3-.748-.1.249-.2.5-.3.748-.015.035-.028.072-.044.1Z" transform="translate(-443.679 -439.695)" fill="#0c0e13" opacity="0.75"/>
        <path id="Path_560" data-name="Path 560" d="M527.566,512.733h0c-.007.072-.011.137-.017.2C527.553,512.87,527.56,512.805,527.566,512.733Z" transform="translate(-457.78 -435.497)" fill="#0c0e13" opacity="0.75"/>
        <path id="Path_561" data-name="Path 561" d="M528.354,524.913c.015.055.032.107.048.161v.006s0,0,0,0C528.384,525.024,528.369,524.97,528.354,524.913Z" transform="translate(-458.367 -444.404)" fill="#0c0e13" opacity="0.75"/>
        <path id="Path_562" data-name="Path 562" d="M628.609,421.42l-.014-.01h0Z" transform="translate(-531.671 -368.715)" fill="#0c0e13"/>
        <path id="Path_563" data-name="Path 563" d="M593.833,419.457a.054.054,0,0,0-.021.01" transform="translate(-506.235 -367.287)" fill="none"/>
        <path id="Path_564" data-name="Path 564" d="M613.625,414.944a8.3,8.3,0,0,0-1.547-.312,7.711,7.711,0,0,1,2.772.758A9.594,9.594,0,0,0,613.625,414.944Z" transform="translate(-519.593 -363.758)" fill="#0c0e13"/>
        <path id="Path_565" data-name="Path 565" d="M630.889,423.945c-.073-.116-.153-.226-.236-.335C630.737,423.718,630.815,423.829,630.889,423.945Z" transform="translate(-533.176 -370.324)" fill="#0c0e13"/>
        <path id="Path_566" data-name="Path 566" d="M580.814,440.69c-.12.074-.237.146-.359.216h0s0,0-.006,0q-.885.507-1.652.95a.1.1,0,0,1-.02.011c-.039.024-.078.046-.118.068-.264.144-.527.288-.791.429s-.529.281-.8.421a.07.07,0,0,1-.02.009s-.011,0-.017.006c-.183.1-.368.19-.553.281-.076.041-.153.078-.231.116s-.15.074-.224.111-.155.078-.233.116c-.161.081-.323.159-.486.235s-.32.153-.482.227c-.076.037-.153.074-.231.109-.146.072-.292.139-.44.2-.176.081-.353.161-.529.237-.151.07-.3.135-.449.2-.2.089-.408.177-.612.264-.037.015-.076.033-.115.048-.074.033-.148.061-.222.094h0c-1.48-1.2-4.838-4.905-.688-11.5.388-.089.776-.178,1.164-.27s.771-.185,1.155-.277c.055-.015.111-.028.166-.041s.1-.026.152-.039l.4-.1.675-.17.061-.015.209-.05c.24-.059.477-.122.713-.188.218-.052.434-.111.647-.174l.366-.1.229-.063.166-.05c.135-.039.27-.081.408-.12l.061-.02a.379.379,0,0,0,.063-.02c.124-.035.248-.074.373-.113.207-.063.412-.126.614-.194s.4-.128.6-.2q.6-.2,1.194-.414c.2-.07.394-.142.591-.216q.422-.157.837-.32c.166-.063.329-.129.493-.2.135-.052.27-.109.405-.165.085-.033.17-.068.253-.1s.183-.074.272-.116c.346-.146.689-.3,1.029-.449.089-.039.181-.081.27-.124.12-.052.24-.109.357-.166s.255-.118.379-.179.253-.12.379-.181a1.542,1.542,0,0,0,.144-.083,1.109,1.109,0,0,0,.127-.092.834.834,0,0,0,.111-.1,1.1,1.1,0,0,0,.094-.113l.046-.072c0-.009.009-.015.013-.024a.256.256,0,0,0,.017-.033c.013-.024.026-.05.037-.076a.45.45,0,0,0,.028-.076,0,0,0,0,0,0,0c0-.009.006-.013.006-.022a.113.113,0,0,0,.009-.026s0,0,0-.007,0,0,0-.009,0,0,0,0a.087.087,0,0,0,.006-.022s0,0,0,0a.256.256,0,0,0,.011-.039s0-.007,0-.009a0,0,0,0,0,0,0,.008.008,0,0,0,0-.011s0,0,0,0c.007-.026.011-.052.015-.078,0-.006,0-.011,0-.017s.006-.013,0-.022a.211.211,0,0,0,0-.037.009.009,0,0,0,0-.007.032.032,0,0,0,0-.02c0-.032,0-.065.006-.1a.335.335,0,0,0,0-.046c0-.061,0-.124-.009-.189a.345.345,0,0,0-.011-.061.063.063,0,0,0,0-.02.391.391,0,0,0-.009-.052.5.5,0,0,0-.009-.055.17.17,0,0,0,0-.033.045.045,0,0,0,0-.024c0-.015-.007-.03-.011-.048a.9.9,0,0,0-.022-.1c-.017-.074-.037-.148-.061-.224a.058.058,0,0,1-.006-.018c-.024-.074-.05-.148-.076-.222s-.065-.164-.1-.251v0c-.037-.085-.072-.174-.116-.266h0c-.031-.068-.063-.137-.1-.207-.011-.024-.022-.05-.035-.074C588.637,429.758,585.612,437.655,580.814,440.69Z" transform="translate(-488.479 -371.852)" fill="#0c0e13"/>
        <path id="Path_567" data-name="Path 567" d="M580.814,440.69c-.12.074-.237.146-.359.216h0s0,0-.006,0q-.885.507-1.652.95a.1.1,0,0,1-.02.011c-.039.024-.078.046-.118.068-.264.144-.527.288-.791.429s-.529.281-.8.421a.07.07,0,0,1-.02.009s-.011,0-.017.006c-.183.1-.368.19-.553.281-.076.041-.153.078-.231.116s-.15.074-.224.111-.155.078-.233.116c-.161.081-.323.159-.486.235s-.32.153-.482.227c-.076.037-.153.074-.231.109-.146.072-.292.139-.44.2-.176.081-.353.161-.529.237-.151.07-.3.135-.449.2-.2.089-.408.177-.612.264-.037.015-.076.033-.115.048-.074.033-.148.061-.222.094h0c-1.48-1.2-4.838-4.905-.688-11.5.388-.089.776-.178,1.164-.27s.771-.185,1.155-.277c.055-.015.111-.028.166-.041s.1-.026.152-.039l.4-.1.675-.17.061-.015.209-.05c.24-.059.477-.122.713-.188.218-.052.434-.111.647-.174l.366-.1.229-.063.166-.05c.135-.039.27-.081.408-.12l.061-.02a.379.379,0,0,0,.063-.02c.124-.035.248-.074.373-.113.207-.063.412-.126.614-.194s.4-.128.6-.2q.6-.2,1.194-.414c.2-.07.394-.142.591-.216q.422-.157.837-.32c.166-.063.329-.129.493-.2.135-.052.27-.109.405-.165.085-.033.17-.068.253-.1s.183-.074.272-.116c.346-.146.689-.3,1.029-.449.089-.039.181-.081.27-.124.12-.052.24-.109.357-.166s.255-.118.379-.179.253-.12.379-.181a1.542,1.542,0,0,0,.144-.083,1.109,1.109,0,0,0,.127-.092.834.834,0,0,0,.111-.1,1.1,1.1,0,0,0,.094-.113l.046-.072c0-.009.009-.015.013-.024a.256.256,0,0,0,.017-.033c.013-.024.026-.05.037-.076a.45.45,0,0,0,.028-.076,0,0,0,0,0,0,0c0-.009.006-.013.006-.022a.113.113,0,0,0,.009-.026s0,0,0-.007,0,0,0-.009,0,0,0,0a.087.087,0,0,0,.006-.022s0,0,0,0a.256.256,0,0,0,.011-.039s0-.007,0-.009a0,0,0,0,0,0,0,.008.008,0,0,0,0-.011s0,0,0,0c.007-.026.011-.052.015-.078,0-.006,0-.011,0-.017s.006-.013,0-.022a.211.211,0,0,0,0-.037.009.009,0,0,0,0-.007.032.032,0,0,0,0-.02c0-.032,0-.065.006-.1a.335.335,0,0,0,0-.046c0-.061,0-.124-.009-.189a.345.345,0,0,0-.011-.061.063.063,0,0,0,0-.02.391.391,0,0,0-.009-.052.5.5,0,0,0-.009-.055.17.17,0,0,0,0-.033.045.045,0,0,0,0-.024c0-.015-.007-.03-.011-.048a.9.9,0,0,0-.022-.1c-.017-.074-.037-.148-.061-.224a.058.058,0,0,1-.006-.018c-.024-.074-.05-.148-.076-.222s-.065-.164-.1-.251v0c-.037-.085-.072-.174-.116-.266h0c-.031-.068-.063-.137-.1-.207-.011-.024-.022-.05-.035-.074C588.637,429.758,585.612,437.655,580.814,440.69Z" transform="translate(-488.479 -371.852)" opacity="0.75" fill="url(#linear-gradient-3)"/>
        <path id="Path_568" data-name="Path 568" d="M579.539,497.428c.074-.033.148-.061.222-.094l-.222.1,0,0Z" transform="translate(-495.796 -424.236)" fill="#0c0e13" opacity="0.5"/>
        <path id="Path_569" data-name="Path 569" d="M582.46,452.742c.055-.013.111-.028.166-.039-.055.013-.111.026-.166.041-.383.092-.767.185-1.155.277Q581.883,452.884,582.46,452.742Z" transform="translate(-497.089 -391.599)" fill="#0c0e13" opacity="0.5"/>
        <path id="Path_570" data-name="Path 570" d="M588.59,492.76c.161-.074.322-.15.482-.227-.238.116-.475.229-.713.336C588.438,492.835,588.514,492.8,588.59,492.76Z" transform="translate(-502.247 -420.726)" fill="#0c0e13" opacity="0.5"/>
        <path id="Path_571" data-name="Path 571" d="M593.052,490.926c.074-.037.148-.076.224-.111-.15.078-.3.153-.458.227C592.9,491,592.974,490.965,593.052,490.926Z" transform="translate(-505.509 -419.469)" fill="#0c0e13" opacity="0.5"/>
        <path id="Path_572" data-name="Path 572" d="M591.925,450.627c-.235.065-.473.129-.713.188l-.209.05.209-.052C591.452,450.751,591.689,450.69,591.925,450.627Z" transform="translate(-504.181 -390.08)" fill="#0c0e13" opacity="0.5"/>
        <path id="Path_573" data-name="Path 573" d="M598.2,449.281c.133-.037.264-.074.394-.113-.054.017-.111.033-.165.05Z" transform="translate(-509.447 -389.014)" fill="#0c0e13" opacity="0.5"/>
        <path id="Path_574" data-name="Path 574" d="M600.079,448.669c-.137.039-.273.081-.408.12.157-.046.314-.092.469-.14Z" transform="translate(-510.52 -388.634)" fill="#0c0e13" opacity="0.5"/>
        <path id="Path_575" data-name="Path 575" d="M601.338,485.936c.039-.022.078-.043.118-.068-.039.024-.078.048-.118.07-.262.144-.527.285-.791.427C600.811,486.223,601.074,486.079,601.338,485.936Z" transform="translate(-511.16 -415.851)" fill="#0c0e13" opacity="0.5"/>
        <path id="Path_576" data-name="Path 576" d="M632.663,427.013v0c-.037-.087-.076-.177-.118-.27h0C632.591,426.838,632.626,426.928,632.663,427.013Z" transform="translate(-534.559 -372.618)" fill="#0c0e13" opacity="0.5"/>
        <path id="Path_577" data-name="Path 577" d="M633.227,428.467a.875.875,0,0,1,.022.1,4.987,4.987,0,0,0-.266-.819c.035.087.07.168.1.251s.052.148.076.222a.061.061,0,0,0,.006.018C633.19,428.318,633.21,428.393,633.227,428.467Z" transform="translate(-534.88 -373.353)" fill="#0c0e13" opacity="0.5"/>
        <path id="Path_578" data-name="Path 578" d="M633.987,430.873a.161.161,0,0,1,0,.033.913.913,0,0,0-.02-.1c0,.017.009.033.011.048A.045.045,0,0,1,633.987,430.873Z" transform="translate(-535.603 -375.582)" fill="#0c0e13" opacity="0.5"/>
        <path id="Path_579" data-name="Path 579" d="M634.128,433.371c0,.009,0,.013,0,.022A.072.072,0,0,0,634.128,433.371Z" transform="translate(-535.716 -377.462)" fill="#0c0e13" opacity="0.5"/>
        <path id="Path_580" data-name="Path 580" d="M634.15,433.162a.1.1,0,0,0,0-.026.031.031,0,0,1,0,.02A.009.009,0,0,1,634.15,433.162Z" transform="translate(-535.733 -377.29)" fill="#0c0e13" opacity="0.5"/>
        <path id="Path_581" data-name="Path 581" d="M634.135,431.957v-.046a2.057,2.057,0,0,0-.018-.25.358.358,0,0,1,.011.061,1.9,1.9,0,0,1,.009.189A.336.336,0,0,1,634.135,431.957Z" transform="translate(-535.71 -376.211)" fill="#0c0e13" opacity="0.5"/>
        <path id="Path_582" data-name="Path 582" d="M487.294,295.743q-.108,1.791-.371,4.521a24.862,24.862,0,0,1-1.05,5.2,8.743,8.743,0,0,1-2.261,3.838,3.146,3.146,0,0,1-2.312.947,5.679,5.679,0,0,1-1.787-.315,6.074,6.074,0,0,1-1.839-1.472,9.349,9.349,0,0,1-1.1-1.681,4.267,4.267,0,0,1-.734,1.89,6.77,6.77,0,0,1-1.526,1.629,9.618,9.618,0,0,1-1.722,1.05c-.062.031-.12.058-.182.086l-.041.02a6.73,6.73,0,0,1-2,.58,4.256,4.256,0,0,1-3.523-1.527,6.083,6.083,0,0,1-1.1-3.2v-.84a13.816,13.816,0,0,1,.316-2.943c.243-1.084.48-2.038.72-2.864l.014-.045c.01-.041.024-.082.038-.124a.155.155,0,0,1,.014-.038l.1-.278.093-.25.134-.381.031-.089a9.932,9.932,0,0,1,.436-.977c.281-.559.631-.841,1.053-.841v.1a6.134,6.134,0,0,1-.106.841,10.59,10.59,0,0,0-.315,1.787,11.482,11.482,0,0,0-.1,1.578v.525a3.232,3.232,0,0,0,.525,1.839,2.788,2.788,0,0,0,1.681,1.1h.782a6.291,6.291,0,0,0,1.039-.11,12.108,12.108,0,0,0,1.228-.309,2.975,2.975,0,0,0,1.523-1,5.55,5.55,0,0,0,.861-1.328v0c.055-.12.11-.24.154-.364.014-.031.024-.058.034-.089.247-.665.473-1.348.686-2.051a6.443,6.443,0,0,0,.315-1.787l1.574-1.578v.106a.459.459,0,0,1-.052.209.442.442,0,0,0-.051.213v1.259a10.548,10.548,0,0,0,.1,1.471,3.147,3.147,0,0,0,1.053,2.209,3.409,3.409,0,0,0,2.312,1.365h.209a2.549,2.549,0,0,0,1.893-1.1,7.709,7.709,0,0,0,1.156-2.47,10.642,10.642,0,0,0,.209-2.1v-.418Z" transform="translate(-412.584 -276.818)" fill="#0c0e13"/>
      </g>
    </g>
  </g>
</svg>
