<svg xmlns="http://www.w3.org/2000/svg" width="219.021" height="69.106" viewBox="0 0 219.021 69.106">
  <g id="Group_77" data-name="Group 77" transform="translate(7306.279 -3682.834)">
    <path id="Path_380" data-name="Path 380" d="M-7288.751,3692.438q-3.393.636-6.784,1.237t-6.785,1.237l4.24-8.41q7.351-1.342,13.569-2.544Z" transform="translate(-2.758 -0.782)"/>
    <path id="Path_381" data-name="Path 381" d="M-7291.013,3754.5a24.821,24.821,0,0,1-2.687,7.173,9.489,9.489,0,0,1-6.289,4.347,11.466,11.466,0,0,1-2.616.353q-3.674,0-3.675-4.029v-.071a35.629,35.629,0,0,1,2.121-11.59q2.966-8.834,5.937-11.52a5.345,5.345,0,0,1,3.463-1.837,2.549,2.549,0,0,1,1.483.494q2.051,1.414,2.827,6.008a22.018,22.018,0,0,1,.283,3.6A32.786,32.786,0,0,1-7291.013,3754.5Zm-5.583-7a2.8,2.8,0,0,0-1.484-.5q-1.626,0-3.04,2.827-1.979,4.1-2.19,4.806v.212c0,.283.328.565.99.848a6.049,6.049,0,0,0,2.473.565,6.215,6.215,0,0,0,1.838-.283,12.934,12.934,0,0,0,3.746-1.555.913.913,0,0,0,.353-.848,7.5,7.5,0,0,0-.706-2.615Q-7295.89,3747.993-7296.6,3747.5Z" transform="translate(0 -37.963)"/>
    <path id="Path_382" data-name="Path 382" d="M-7188.806,3751.308q-1.485,1.837-2.9,3.64t-2.9,3.569l-4.947-4.664q1.414-1.838,2.862-3.6t2.933-3.6Z" transform="translate(-74.361 -44.458)"/>
    <path id="Path_383" data-name="Path 383" d="M-7233.042,3827.895a9.678,9.678,0,0,0-1.873,2.226q-.813,1.309-1.52,2.721-1.909,3.606-4.877,4.382a14.619,14.619,0,0,1-6.36-.142q-1.2-.211-5.8-1.661a24.422,24.422,0,0,1-5.513-2.156q-.565-.494.425-.918a63.618,63.618,0,0,1,10.318-2.615q5.442-.918,10.6-2.261a6.3,6.3,0,0,0,3.251-2.05v.071a1.3,1.3,0,0,1,1.2-.565c.849.142,1.177.731.99,1.767A1.592,1.592,0,0,1-7233.042,3827.895Z" transform="translate(-32.81 -98.994)"/>
    <path id="Path_384" data-name="Path 384" d="M-7156.618,3868.844q-3.393.636-6.785,1.237t-6.785,1.237l4.241-8.41q7.349-1.342,13.569-2.544Z" transform="translate(-94.818 -123.689)"/>
    <path id="Path_385" data-name="Path 385" d="M-7165.041,3807.576q-2.9.5-5.795.954t-2.4-2.862q.069-1.13-3.075-.389a49.464,49.464,0,0,0-5.477,1.59,15.273,15.273,0,0,0-2.474,1.908l-.07.071q-.99,1.412-1.8.742a2,2,0,0,1-.53-2.085c-.047-.046.035-.248.247-.6s.365-.624.46-.812q.494-1.2.954-2.58a20.127,20.127,0,0,1,1.1-2.651q1.129-2.19,6.607-3.922t8.021-1.449q.918.071.848.848a1.92,1.92,0,0,0,.885,2.191,4.378,4.378,0,0,0,2.65.354Z" transform="translate(-83.286 -78.463)"/>
    <path id="Path_386" data-name="Path 386" d="M-7111.361,3775.618q.917-2.05,2.685-5.972t3.6-3.922a14.532,14.532,0,0,1,4.56-.283q3.286.143,2.791,2.756a22.8,22.8,0,0,1-1.7,5.583,26.382,26.382,0,0,1-2.473,3.6,19.427,19.427,0,0,1-6.433,4.665,36.361,36.361,0,0,1-7,2.756q-3.393.919-7.068,1.767-.706.143-1.413.354c-.471.142-.943.26-1.413.354l1.554-9.117A64.64,64.64,0,0,0-7111.361,3775.618Z" transform="translate(-126.152 -57.529)"/>
    <path id="Path_387" data-name="Path 387" d="M-7055.75,3695.263a3.724,3.724,0,0,1,0-3.04q.706-2.189,1.626-4.523a10.523,10.523,0,0,1,2.686-3.958,4.113,4.113,0,0,1,3.286-.884q2.155.179,4.064.389.989.071,1.061.883a7.615,7.615,0,0,1,0,1.449,32.193,32.193,0,0,1-2.827,8.269,18.043,18.043,0,0,1-6.433,6.856,25.1,25.1,0,0,1-4.558,2.332l-4.559,1.767a42.445,42.445,0,0,0-3.888,1.837,13.348,13.348,0,0,0-3.321,2.544,12.508,12.508,0,0,0-2.686,4.241l-1.484-.142q.776-1.765,1.449-3.356t1.308-3a26.579,26.579,0,0,1,3.109-5.725,13.083,13.083,0,0,1,5.229-3.958,27.516,27.516,0,0,1,5.159-1.767A1.093,1.093,0,0,1-7055.75,3695.263Z" transform="translate(-162.682 0)"/>
    <path id="Path_388" data-name="Path 388" d="M-6896.756,3733.959q.069-.14,1.909-2.12t4.063-4.346q2.225-2.367,4.24-4.452t2.509-2.58a10.061,10.061,0,0,1,4.947-2.12,5.078,5.078,0,0,1,5.159,1.484,4.684,4.684,0,0,1,.636,5.583,44.051,44.051,0,0,1-3.321,5.3q-5.584,7.421-13.393,9.224t-15.937,3a34,34,0,0,1-4.947,11.52,20.433,20.433,0,0,1-9.823,7.774q-5.937,2.189-10.142.141t-4.771-8.834q-.565-6.784,6.148-19.082.423-.848.848-.636t0,1.484q-.848,1.839-2.12,4.347a25.948,25.948,0,0,0-1.943,5.018,9.54,9.54,0,0,0-.142,4.735,5.14,5.14,0,0,0,3.357,3.428,20.685,20.685,0,0,0,11.343-.849,26.615,26.615,0,0,0,8.517-5.088,22.128,22.128,0,0,0-.494-5.442q-.567-2.473-1.272-4.806l3.816-8.834q1.342,2.969,1.979,4.629a2.97,2.97,0,0,0,2.05,2.014,9.454,9.454,0,0,0,3.993,0Q-6897.251,3734.031-6896.756,3733.959Zm16.609-6.219a3.87,3.87,0,0,0-2.4-1.662,3.8,3.8,0,0,0-3.181.319,19.612,19.612,0,0,0-4.417,3.251q-1.944,1.907-3.922,3.887,3.746-.707,7.244-1.59a33.612,33.612,0,0,0,6.537-2.368Q-6879.371,3729.225-6880.146,3727.741Z" transform="translate(-258.212 -24.636)"/>
    <path id="Path_389" data-name="Path 389" d="M-6795.578,3781.157a45.412,45.412,0,0,1-2.05,5.018,2.707,2.707,0,0,0,1.343.283h.354a8.55,8.55,0,0,0,1.767-.142v-.07h.07l.141-.071q3.04-3.462,6.22-6.856t6.573-6.572a10.518,10.518,0,0,1,4.947-2.191,8.007,8.007,0,0,1,1.413-.141,4.562,4.562,0,0,1,3.676,1.7,4.856,4.856,0,0,1,1.342,3.181,5.4,5.4,0,0,1-.635,2.4,30.846,30.846,0,0,1-3.322,5.3,24.239,24.239,0,0,1-8.552,7.173,40.571,40.571,0,0,1-10.53,3.569,41.7,41.7,0,0,1-6.785.849h-.282q-2.546,0-2.545-1.414a1.253,1.253,0,0,1,.142-.565,47.612,47.612,0,0,1-5.371,1.625,53.218,53.218,0,0,1-7.986,1.414q-1.484.142-2.969.141a26.014,26.014,0,0,1-4.806-.424q-3.6-.636-4.665-3.392a7.226,7.226,0,0,1-.494-3.039,17.371,17.371,0,0,1,2.262-7.774,76.025,76.025,0,0,1,5.018-8.834.9.9,0,0,1,.354-.212h.141c.095,0,.142.071.142.212a1.207,1.207,0,0,1-.07.283q-2.687,5.372-2.686,8.552v.494a4.123,4.123,0,0,0,2.579,3.887,14.809,14.809,0,0,0,5.619,1.131h.706a34.01,34.01,0,0,0,5.726-.495q3.18-.565,5.018-1.061a21.379,21.379,0,0,0,5.018-1.979,6.1,6.1,0,0,0,2.828-2.968.782.782,0,0,1,.281-.283c.047,0,.095.141.143.424A2.772,2.772,0,0,1-6795.578,3781.157Zm18.3-1.131a3.994,3.994,0,0,0-2.4-1.7,3.378,3.378,0,0,0-1.343-.141,4.491,4.491,0,0,0-1.908.424,19.1,19.1,0,0,0-4.417,3.286q-1.945,1.945-3.853,3.923,3.746-.707,7.245-1.59a33.61,33.61,0,0,0,6.536-2.367.73.73,0,0,0,.425-.707A1.99,1.99,0,0,0-6777.273,3780.025Z" transform="translate(-332.816 -61.019)"/>
    <path id="Path_390" data-name="Path 390" d="M-6634.4,3739.28q-3.391.636-6.784,1.237t-6.784,1.236l4.24-8.41q7.349-1.342,13.569-2.544Z" transform="translate(-458.662 -33.418)"/>
    <path id="Path_391" data-name="Path 391" d="M-6698.541,3819.538a22.99,22.99,0,0,1-7.279,5.124,57.423,57.423,0,0,1-9.964,3.64,64.228,64.228,0,0,1-10.531,1.908q-2.546.212-4.735.283a31.027,31.027,0,0,1-4.381-.283q-4.524-.636-5.23-3.816a18.636,18.636,0,0,1-.284-2.4,14.7,14.7,0,0,1,.778-4.523,33.558,33.558,0,0,1,3.181-7.35q2.049-3.533,3.18-5.089a.407.407,0,0,1,.284-.142h.21c.094,0,.143.071.143.212a1.219,1.219,0,0,1-.071.283q-2.829,5.511-2.827,8.551a4.158,4.158,0,0,0,.494,2.121q1.554,2.9,5.938,3.109a11.108,11.108,0,0,1,1.2.071,44.985,44.985,0,0,0,5.866-.5q4.663-.565,9.611-1.661a92.622,92.622,0,0,0,9.293-2.544,18.364,18.364,0,0,0,6.184-3.074l-.848-2.544q-.706-2.048-1.271-2.12a.228.228,0,0,0-.213.142,8.059,8.059,0,0,1-2.9,1.555,4.9,4.9,0,0,1-1.414.212,4.067,4.067,0,0,1-2.049-.565,2.048,2.048,0,0,1-1.061-1.908v-.212a4.973,4.973,0,0,1,.5-2.261q1.2-2.12,2.261-4.417a26.225,26.225,0,0,1,2.473-4.276,2.9,2.9,0,0,1,2.261-1.484,2.745,2.745,0,0,1,1.625.636,11.045,11.045,0,0,1,3.463,4.1,11.759,11.759,0,0,1,1.272,5.725,18.325,18.325,0,0,1-.5,4.17A21.254,21.254,0,0,1-6698.541,3819.538Z" transform="translate(-393.881 -78.552)"/>
  </g>
</svg>
