<svg xmlns="http://www.w3.org/2000/svg" width="50.473" height="55.764" viewBox="0 0 50.473 55.764">
  <g id="Group_58" data-name="Group 58" transform="translate(0 0)">
    <path id="Path_460" data-name="Path 460" d="M1435.823,202.845l-11.88,10.5a.644.644,0,0,0-.211.408l-.46,4.067a.122.122,0,0,1-.238.021l-1.883-6.061a.643.643,0,0,1,.273-.733l14.029-8.7A.311.311,0,0,1,1435.823,202.845Z" transform="translate(-1401.605 -182.015)" fill="#0c0e13"/>
    <path id="Path_461" data-name="Path 461" d="M1409.355,161.381c-.163-.128-.329-.256-.5-.387-2.45-1.89-5.663-4.209-9.7-6.983q-3.333-2.224-6.092-3.974c-.346-.218-.688-.432-1.019-.643-6.154-3.863-9.893-5.791-10.926-5.791a3.719,3.719,0,0,0-2.778,2.08l-5.937,12.5-.688,1.448-2.536,5.339-.232.491-3.787,7.972c-.695,1.389-.695,2.084,0,2.778q2.167,1.353,4.333,2.744c.128.083.256.166.387.249q4.152,2.675,8.272,5.477,5.624,3.82,11.116,7.885l.8.594q3.9,2.913,7.7,5.947c1.389.691,2.084,0,3.473-2.08q.663-1.047,1.293-2.059c8.79-14.084,12.581-23.141,12.581-27.775C1415.111,166.343,1413.3,164.46,1409.355,161.381Zm-5.526-.086-4.368,20.874a1.375,1.375,0,0,1-2.16.829l-6.6-4.841-3.359,3.431a1.114,1.114,0,0,1-1.859-.446l-2.426-7.7-6.5-1.918a.934.934,0,0,1-.076-1.766l25.577-9.966A1.316,1.316,0,0,1,1403.829,161.295Z" transform="translate(-1364.638 -143.603)" fill="#0c0e13"/>
  </g>
</svg>
