<svg xmlns="http://www.w3.org/2000/svg" width="50.473" height="55.765" viewBox="0 0 50.473 55.765">
  <g id="Group_56" data-name="Group 56" transform="translate(0 0)">
    <g id="Group_55" data-name="Group 55" transform="translate(0 0)">
      <path id="Path_440" data-name="Path 440" d="M647.125,161.376q-.242-.19-.5-.385c-2.452-1.892-5.664-4.209-9.7-6.986q-3.334-2.223-6.092-3.971-.52-.331-1.021-.645c-6.154-3.861-9.892-5.792-10.927-5.792a3.723,3.723,0,0,0-2.776,2.081l-5.937,12.5-.689,1.45-2.536,5.34-.233.489-3.786,7.973c-.7,1.389-.7,2.081,0,2.776q2.166,1.355,4.332,2.744l.387.249q4.151,2.672,8.275,5.477,5.618,3.818,11.114,7.884l.8.6q3.9,2.91,7.7,5.945c1.389.691,2.084,0,3.471-2.081q.667-1.047,1.3-2.059c8.791-14.083,12.58-23.14,12.58-27.774C652.882,166.34,651.069,164.454,647.125,161.376Zm-22.916,23.813V171.3h-2.9v-4.7h2.9v-3.735c0-3.471,1.846-5.273,5.977-5.273h3.867v4.834h-3.032c-1.055,0-1.275.44-1.275,1.538V166.6h4.307l-.4,4.658h-3.911v13.93Z" transform="translate(-602.409 -143.597)" fill="#0c0e13"/>
    </g>
  </g>
</svg>
