<svg xmlns="http://www.w3.org/2000/svg" width="50.473" height="55.764" viewBox="0 0 50.473 55.764">
  <g id="Group_57" data-name="Group 57" transform="translate(0 0)">
    <path id="Path_443" data-name="Path 443" d="M1227.287,183.513a12.047,12.047,0,0,0-1.935,2.84,17.854,17.854,0,0,0-.957,2.277c-.128-.066-.252-.138-.377-.211-.1-.055-.19-.114-.28-.169a14.971,14.971,0,0,1-2.143-1.614A14.483,14.483,0,0,1,1227.287,183.513Z" transform="translate(-1206.061 -169.722)" fill="#0c0e13"/>
    <path id="Path_444" data-name="Path 444" d="M1237.609,181.923v7.509a15.875,15.875,0,0,1-1.994-.249c-.111-.024-.214-.045-.318-.066a14.575,14.575,0,0,1-3.231-1.106,17.3,17.3,0,0,1,.888-2.118,8.438,8.438,0,0,1,3.383-3.87c.373-.045.746-.079,1.123-.1C1237.508,181.923,1237.557,181.923,1237.609,181.923Z" transform="translate(-1212.913 -168.682)" fill="#0c0e13"/>
    <path id="Path_445" data-name="Path 445" d="M1256.829,188.267a14.488,14.488,0,0,1-3.293.971c-.1.017-.2.035-.318.052a14.841,14.841,0,0,1-2.042.162v-7.529c.059,0,.117,0,.173.007.37.017.746.048,1.116.093a8.406,8.406,0,0,1,3.386,3.87A17.846,17.846,0,0,1,1256.829,188.267Z" transform="translate(-1225.42 -168.682)" fill="#0c0e13"/>
    <path id="Path_446" data-name="Path 446" d="M1267.282,186.917a14.78,14.78,0,0,1-2.319,1.624c-.1.059-.2.111-.287.159-.138.073-.276.145-.415.211a18.605,18.605,0,0,0-1.057-2.571,12.211,12.211,0,0,0-1.939-2.847A14.509,14.509,0,0,1,1267.282,186.917Z" transform="translate(-1232.023 -169.709)" fill="#0c0e13"/>
    <path id="Path_447" data-name="Path 447" d="M1237.609,244.933v7.509c-.052,0-.1,0-.149-.007q-.56-.026-1.12-.093a8.4,8.4,0,0,1-3.386-3.87,17.077,17.077,0,0,1-.888-2.118,14.636,14.636,0,0,1,3.231-1.106c.1-.021.207-.041.318-.066A15.875,15.875,0,0,1,1237.609,244.933Z" transform="translate(-1212.913 -209.919)" fill="#0c0e13"/>
    <path id="Path_448" data-name="Path 448" d="M1256.829,246.055a17.9,17.9,0,0,1-.978,2.377,8.406,8.406,0,0,1-3.386,3.87q-.56.067-1.12.093c-.055,0-.111,0-.169.007v-7.529a14.936,14.936,0,0,1,2.046.162l.314.052A14.771,14.771,0,0,1,1256.829,246.055Z" transform="translate(-1225.42 -209.88)" fill="#0c0e13"/>
    <path id="Path_449" data-name="Path 449" d="M1267.293,251.414a14.55,14.55,0,0,1-6.037,3.411,12.113,12.113,0,0,0,1.942-2.847,18.179,18.179,0,0,0,1.057-2.574c.142.069.28.138.418.214l.283.159A14.558,14.558,0,0,1,1267.293,251.414Z" transform="translate(-1232.017 -212.844)" fill="#0c0e13"/>
    <path id="Path_450" data-name="Path 450" d="M1227.262,255.381a14.587,14.587,0,0,1-5.715-3.117,15.379,15.379,0,0,1,2.156-1.628c.093-.055.187-.114.28-.169.125-.073.252-.145.38-.214a17.732,17.732,0,0,0,.957,2.281A12.113,12.113,0,0,0,1227.262,255.381Z" transform="translate(-1206.029 -213.401)" fill="#0c0e13"/>
    <path id="Path_451" data-name="Path 451" d="M1214.708,233.293c-.183.1-.363.2-.542.308-.1.055-.193.114-.3.176a16.178,16.178,0,0,0-2.416,1.828,14.6,14.6,0,0,1-4.146-9.682h6.334A28.016,28.016,0,0,0,1214.708,233.293Z" transform="translate(-1196.709 -197.478)" fill="#0c0e13"/>
    <path id="Path_452" data-name="Path 452" d="M1214.7,196.981a28.069,28.069,0,0,0-1.068,7.436H1207.3a14.526,14.526,0,0,1,4.163-9.734,16.2,16.2,0,0,0,2.4,1.814l.293.176C1214.335,196.78,1214.519,196.881,1214.7,196.981Z" transform="translate(-1196.703 -177.033)" fill="#0c0e13"/>
    <path id="Path_453" data-name="Path 453" d="M1235.1,203.974v5.574h-6.87a26.79,26.79,0,0,1,1-7.025,15.754,15.754,0,0,0,3.369,1.123c.124.024.232.048.332.066A16.194,16.194,0,0,0,1235.1,203.974Z" transform="translate(-1210.4 -182.163)" fill="#0c0e13"/>
    <path id="Path_454" data-name="Path 454" d="M1235.1,225.923v5.508a16.077,16.077,0,0,0-2.163.263c-.1.017-.211.041-.335.066a15.764,15.764,0,0,0-3.369,1.126,26.785,26.785,0,0,1-1-6.963Z" transform="translate(-1210.4 -197.478)" fill="#0c0e13"/>
    <path id="Path_455" data-name="Path 455" d="M1258.07,225.923a26.835,26.835,0,0,1-.933,6.7,15.773,15.773,0,0,0-3.442-.992c-.1-.017-.207-.035-.335-.052a15.858,15.858,0,0,0-2.184-.173v-5.487Z" transform="translate(-1225.42 -197.478)" fill="#0c0e13"/>
    <path id="Path_456" data-name="Path 456" d="M1258.07,210.026h-6.894v-5.553a15.853,15.853,0,0,0,2.184-.173c.128-.017.235-.035.332-.052a15.65,15.65,0,0,0,3.448-1A26.89,26.89,0,0,1,1258.07,210.026Z" transform="translate(-1225.42 -182.641)" fill="#0c0e13"/>
    <path id="Path_457" data-name="Path 457" d="M1278.178,225.923a14.611,14.611,0,0,1-3.528,9c-.1.121-.211.242-.321.359a16.159,16.159,0,0,0-2.605-1.831c-.093-.052-.19-.107-.3-.166-.187-.1-.377-.2-.567-.29a28.129,28.129,0,0,0,.985-7.077Z" transform="translate(-1238.3 -197.478)" fill="#0c0e13"/>
    <path id="Path_458" data-name="Path 458" d="M1278.182,205.013h-6.341a28.344,28.344,0,0,0-.985-7.142c.19-.093.38-.19.567-.29.107-.059.207-.111.3-.166a16.034,16.034,0,0,0,2.592-1.821A14.613,14.613,0,0,1,1278.182,205.013Z" transform="translate(-1238.3 -177.628)" fill="#0c0e13"/>
    <path id="Path_459" data-name="Path 459" d="M1221.355,161.381c-.163-.128-.329-.256-.5-.387-2.45-1.89-5.663-4.209-9.7-6.983q-3.333-2.224-6.092-3.974c-.346-.218-.688-.432-1.019-.643-6.154-3.863-9.893-5.791-10.926-5.791a3.72,3.72,0,0,0-2.778,2.08l-5.936,12.5-.688,1.448-2.536,5.339-.231.491-3.787,7.972c-.695,1.389-.695,2.084,0,2.778q2.167,1.353,4.333,2.744c.128.083.256.166.387.249q4.152,2.675,8.272,5.477,5.624,3.82,11.116,7.885l.8.594q3.9,2.913,7.7,5.947c1.389.691,2.084,0,3.473-2.08q.663-1.047,1.293-2.059c8.79-14.084,12.581-23.141,12.581-27.775C1227.111,166.343,1225.3,164.46,1221.355,161.381Zm-7.882,21.7a16.4,16.4,0,1,1-23.193-23.193c.042-.045.083-.086.128-.128.086-.083.169-.166.256-.245a16.4,16.4,0,0,1,22.771.335l.038.038c.073.073.142.145.214.218a16.4,16.4,0,0,1-.214,22.975Z" transform="translate(-1176.638 -143.603)" fill="#0c0e13"/>
  </g>
</svg>
