<svg xmlns="http://www.w3.org/2000/svg" width="50.473" height="55.764" viewBox="0 0 50.473 55.764">
  <path id="Path_441" data-name="Path 441" d="M840.241,161.381c-.162-.128-.328-.256-.5-.387-2.45-1.89-5.663-4.209-9.7-6.983q-3.333-2.224-6.092-3.974c-.345-.218-.688-.432-1.019-.643-6.154-3.863-9.893-5.791-10.926-5.791a3.719,3.719,0,0,0-2.778,2.08l-5.936,12.5-.688,1.448-2.536,5.339-.232.491-3.787,7.972c-.695,1.389-.695,2.084,0,2.778q2.167,1.353,4.333,2.744c.128.083.256.166.387.249q4.152,2.675,8.272,5.477,5.624,3.82,11.116,7.885l.8.594q3.9,2.913,7.7,5.947c1.389.691,2.084,0,3.473-2.08q.663-1.047,1.292-2.059C842.207,180.884,846,171.827,846,167.193,846,166.343,844.183,164.46,840.241,161.381Zm-17.73,21.5-1.755,2.564L819,182.881c-1.2-1.714-7.187-10.612-7.187-14.8a8.943,8.943,0,0,1,17.885,0C829.7,172.269,823.706,181.167,822.511,182.881Zm-1.755-19.465a4.673,4.673,0,0,0-4.665,4.661c0,1.541,2.18,5.778,4.665,9.713,2.481-3.936,4.665-8.172,4.665-9.713A4.673,4.673,0,0,0,820.755,163.417Zm0,8.127A3.274,3.274,0,1,1,824,168.289,3.278,3.278,0,0,1,820.755,171.544Z" transform="translate(-795.525 -143.603)" fill="#0c0e13"/>
</svg>
