<svg xmlns="http://www.w3.org/2000/svg" width="50.473" height="55.765" viewBox="0 0 50.473 55.765">
  <g id="Group_54" data-name="Group 54" transform="translate(0 0)">
    <g id="Group_53" data-name="Group 53" transform="translate(0 0)">
      <circle id="Ellipse_1" data-name="Ellipse 1" cx="4.182" cy="4.182" r="4.182" transform="translate(21.055 24.165)" fill="#0c0e13"/>
      <path id="Path_439" data-name="Path 439" d="M444.786,166.927a8.041,8.041,0,0,0-.44-2.377,4.013,4.013,0,0,0-.969-1.452,3.743,3.743,0,0,0-1.408-.925,6.485,6.485,0,0,0-2.333-.44c-1.32,0-1.717-.088-5.062-.088s-3.741.088-5.062.088a6.48,6.48,0,0,0-2.333.44,3.587,3.587,0,0,0-1.453.925,3.9,3.9,0,0,0-.924,1.452,6.783,6.783,0,0,0-.44,2.377c-.088,1.276-.088,1.673-.088,5.018s0,3.786.088,5.063a6.462,6.462,0,0,0,.44,2.332,3.906,3.906,0,0,0,.924,1.453,3.174,3.174,0,0,0,1.453.924,6.468,6.468,0,0,0,2.333.44c1.32.044,1.716.044,5.062.044s3.742,0,5.062-.044a6.473,6.473,0,0,0,2.333-.44,3.278,3.278,0,0,0,1.408-.924,4.02,4.02,0,0,0,.969-1.453,7.644,7.644,0,0,0,.44-2.332c.044-1.276.044-1.717.044-5.063S444.83,168.2,444.786,166.927Zm-10.212,11.445A6.4,6.4,0,1,1,441,171.945,6.444,6.444,0,0,1,434.574,178.372Zm6.691-11.621a1.448,1.448,0,0,1-1.5-1.452,1.5,1.5,0,1,1,2.993,0A1.448,1.448,0,0,1,441.265,166.751Zm3.521.176a8.041,8.041,0,0,0-.44-2.377,4.013,4.013,0,0,0-.969-1.452,3.743,3.743,0,0,0-1.408-.925,6.485,6.485,0,0,0-2.333-.44c-1.32,0-1.717-.088-5.062-.088s-3.741.088-5.062.088a6.48,6.48,0,0,0-2.333.44,3.587,3.587,0,0,0-1.453.925,3.9,3.9,0,0,0-.924,1.452,6.783,6.783,0,0,0-.44,2.377c-.088,1.276-.088,1.673-.088,5.018s0,3.786.088,5.063a6.462,6.462,0,0,0,.44,2.332,3.906,3.906,0,0,0,.924,1.453,3.174,3.174,0,0,0,1.453.924,6.468,6.468,0,0,0,2.333.44c1.32.044,1.716.044,5.062.044s3.742,0,5.062-.044a6.473,6.473,0,0,0,2.333-.44,3.278,3.278,0,0,0,1.408-.924,4.02,4.02,0,0,0,.969-1.453,7.644,7.644,0,0,0,.44-2.332c.044-1.276.044-1.717.044-5.063S444.83,168.2,444.786,166.927Zm-10.212,11.445A6.4,6.4,0,1,1,441,171.945,6.444,6.444,0,0,1,434.574,178.372Zm6.691-11.621a1.448,1.448,0,0,1-1.5-1.452,1.5,1.5,0,1,1,2.993,0A1.448,1.448,0,0,1,441.265,166.751Zm12.249-5.757c-2.452-1.892-5.665-4.209-9.7-6.986q-3.334-2.223-6.092-3.971c-6.762-4.29-10.857-6.437-11.948-6.437A3.722,3.722,0,0,0,423,145.681l-6.625,13.95-2.536,5.34-4.019,8.462c-.695,1.389-.695,2.081,0,2.776q2.167,1.355,4.332,2.744,4.346,2.791,8.662,5.727,6.03,4.1,11.915,8.48,3.9,2.91,7.7,5.945c1.389.692,2.084,0,3.47-2.081q.668-1.047,1.3-2.059c8.791-14.083,12.58-23.14,12.58-27.774C459.767,166.308,457.8,164.3,453.514,160.994Zm-18.94,23.54c-3.434,0-3.829-.088-5.195-.132a8.892,8.892,0,0,1-3.036-.572,5.5,5.5,0,0,1-2.2-1.453,6.164,6.164,0,0,1-1.452-2.2,9.922,9.922,0,0,1-.617-3.037c-.044-1.365-.044-1.8-.044-5.195,0-3.345,0-3.829.044-5.194a9.918,9.918,0,0,1,.617-3.037,6.58,6.58,0,0,1,1.452-2.2,5.5,5.5,0,0,1,2.2-1.452,8.984,8.984,0,0,1,3.036-.528,44.5,44.5,0,0,1,5.195-.132,43.556,43.556,0,0,1,5.15.132,8.992,8.992,0,0,1,3.037.528,5.974,5.974,0,0,1,2.245,1.452,7.335,7.335,0,0,1,1.452,2.2,10.04,10.04,0,0,1,.572,3.037c.044,1.365.088,1.849.088,5.194,0,3.39-.044,3.83-.088,5.195a10.044,10.044,0,0,1-.572,3.037,6.817,6.817,0,0,1-1.452,2.2,5.977,5.977,0,0,1-2.245,1.453,8.9,8.9,0,0,1-3.037.572C438.4,184.446,437.963,184.534,434.574,184.534Zm8.8-3.741a4.02,4.02,0,0,0,.969-1.453,7.644,7.644,0,0,0,.44-2.332c.044-1.276.044-1.717.044-5.063s0-3.742-.044-5.018a8.041,8.041,0,0,0-.44-2.377,4.013,4.013,0,0,0-.969-1.452,3.743,3.743,0,0,0-1.408-.925,6.485,6.485,0,0,0-2.333-.44c-1.32,0-1.717-.088-5.062-.088s-3.741.088-5.062.088a6.48,6.48,0,0,0-2.333.44,3.587,3.587,0,0,0-1.453.925,3.9,3.9,0,0,0-.924,1.452,6.783,6.783,0,0,0-.44,2.377c-.088,1.276-.088,1.673-.088,5.018s0,3.786.088,5.063a6.462,6.462,0,0,0,.44,2.332,3.906,3.906,0,0,0,.924,1.453,3.174,3.174,0,0,0,1.453.924,6.468,6.468,0,0,0,2.333.44c1.32.044,1.716.044,5.062.044s3.742,0,5.062-.044a6.473,6.473,0,0,0,2.333-.44A3.278,3.278,0,0,0,443.378,180.793Zm-8.8-2.421A6.4,6.4,0,1,1,441,171.945,6.444,6.444,0,0,1,434.574,178.372Zm5.194-13.073a1.5,1.5,0,1,1,2.993,0,1.5,1.5,0,0,1-2.993,0Z" transform="translate(-409.294 -143.6)" fill="#0c0e13"/>
    </g>
  </g>
</svg>
