<svg xmlns="http://www.w3.org/2000/svg" width="50.473" height="55.764" viewBox="0 0 50.473 55.764">
  <path id="Path_442" data-name="Path 442" d="M1024.184,169.474a10.055,10.055,0,0,0-20.021-.173,6.685,6.685,0,0,0-.083.94A9.914,9.914,0,0,0,1006,176.1l-1.244,3.722,3.853-1.241a9.886,9.886,0,0,0,5.56,1.666,10.058,10.058,0,0,0,10.055-10.01A4.378,4.378,0,0,0,1024.184,169.474Zm-4.15,4.921a2.975,2.975,0,0,1-1.966,1.368c-.556.038-.556.428-3.549-.729a12.135,12.135,0,0,1-5.007-4.409,7.08,7.08,0,0,1-1.03-2.008,3.625,3.625,0,0,1-.166-.985,3.279,3.279,0,0,1,1.026-2.436,1.01,1.01,0,0,1,.812-.342h.556c.169,0,.384-.086.639.47.259.6.854,2.053.9,2.18a.524.524,0,0,1,.042.515,2.553,2.553,0,0,0-.169.339l-.128.131c-.173.173-.3.384-.428.511-.173.169-.3.3-.128.6a7.9,7.9,0,0,0,1.628,2.008,6.767,6.767,0,0,0,2.353,1.455c.3.131.47.131.643-.086a13.789,13.789,0,0,0,.936-1.109c.173-.3.387-.259.643-.173.259.131,1.714.812,2.011.94a3.92,3.92,0,0,1,.556.342A2.341,2.341,0,0,1,1020.034,174.395Zm4.15-4.921a10.055,10.055,0,0,0-20.021-.173,6.685,6.685,0,0,0-.083.94A9.914,9.914,0,0,0,1006,176.1l-1.244,3.722,3.853-1.241a9.886,9.886,0,0,0,5.56,1.666,10.058,10.058,0,0,0,10.055-10.01A4.378,4.378,0,0,0,1024.184,169.474Zm-4.15,4.921a2.975,2.975,0,0,1-1.966,1.368c-.556.038-.556.428-3.549-.729a12.135,12.135,0,0,1-5.007-4.409,7.08,7.08,0,0,1-1.03-2.008,3.625,3.625,0,0,1-.166-.985,3.279,3.279,0,0,1,1.026-2.436,1.01,1.01,0,0,1,.812-.342h.556c.169,0,.384-.086.639.47.259.6.854,2.053.9,2.18a.524.524,0,0,1,.042.515,2.553,2.553,0,0,0-.169.339l-.128.131c-.173.173-.3.384-.428.511-.173.169-.3.3-.128.6a7.9,7.9,0,0,0,1.628,2.008,6.767,6.767,0,0,0,2.353,1.455c.3.131.47.131.643-.086a13.789,13.789,0,0,0,.936-1.109c.173-.3.387-.259.643-.173.259.131,1.714.812,2.011.94a3.92,3.92,0,0,1,.556.342A2.341,2.341,0,0,1,1020.034,174.395Zm13.321-13.013c-.163-.128-.329-.256-.5-.387-2.45-1.89-5.663-4.209-9.7-6.983q-3.333-2.224-6.092-3.974c-.346-.218-.688-.432-1.019-.643-6.154-3.863-9.893-5.791-10.926-5.791a3.72,3.72,0,0,0-2.778,2.08l-5.936,12.5-.688,1.448-2.536,5.339-.232.491-3.787,7.972c-.695,1.389-.695,2.084,0,2.778q2.167,1.353,4.333,2.744c.128.083.256.166.387.249q4.152,2.675,8.272,5.477,5.624,3.82,11.116,7.885l.8.594q3.9,2.913,7.7,5.947c1.389.691,2.084,0,3.473-2.08q.663-1.047,1.293-2.059c8.79-14.084,12.581-23.141,12.581-27.775C1039.111,166.343,1037.3,164.46,1033.355,161.381Zm-19.182,20.753a11.967,11.967,0,0,1-5.778-1.455l-6.631,2.1,2.142-6.375a11.985,11.985,0,0,1-1.714-6.161v-.515a11.97,11.97,0,0,1,23.915.218.775.775,0,0,1,.045.3A11.943,11.943,0,0,1,1014.173,182.135Zm0-21.863a10.042,10.042,0,0,0-10.01,9.029,6.685,6.685,0,0,0-.083.94A9.914,9.914,0,0,0,1006,176.1l-1.244,3.722,3.853-1.241a9.886,9.886,0,0,0,5.56,1.666,10.058,10.058,0,0,0,10.055-10.01,4.378,4.378,0,0,0-.045-.767A10.029,10.029,0,0,0,1014.173,160.272Zm5.86,14.122a2.975,2.975,0,0,1-1.966,1.368c-.556.038-.556.428-3.549-.729a12.135,12.135,0,0,1-5.007-4.409,7.08,7.08,0,0,1-1.03-2.008,3.625,3.625,0,0,1-.166-.985,3.279,3.279,0,0,1,1.026-2.436,1.01,1.01,0,0,1,.812-.342h.556c.169,0,.384-.086.639.47.259.6.854,2.053.9,2.18a.524.524,0,0,1,.042.515,2.553,2.553,0,0,0-.169.339l-.128.131c-.173.173-.3.384-.428.511-.173.169-.3.3-.128.6a7.9,7.9,0,0,0,1.628,2.008,6.767,6.767,0,0,0,2.353,1.455c.3.131.47.131.643-.086a13.789,13.789,0,0,0,.936-1.109c.173-.3.387-.259.643-.173.259.131,1.714.812,2.011.94a3.92,3.92,0,0,1,.556.342A2.341,2.341,0,0,1,1020.034,174.395Zm4.15-4.921a10.055,10.055,0,0,0-20.021-.173,6.685,6.685,0,0,0-.083.94A9.914,9.914,0,0,0,1006,176.1l-1.244,3.722,3.853-1.241a9.886,9.886,0,0,0,5.56,1.666,10.058,10.058,0,0,0,10.055-10.01A4.378,4.378,0,0,0,1024.184,169.474Zm-4.15,4.921a2.975,2.975,0,0,1-1.966,1.368c-.556.038-.556.428-3.549-.729a12.135,12.135,0,0,1-5.007-4.409,7.08,7.08,0,0,1-1.03-2.008,3.625,3.625,0,0,1-.166-.985,3.279,3.279,0,0,1,1.026-2.436,1.01,1.01,0,0,1,.812-.342h.556c.169,0,.384-.086.639.47.259.6.854,2.053.9,2.18a.524.524,0,0,1,.042.515,2.553,2.553,0,0,0-.169.339l-.128.131c-.173.173-.3.384-.428.511-.173.169-.3.3-.128.6a7.9,7.9,0,0,0,1.628,2.008,6.767,6.767,0,0,0,2.353,1.455c.3.131.47.131.643-.086a13.789,13.789,0,0,0,.936-1.109c.173-.3.387-.259.643-.173.259.131,1.714.812,2.011.94a3.92,3.92,0,0,1,.556.342A2.341,2.341,0,0,1,1020.034,174.395Zm4.15-4.921a10.055,10.055,0,0,0-20.021-.173,6.685,6.685,0,0,0-.083.94A9.914,9.914,0,0,0,1006,176.1l-1.244,3.722,3.853-1.241a9.886,9.886,0,0,0,5.56,1.666,10.058,10.058,0,0,0,10.055-10.01A4.378,4.378,0,0,0,1024.184,169.474Zm-4.15,4.921a2.975,2.975,0,0,1-1.966,1.368c-.556.038-.556.428-3.549-.729a12.135,12.135,0,0,1-5.007-4.409,7.08,7.08,0,0,1-1.03-2.008,3.625,3.625,0,0,1-.166-.985,3.279,3.279,0,0,1,1.026-2.436,1.01,1.01,0,0,1,.812-.342h.556c.169,0,.384-.086.639.47.259.6.854,2.053.9,2.18a.524.524,0,0,1,.042.515,2.553,2.553,0,0,0-.169.339l-.128.131c-.173.173-.3.384-.428.511-.173.169-.3.3-.128.6a7.9,7.9,0,0,0,1.628,2.008,6.767,6.767,0,0,0,2.353,1.455c.3.131.47.131.643-.086a13.789,13.789,0,0,0,.936-1.109c.173-.3.387-.259.643-.173.259.131,1.714.812,2.011.94a3.92,3.92,0,0,1,.556.342A2.341,2.341,0,0,1,1020.034,174.395Z" transform="translate(-988.638 -143.603)" fill="#0c0e13"/>
</svg>
